<svg width="20" height="17" viewBox="0 0 20 17" fill="none" xmlns="http://www.w3.org/2000/svg">
<path d="M7.5 17C7.77614 17 8 16.7761 8 16.5V11.5C8 11.2239 8.22386 11 8.5 11H11.5C11.7761 11 12 11.2239 12 11.5V16.5C12 16.7761 12.2239 17 12.5 17H16.5C16.7761 17 17 16.7761 17 16.5V9.5C17 9.22386 17.2239 9 17.5 9H18.697C19.1553 9 19.3721 8.4349 19.0315 8.12835L10.3345 0.301034C10.1443 0.129897 9.85567 0.129897 9.66552 0.301034L0.968498 8.12835C0.627889 8.4349 0.844737 9 1.30298 9H2.5C2.77614 9 3 9.22386 3 9.5V16.5C3 16.7761 3.22386 17 3.5 17H7.5Z" fill="#45197C"/>
</svg>
