<svg width="209" height="81" viewBox="0 0 209 81" fill="none" xmlns="http://www.w3.org/2000/svg">
<path d="M4.928 63.5996V21.8716H14.592L25.472 42.6076L29.568 51.8236H29.824C29.6107 49.6049 29.3547 47.1303 29.056 44.3996C28.8 41.6689 28.672 39.0663 28.672 36.5916V21.8716H37.632V63.5996H27.968L17.088 42.7996L12.992 33.7116H12.736C12.9493 36.0156 13.184 38.4903 13.44 41.1356C13.7387 43.7809 13.888 46.3409 13.888 48.8156V63.5996H4.928ZM60.9305 64.3676C58.6692 64.3676 56.5572 64.0049 54.5945 63.2796C52.6318 62.5116 50.9252 61.4236 49.4745 60.0156C48.0238 58.5649 46.8932 56.8156 46.0825 54.7676C45.2718 52.7196 44.8665 50.3729 44.8665 47.7276C44.8665 45.1676 45.2932 42.8636 46.1465 40.8156C46.9998 38.7249 48.1092 36.9756 49.4745 35.5676C50.8825 34.1169 52.4825 33.0076 54.2745 32.2396C56.0665 31.4716 57.9225 31.0876 59.8425 31.0876C62.1038 31.0876 64.0665 31.4716 65.7305 32.2396C67.4372 33.0076 68.8452 34.0743 69.9545 35.4396C71.1065 36.8049 71.9598 38.4263 72.5145 40.3036C73.0692 42.1383 73.3465 44.1436 73.3465 46.3196C73.3465 47.1729 73.3038 47.9836 73.2185 48.7516C73.1332 49.5196 73.0478 50.0956 72.9625 50.4796H53.9545C54.3812 52.7836 55.3198 54.4903 56.7705 55.5996C58.2638 56.6663 60.0772 57.1996 62.2105 57.1996C64.4718 57.1996 66.7545 56.4956 69.0585 55.0876L72.1945 60.7836C70.5732 61.8929 68.7598 62.7676 66.7545 63.4076C64.7918 64.0476 62.8505 64.3676 60.9305 64.3676ZM53.8905 44.2716H65.3465C65.3465 42.4796 64.9412 41.0289 64.1305 39.9196C63.3198 38.8103 61.9545 38.2556 60.0345 38.2556C58.5412 38.2556 57.2185 38.7463 56.0665 39.7276C54.9572 40.7089 54.2318 42.2236 53.8905 44.2716ZM93.6715 64.3676C91.4528 64.3676 89.3835 64.0049 87.4635 63.2796C85.5862 62.5116 83.9435 61.4236 82.5355 60.0156C81.1275 58.6076 80.0182 56.8796 79.2075 54.8316C78.3968 52.7409 77.9915 50.3729 77.9915 47.7276C77.9915 45.0823 78.4395 42.7356 79.3355 40.6876C80.2315 38.5969 81.4262 36.8476 82.9195 35.4396C84.4555 34.0316 86.2262 32.9649 88.2315 32.2396C90.2368 31.4716 92.3275 31.0876 94.5035 31.0876C96.4662 31.0876 98.1942 31.4076 99.6875 32.0476C101.224 32.6876 102.589 33.4983 103.784 34.4796L99.3675 40.5596C97.8742 39.3223 96.4448 38.7036 95.0795 38.7036C92.7755 38.7036 90.9622 39.5143 89.6395 41.1356C88.3168 42.7569 87.6555 44.9543 87.6555 47.7276C87.6555 50.5009 88.3168 52.6983 89.6395 54.3196C91.0048 55.9409 92.7115 56.7516 94.7595 56.7516C95.7835 56.7516 96.7648 56.5383 97.7035 56.1116C98.6848 55.6423 99.6022 55.0876 100.456 54.4476L104.168 60.5916C102.589 61.9569 100.882 62.9383 99.0475 63.5356C97.2128 64.0903 95.4208 64.3676 93.6715 64.3676ZM121.322 64.3676C119.359 64.3676 117.674 64.0689 116.266 63.4716C114.9 62.8743 113.77 62.0423 112.874 60.9756C112.02 59.9089 111.38 58.6289 110.954 57.1356C110.57 55.5996 110.378 53.9143 110.378 52.0796V39.2156H106.026V32.2396L110.89 31.8556L111.978 23.4076H119.786V31.8556H127.402V39.2156H119.786V51.9516C119.786 53.7436 120.148 55.0449 120.874 55.8556C121.642 56.6236 122.644 57.0076 123.882 57.0076C124.394 57.0076 124.906 56.9436 125.418 56.8156C125.972 56.6876 126.463 56.5383 126.89 56.3676L128.362 63.2156C127.508 63.4716 126.506 63.7276 125.354 63.9836C124.202 64.2396 122.858 64.3676 121.322 64.3676ZM140.348 64.3676C138.897 64.3676 137.574 64.1116 136.38 63.5996C135.228 63.1303 134.246 62.4689 133.436 61.6156C132.625 60.7196 131.985 59.6956 131.516 58.5436C131.089 57.3916 130.876 56.1329 130.876 54.7676C130.876 51.4396 132.284 48.8369 135.1 46.9596C137.916 45.0823 142.46 43.8236 148.732 43.1836C148.646 41.7756 148.22 40.6663 147.452 39.8556C146.726 39.0023 145.489 38.5756 143.74 38.5756C142.374 38.5756 141.009 38.8316 139.644 39.3436C138.321 39.8556 136.892 40.5596 135.356 41.4556L131.964 35.2476C134.012 34.0103 136.145 33.0076 138.364 32.2396C140.625 31.4716 143.014 31.0876 145.532 31.0876C149.628 31.0876 152.742 32.2609 154.876 34.6076C157.052 36.9116 158.14 40.5169 158.14 45.4236V63.5996H150.46L149.82 60.3356H149.564C148.198 61.5303 146.769 62.5116 145.276 63.2796C143.782 64.0049 142.14 64.3676 140.348 64.3676ZM143.548 57.0716C144.614 57.0716 145.532 56.8369 146.3 56.3676C147.068 55.8983 147.878 55.2369 148.732 54.3836V48.8156C145.404 49.2849 143.1 49.9676 141.82 50.8636C140.54 51.7596 139.9 52.8263 139.9 54.0636C139.9 55.0876 140.22 55.8556 140.86 56.3676C141.542 56.8369 142.438 57.0716 143.548 57.0716ZM166.098 63.5996V31.8556H173.778L174.418 37.4236H174.674C175.826 35.2476 177.212 33.6476 178.833 32.6236C180.455 31.5996 182.076 31.0876 183.698 31.0876C184.594 31.0876 185.319 31.1516 185.874 31.2796C186.471 31.3649 187.004 31.5143 187.474 31.7276L185.938 39.8556C185.34 39.6849 184.786 39.5569 184.274 39.4716C183.762 39.3863 183.164 39.3436 182.482 39.3436C181.287 39.3436 180.028 39.7703 178.706 40.6236C177.426 41.4769 176.359 42.9916 175.506 45.1676V63.5996H166.098Z" fill="white"/>
<g clip-path="url(#clip0_1808_11103)">
<path d="M198.6 9.59883H193.4V19.9988H183V25.1988H193.4V35.5988H198.6V25.1988H209V19.9988H198.6V9.59883ZM210.3 4.60683V9.33883L216.8 8.03883V35.5988H222V1.79883L210.3 4.60683Z" fill="white"/>
</g>
<defs>
<clipPath id="clip0_1808_11103">
<rect width="26" height="26" fill="white" transform="translate(183 9.59961)"/>
</clipPath>
</defs>
</svg>
