<svg width="26" height="27" viewBox="0 0 26 27" fill="none" xmlns="http://www.w3.org/2000/svg">
<g clip-path="url(#clip0_7859_15473)">
<path d="M25.8277 15.2771C26.9818 8.19072 22.1728 1.51054 15.0864 0.356459C8.00009 -0.797625 1.31991 4.01142 0.165825 11.0978C-0.988258 18.1841 3.82078 24.8643 10.9071 26.0184C17.9935 27.1724 24.6736 22.3634 25.8277 15.2771Z" fill="white"/>
<path fill-rule="evenodd" clip-rule="evenodd" d="M14.7257 8.36285H16.3454V5.90168C16.093 5.90168 15.8195 5.83858 15.5566 5.82806C15.0727 5.82806 14.5889 5.77547 14.1051 5.82806C13.3543 5.81848 12.6192 6.0427 12.0015 6.46965C11.6646 6.71863 11.3818 7.03348 11.1703 7.39508C10.9587 7.75669 10.8229 8.1575 10.771 8.57321C10.7168 8.92122 10.6887 9.27279 10.6868 9.62499C10.6868 10.1824 10.6868 10.6768 10.6868 11.2868V11.4972H8.32031V14.2423H10.6553V21.142H13.5161V14.1582H15.8511C15.9668 13.2431 16.0824 12.3386 16.2087 11.392H13.4951C13.4951 11.392 13.4951 10.0352 13.4951 9.44618C13.5477 8.60476 14.021 8.38389 14.7257 8.36285Z" fill="#45197C"/>
</g>
<defs>
<clipPath id="clip0_7859_15473">
<rect width="26" height="26" fill="white" transform="translate(0 0.19043)"/>
</clipPath>
</defs>
</svg>
