<svg width="26" height="27" viewBox="0 0 26 27" fill="none" xmlns="http://www.w3.org/2000/svg">
<g clip-path="url(#clip0_7859_15483)">
<path d="M25.8277 15.2771C26.9818 8.19072 22.1728 1.51054 15.0864 0.356459C8.00009 -0.797625 1.31991 4.01142 0.165825 11.0978C-0.988258 18.1841 3.82078 24.8643 10.9071 26.0184C17.9935 27.1724 24.6736 22.3634 25.8277 15.2771Z" fill="white"/>
<path d="M19.9112 9.7827C19.8387 8.89088 19.4421 8.0565 18.7963 7.43723C18.1131 6.78783 17.2143 6.41333 16.272 6.38545C14.0037 6.26964 11.7301 6.30829 9.46703 6.50114C8.75596 6.58377 8.08765 6.88359 7.55313 7.35977C7.01861 7.83594 6.64388 8.46531 6.47997 9.16215C6.19612 11.7302 6.17498 14.3204 6.41687 16.8927C6.50045 17.6223 6.81327 18.3065 7.31032 18.847C7.80737 19.3876 8.46305 19.7565 9.18305 19.9008C11.7158 20.1378 14.2652 20.1378 16.7979 19.9008C17.5265 19.8206 18.2109 19.5118 18.7532 19.0186C19.2955 18.5255 19.6677 17.8734 19.8165 17.1557C20.0605 14.7053 20.0921 12.2385 19.9112 9.7827ZM18.6491 16.6719C18.5946 17.2273 18.3429 17.7449 17.9396 18.1308C17.5364 18.5167 17.0082 18.7454 16.4508 18.7754C14.0861 18.9495 11.7106 18.9178 9.35133 18.6808C8.89584 18.5696 8.48617 18.3195 8.17902 17.9653C7.87187 17.611 7.68244 17.1701 7.63693 16.7034C7.46317 14.3892 7.46317 12.0653 7.63693 9.75114C7.69081 9.19904 7.93948 8.68416 8.33842 8.29871C8.73736 7.91327 9.26049 7.68244 9.81412 7.64758C12.0727 7.48971 14.3395 7.48971 16.5981 7.64758C17.1536 7.70209 17.6712 7.95378 18.0571 8.35704C18.443 8.7603 18.6716 9.28846 18.7017 9.8458C18.8394 12.1197 18.8218 14.4003 18.6491 16.6719ZM13.1377 9.65648C12.4388 9.65648 11.7555 9.86375 11.1744 10.2521C10.5932 10.6404 10.1402 11.1923 9.87277 11.8381C9.60529 12.4838 9.5353 13.1944 9.67166 13.8799C9.80802 14.5654 10.1446 15.1951 10.6388 15.6894C11.1331 16.1836 11.7628 16.5202 12.4483 16.6565C13.1338 16.7929 13.8444 16.7229 14.4901 16.4554C15.1359 16.188 15.6878 15.735 16.0761 15.1538C16.4645 14.5727 16.6717 13.8894 16.6717 13.1905C16.6717 12.2532 16.2994 11.3543 15.6366 10.6916C14.9739 10.0288 14.075 9.65648 13.1377 9.65648ZM13.1377 15.4623C12.6864 15.4581 12.2464 15.3202 11.8734 15.066C11.5004 14.8117 11.2111 14.4526 11.0423 14.034C10.8734 13.6153 10.8324 13.156 10.9246 12.7141C11.0167 12.2722 11.2378 11.8676 11.5599 11.5514C11.8821 11.2351 12.2907 11.0215 12.7342 10.9375C13.1777 10.8535 13.6362 10.903 14.0516 11.0795C14.4671 11.2561 14.8208 11.5519 15.0682 11.9295C15.3155 12.3071 15.4453 12.7496 15.4411 13.201C15.4426 13.5052 15.3832 13.8066 15.2665 14.0875C15.1498 14.3684 14.9782 14.6231 14.7616 14.8368C14.5451 15.0504 14.288 15.2185 14.0055 15.3314C13.723 15.4442 13.4208 15.4995 13.1167 15.4939L13.1377 15.4623ZM17.6604 9.51975C17.6667 9.68529 17.6234 9.84893 17.536 9.98966C17.4486 10.1304 17.3211 10.2418 17.1699 10.3095C17.0188 10.3773 16.8508 10.3983 16.6876 10.3699C16.5244 10.3415 16.3734 10.265 16.254 10.1501C16.1346 10.0353 16.0523 9.88735 16.0176 9.72536C15.9829 9.56338 15.9974 9.39473 16.0593 9.24105C16.1211 9.08738 16.2275 8.9557 16.3648 8.86293C16.502 8.77015 16.6638 8.72052 16.8295 8.7204C17.0462 8.72589 17.2522 8.81585 17.4035 8.97108C17.5548 9.12631 17.6394 9.33453 17.6394 9.5513L17.6604 9.51975Z" fill="#45197C"/>
<path d="M19.9112 9.7827C19.8387 8.89088 19.4421 8.0565 18.7963 7.43723C18.1131 6.78783 17.2143 6.41333 16.272 6.38545C14.0037 6.26964 11.7301 6.30829 9.46703 6.50114C8.75596 6.58377 8.08765 6.88359 7.55313 7.35977C7.01861 7.83594 6.64388 8.46531 6.47997 9.16215C6.19612 11.7302 6.17498 14.3204 6.41687 16.8927C6.50045 17.6223 6.81327 18.3065 7.31032 18.847C7.80737 19.3876 8.46305 19.7565 9.18305 19.9008C11.7158 20.1378 14.2652 20.1378 16.7979 19.9008C17.5265 19.8206 18.2109 19.5118 18.7532 19.0186C19.2955 18.5255 19.6677 17.8734 19.8165 17.1557C20.0605 14.7053 20.0921 12.2385 19.9112 9.7827ZM18.6491 16.6719C18.5946 17.2273 18.3429 17.7449 17.9396 18.1308C17.5364 18.5167 17.0082 18.7454 16.4508 18.7754C14.0861 18.9495 11.7106 18.9178 9.35133 18.6808C8.89584 18.5696 8.48617 18.3195 8.17902 17.9653C7.87187 17.611 7.68244 17.1701 7.63693 16.7034C7.46317 14.3892 7.46317 12.0653 7.63693 9.75114C7.69081 9.19904 7.93948 8.68416 8.33842 8.29871C8.73736 7.91327 9.26049 7.68244 9.81412 7.64758C12.0727 7.48971 14.3395 7.48971 16.5981 7.64758C17.1536 7.70209 17.6712 7.95378 18.0571 8.35704C18.443 8.7603 18.6716 9.28846 18.7017 9.8458C18.8394 12.1197 18.8218 14.4003 18.6491 16.6719ZM13.1377 9.65648C12.4388 9.65648 11.7555 9.86375 11.1744 10.2521C10.5932 10.6404 10.1402 11.1923 9.87277 11.8381C9.60529 12.4838 9.5353 13.1944 9.67166 13.8799C9.80802 14.5654 10.1446 15.1951 10.6388 15.6894C11.1331 16.1836 11.7628 16.5202 12.4483 16.6565C13.1338 16.7929 13.8444 16.7229 14.4901 16.4554C15.1359 16.188 15.6878 15.735 16.0761 15.1538C16.4645 14.5727 16.6717 13.8894 16.6717 13.1905C16.6717 12.2532 16.2994 11.3543 15.6366 10.6916C14.9739 10.0288 14.075 9.65648 13.1377 9.65648ZM13.1377 15.4623C12.6864 15.4581 12.2464 15.3202 11.8734 15.066C11.5004 14.8117 11.2111 14.4526 11.0423 14.034C10.8734 13.6153 10.8324 13.156 10.9246 12.7141C11.0167 12.2722 11.2378 11.8676 11.5599 11.5514C11.8821 11.2351 12.2907 11.0215 12.7342 10.9375C13.1777 10.8535 13.6362 10.903 14.0516 11.0795C14.4671 11.2561 14.8208 11.5519 15.0682 11.9295C15.3155 12.3071 15.4453 12.7496 15.4411 13.201C15.4426 13.5052 15.3832 13.8066 15.2665 14.0875C15.1498 14.3684 14.9782 14.6231 14.7616 14.8368C14.5451 15.0504 14.288 15.2185 14.0055 15.3314C13.723 15.4442 13.4208 15.4995 13.1167 15.4939L13.1377 15.4623ZM17.6604 9.51975C17.6667 9.68529 17.6234 9.84893 17.536 9.98966C17.4486 10.1304 17.3211 10.2418 17.1699 10.3095C17.0188 10.3773 16.8508 10.3983 16.6876 10.3699C16.5244 10.3415 16.3734 10.265 16.254 10.1501C16.1346 10.0353 16.0523 9.88735 16.0176 9.72536C15.9829 9.56338 15.9974 9.39473 16.0593 9.24105C16.1211 9.08738 16.2275 8.9557 16.3648 8.86293C16.502 8.77015 16.6638 8.72052 16.8295 8.7204C17.0462 8.72589 17.2522 8.81585 17.4035 8.97108C17.5548 9.12631 17.6394 9.33453 17.6394 9.5513L17.6604 9.51975Z" fill="#45197C"/>
</g>
<defs>
<clipPath id="clip0_7859_15483">
<rect width="26" height="26" fill="white" transform="translate(0 0.19043)"/>
</clipPath>
</defs>
</svg>
