<svg width="26" height="27" viewBox="0 0 26 27" fill="none" xmlns="http://www.w3.org/2000/svg">
<g clip-path="url(#clip0_7859_15494)">
<path d="M13 26.1904C20.1797 26.1904 26 20.3701 26 13.1904C26 6.01073 20.1797 0.19043 13 0.19043C5.8203 0.19043 0 6.01073 0 13.1904C0 20.3701 5.8203 26.1904 13 26.1904Z" fill="white"/>
<path d="M7.43617 10.4659H10.0761V18.9433H7.43617V10.4659ZM8.76141 6.25879C9.06304 6.25879 9.3579 6.34823 9.6087 6.51581C9.8595 6.68339 10.055 6.92157 10.1704 7.20025C10.2858 7.47892 10.316 7.78556 10.2572 8.0814C10.1983 8.37724 10.0531 8.64898 9.8398 8.86227C9.62652 9.07555 9.35477 9.2208 9.05894 9.27965C8.7631 9.33849 8.45646 9.30829 8.17779 9.19286C7.89911 9.07743 7.66093 8.88196 7.49335 8.63116C7.32577 8.38036 7.23633 8.0855 7.23633 7.78387C7.23633 7.37939 7.39701 6.99148 7.68301 6.70547C7.96902 6.41947 8.35693 6.25879 8.76141 6.25879Z" fill="#45197C"/>
<path d="M11.7383 10.4666H14.2626V11.6341C14.5198 11.1885 14.8963 10.8234 15.3497 10.58C15.803 10.3366 16.3153 10.2245 16.8289 10.2563C19.5004 10.2563 19.9842 12.0127 19.9842 14.2951V18.944H17.3127V14.8315C17.3127 13.8428 17.3127 12.5807 15.9454 12.5807C14.5781 12.5807 14.3677 13.6325 14.3677 14.7579V18.965H11.7383V10.4666Z" fill="#45197C"/>
</g>
<defs>
<clipPath id="clip0_7859_15494">
<rect width="26" height="26" fill="white" transform="translate(0 0.19043)"/>
</clipPath>
</defs>
</svg>
