<svg width="92" height="48" viewBox="0 0 92 48" fill="none" xmlns="http://www.w3.org/2000/svg">
<rect width="92" height="48" rx="24" fill="#45197C"/>
<path d="M20.476 24H22.456V18.852C22.456 17.538 22.294 16.116 22.186 14.874H22.258L23.482 17.376L27.136 24H29.278V12.228H27.298V17.34C27.298 18.654 27.46 20.148 27.568 21.354H27.496L26.272 18.852L22.618 12.228H20.476V24ZM31.4978 19.59C31.4978 22.506 33.4058 24.216 35.8538 24.216C36.9698 24.216 38.0318 23.82 38.8778 23.262L38.1758 21.966C37.5278 22.38 36.8798 22.614 36.1238 22.614C34.7018 22.614 33.6938 21.714 33.5138 20.112H39.1298C39.1838 19.896 39.2198 19.536 39.2198 19.14C39.2198 16.674 37.9598 14.946 35.5658 14.946C33.4958 14.946 31.4978 16.71 31.4978 19.59ZM33.4958 18.798C33.6758 17.322 34.5758 16.548 35.6198 16.548C36.8258 16.548 37.4198 17.394 37.4198 18.798H33.4958ZM40.6208 19.59C40.6208 22.524 42.4748 24.216 44.8868 24.216C45.8948 24.216 46.9568 23.82 47.7848 23.082L46.9208 21.768C46.4348 22.164 45.8228 22.524 45.1028 22.524C43.7168 22.524 42.7448 21.354 42.7448 19.59C42.7448 17.808 43.7348 16.638 45.1568 16.638C45.7148 16.638 46.1828 16.872 46.6508 17.286L47.6408 15.972C47.0468 15.396 46.1828 14.946 45.0488 14.946C42.6908 14.946 40.6208 16.638 40.6208 19.59ZM49.8173 21.012C49.8173 22.92 50.5733 24.216 52.6253 24.216C53.3273 24.216 53.9393 24.054 54.4253 23.892L54.0653 22.362C53.8133 22.47 53.4533 22.56 53.1473 22.56C52.3013 22.56 51.9053 22.056 51.9053 21.012V16.8H54.1553V15.162H51.9053V12.75H50.1773L49.9253 15.162L48.5573 15.252V16.8H49.8173V21.012ZM55.3735 21.624C55.3735 23.172 56.4535 24.216 58.0015 24.216C59.0455 24.216 59.9455 23.694 60.7375 23.028H60.7915L60.9535 24H62.6455V18.762C62.6455 16.296 61.5655 14.946 59.3515 14.946C57.9475 14.946 56.7055 15.486 55.7335 16.098L56.4895 17.484C57.2635 17.016 58.0915 16.62 58.9735 16.62C60.1615 16.62 60.5575 17.412 60.5755 18.348C56.9575 18.744 55.3735 19.734 55.3735 21.624ZM57.3895 21.462C57.3895 20.58 58.1815 19.95 60.5755 19.644V21.624C59.9275 22.236 59.3695 22.596 58.6495 22.596C57.9115 22.596 57.3895 22.254 57.3895 21.462ZM65.1734 24H67.2434V18.6C67.7834 17.268 68.6294 16.782 69.3314 16.782C69.7094 16.782 69.9434 16.836 70.2494 16.926L70.6094 15.126C70.3394 15 70.0514 14.946 69.6014 14.946C68.6654 14.946 67.7294 15.576 67.0994 16.728H67.0274L66.8834 15.162H65.1734V24Z" fill="white"/>
<g clip-path="url(#clip0_1134_10506)">
<path d="M20.476 35H22.564V29.78H27.316V35H29.404V23.228H27.316V27.962H22.564V23.228H20.476V35ZM31.6208 30.59C31.6208 33.506 33.5288 35.216 35.9768 35.216C37.0928 35.216 38.1548 34.82 39.0008 34.262L38.2988 32.966C37.6508 33.38 37.0028 33.614 36.2468 33.614C34.8248 33.614 33.8168 32.714 33.6368 31.112H39.2528C39.3068 30.896 39.3428 30.536 39.3428 30.14C39.3428 27.674 38.0828 25.946 35.6888 25.946C33.6188 25.946 31.6208 27.71 31.6208 30.59ZM33.6188 29.798C33.7988 28.322 34.6988 27.548 35.7428 27.548C36.9488 27.548 37.5428 28.394 37.5428 29.798H33.6188ZM40.7309 32.624C40.7309 34.172 41.8109 35.216 43.3589 35.216C44.4029 35.216 45.3029 34.694 46.0949 34.028H46.1489L46.3109 35H48.0029V29.762C48.0029 27.296 46.9229 25.946 44.7089 25.946C43.3049 25.946 42.0629 26.486 41.0909 27.098L41.8469 28.484C42.6209 28.016 43.4489 27.62 44.3309 27.62C45.5189 27.62 45.9149 28.412 45.9329 29.348C42.3149 29.744 40.7309 30.734 40.7309 32.624ZM42.7469 32.462C42.7469 31.58 43.5389 30.95 45.9329 30.644V32.624C45.2849 33.236 44.7269 33.596 44.0069 33.596C43.2689 33.596 42.7469 33.254 42.7469 32.462ZM50.5308 32.732C50.5308 34.262 51.0708 35.216 52.5468 35.216C53.0328 35.216 53.3928 35.144 53.6448 35.036L53.3748 33.488C53.2128 33.524 53.1408 33.524 53.0508 33.524C52.8348 33.524 52.6008 33.344 52.6008 32.84V22.292H50.5308V32.732ZM55.7235 32.012C55.7235 33.92 56.4795 35.216 58.5315 35.216C59.2335 35.216 59.8455 35.054 60.3315 34.892L59.9715 33.362C59.7195 33.47 59.3595 33.56 59.0535 33.56C58.2075 33.56 57.8115 33.056 57.8115 32.012V27.8H60.0615V26.162H57.8115V23.75H56.0835L55.8315 26.162L54.4635 26.252V27.8H55.7235V32.012ZM61.9214 35H63.9914V28.826C64.7294 28.106 65.2334 27.728 66.0074 27.728C66.9794 27.728 67.3934 28.268 67.3934 29.726V35H69.4634V29.456C69.4634 27.224 68.6354 25.946 66.7454 25.946C65.5394 25.946 64.6574 26.576 63.9194 27.278L63.9914 25.568V22.292H61.9214V35Z" fill="white"/>
</g>
<path d="M72.2197 16.218H73.7857V12.816H77.0077V11.304H73.7857V7.902H72.2197V11.304H68.9977V12.816H72.2197V16.218Z" fill="white"/>
<defs>
<clipPath id="clip0_1134_10506">
<rect width="52" height="15" fill="white" transform="translate(19 25)"/>
</clipPath>
</defs>
</svg>
