<svg width="26" height="27" viewBox="0 0 26 27" fill="none" xmlns="http://www.w3.org/2000/svg">
<g clip-path="url(#clip0_7859_15478)">
<path d="M25.8277 15.2771C26.9818 8.19072 22.1728 1.51054 15.0864 0.356459C8.00009 -0.797625 1.31991 4.01142 0.165825 11.0978C-0.988258 18.1841 3.82078 24.8643 10.9071 26.0184C17.9935 27.1724 24.6736 22.3634 25.8277 15.2771Z" fill="white"/>
<g clip-path="url(#clip1_7859_15478)">
<path d="M14.1486 11.925L19.2457 6H18.0378L13.612 11.1446L10.0771 6H6L11.3455 13.7795L6 19.9928H7.20792L11.8817 14.5599L15.6148 19.9928H19.6919L14.1483 11.925H14.1486ZM12.4941 13.8481L11.9525 13.0734L7.64316 6.90931H9.49846L12.9762 11.8839L13.5178 12.6586L18.0384 19.1249H16.1831L12.4941 13.8484V13.8481Z" fill="#45197C"/>
</g>
</g>
<defs>
<clipPath id="clip0_7859_15478">
<rect width="26" height="26" fill="white" transform="translate(0 0.19043)"/>
</clipPath>
<clipPath id="clip1_7859_15478">
<rect width="13.6919" height="14" fill="white" transform="translate(6 6)"/>
</clipPath>
</defs>
</svg>
