<svg width="26" height="27" viewBox="0 0 26 27" fill="none" xmlns="http://www.w3.org/2000/svg">
<g clip-path="url(#clip0_7859_15489)">
<path d="M13 26.1904C20.1797 26.1904 26 20.3701 26 13.1904C26 6.01073 20.1797 0.19043 13 0.19043C5.8203 0.19043 0 6.01073 0 13.1904C0 20.3701 5.8203 26.1904 13 26.1904Z" fill="white"/>
<path fill-rule="evenodd" clip-rule="evenodd" d="M7.57237 17.7021C7.32452 17.626 7.09908 17.4903 6.91573 17.307C6.73239 17.1236 6.59673 16.8982 6.52059 16.6503C6.06832 15.3987 5.93159 10.1714 6.80457 9.14061C7.10301 8.82034 7.51389 8.62809 7.95101 8.6042C10.307 8.34126 17.5958 8.38333 18.4688 8.68834C18.709 8.75986 18.9292 8.88648 19.1118 9.05813C19.2944 9.22978 19.4344 9.4417 19.5206 9.67702C20.0149 10.9707 20.036 15.6722 19.4575 16.9133C19.2997 17.2391 19.0366 17.5022 18.7107 17.66C17.7852 18.0702 8.72933 18.0702 7.57237 17.7021ZM11.3167 15.2515L15.5238 13.0532L11.3167 10.834V15.2515Z" fill="#45197C"/>
</g>
<defs>
<clipPath id="clip0_7859_15489">
<rect width="26" height="26" fill="white" transform="translate(0 0.19043)"/>
</clipPath>
</defs>
</svg>
