<svg width="16" height="15" viewBox="0 0 16 15" fill="none" xmlns="http://www.w3.org/2000/svg">
<path d="M2 14.25C1.5875 14.25 1.23438 14.1031 0.940625 13.8094C0.646875 13.5156 0.5 13.1625 0.5 12.75V2.25C0.5 1.8375 0.646875 1.48438 0.940625 1.19063C1.23438 0.896875 1.5875 0.75 2 0.75H14C14.4125 0.75 14.7656 0.896875 15.0594 1.19063C15.3531 1.48438 15.5 1.8375 15.5 2.25V12.75C15.5 13.1625 15.3531 13.5156 15.0594 13.8094C14.7656 14.1031 14.4125 14.25 14 14.25H2ZM4.25 11.25H11.75C11.9625 11.25 12.1406 11.1781 12.2844 11.0344C12.4281 10.8906 12.5 10.7125 12.5 10.5C12.5 10.2875 12.4281 10.1094 12.2844 9.96563C12.1406 9.82188 11.9625 9.75 11.75 9.75H4.25C4.0375 9.75 3.85938 9.82188 3.71563 9.96563C3.57188 10.1094 3.5 10.2875 3.5 10.5C3.5 10.7125 3.57188 10.8906 3.71563 11.0344C3.85938 11.1781 4.0375 11.25 4.25 11.25ZM4.25 8.25H5.75C5.9625 8.25 6.14062 8.17813 6.28438 8.03438C6.42813 7.89063 6.5 7.7125 6.5 7.5V4.5C6.5 4.2875 6.42813 4.10938 6.28438 3.96563C6.14062 3.82188 5.9625 3.75 5.75 3.75H4.25C4.0375 3.75 3.85938 3.82188 3.71563 3.96563C3.57188 4.10938 3.5 4.2875 3.5 4.5V7.5C3.5 7.7125 3.57188 7.89063 3.71563 8.03438C3.85938 8.17813 4.0375 8.25 4.25 8.25ZM8.75 8.25H11.75C11.9625 8.25 12.1406 8.17813 12.2844 8.03438C12.4281 7.89063 12.5 7.7125 12.5 7.5C12.5 7.2875 12.4281 7.10938 12.2844 6.96563C12.1406 6.82188 11.9625 6.75 11.75 6.75H8.75C8.5375 6.75 8.35938 6.82188 8.21563 6.96563C8.07188 7.10938 8 7.2875 8 7.5C8 7.7125 8.07188 7.89063 8.21563 8.03438C8.35938 8.17813 8.5375 8.25 8.75 8.25ZM8.75 5.25H11.75C11.9625 5.25 12.1406 5.17813 12.2844 5.03438C12.4281 4.89062 12.5 4.7125 12.5 4.5C12.5 4.2875 12.4281 4.10938 12.2844 3.96563C12.1406 3.82188 11.9625 3.75 11.75 3.75H8.75C8.5375 3.75 8.35938 3.82188 8.21563 3.96563C8.07188 4.10938 8 4.2875 8 4.5C8 4.7125 8.07188 4.89062 8.21563 5.03438C8.35938 5.17813 8.5375 5.25 8.75 5.25Z" fill="black"/>
</svg>
