<svg width="16" height="19" viewBox="0 0 16 19" fill="none" xmlns="http://www.w3.org/2000/svg">
<path d="M10.5 0.833008H5.5V2.49967H10.5V0.833008ZM7.16667 11.6663H8.83333V6.66634H7.16667V11.6663ZM13.8583 6.15801L15.0417 4.97467C14.6833 4.54967 14.2917 4.14967 13.8667 3.79967L12.6833 4.98301C11.3917 3.94967 9.76667 3.33301 8 3.33301C3.85833 3.33301 0.5 6.69134 0.5 10.833C0.5 14.9747 3.85 18.333 8 18.333C12.15 18.333 15.5 14.9747 15.5 10.833C15.5 9.06634 14.8833 7.44134 13.8583 6.15801ZM8 16.6663C4.775 16.6663 2.16667 14.058 2.16667 10.833C2.16667 7.60801 4.775 4.99967 8 4.99967C11.225 4.99967 13.8333 7.60801 13.8333 10.833C13.8333 14.058 11.225 16.6663 8 16.6663Z" fill="#008000"/>
</svg>
