<svg width="27" height="24" viewBox="0 0 27 24" fill="none" xmlns="http://www.w3.org/2000/svg">
<path d="M26.1487 9.54792V9.95666C26.1317 9.97424 26.1175 9.9943 26.1065 10.0161C25.928 10.6373 25.5564 10.9238 24.9225 10.9251C24.4204 10.9251 23.9182 10.9251 23.4161 10.9251H22.8801V22.6794C22.8801 22.7901 22.8801 22.9007 22.873 23.0108C22.8289 23.557 22.4797 23.9223 21.936 23.9869C21.8173 23.998 21.6981 24.002 21.579 23.999H4.57631C4.46565 23.999 4.35435 23.999 4.24433 23.9907C3.67695 23.9364 3.31299 23.5647 3.27461 22.9929C3.26757 22.8912 3.26949 22.7888 3.26949 22.6865V10.9257C2.57419 10.9257 1.90447 10.9257 1.23475 10.9257C0.644342 10.9257 0.226646 10.6379 0.0641735 10.1242C-0.0982993 9.6106 0.0424251 9.25048 0.547114 8.88331L12.2675 0.357331C12.9213 -0.117933 13.227 -0.118573 13.8718 0.352214C17.7797 3.19357 21.6886 6.03407 25.5986 8.87372C25.8449 9.0541 26.0464 9.25687 26.1487 9.54792ZM6.53686 15.2805C6.53686 18.8626 9.47416 21.805 13.0658 21.8127C16.6479 21.821 19.5942 18.8875 19.6102 15.2959C19.6262 11.7176 16.6447 8.73108 13.0684 8.74323C9.47928 8.75474 6.53686 11.701 6.53686 15.2805Z" fill="black"/>
<path d="M8.18463 16.892V13.6247H11.4341V10.3682H14.704V13.6138H17.9663V16.8824H14.713V20.137H11.445V16.892H8.18463Z" fill="black"/>
</svg>
