<svg width="565" height="634" viewBox="0 0 565 634" fill="none" xmlns="http://www.w3.org/2000/svg">
<path fill-rule="evenodd" clip-rule="evenodd" d="M309.973 518.942C337.4 447.414 490 466.489 460.187 538.017C552.518 495.094 545.16 584.503 474.489 600.014C386.273 619.089 113.257 617.896 76.3 600.014C38.1499 569.008 89.4093 510.59 190.75 540.357C163.338 400.912 278.982 449.724 309.973 518.942Z" fill="#E8F2FF"/>
<path fill-rule="evenodd" clip-rule="evenodd" d="M130.85 163.124H225.689C226.378 121.594 244.382 101.525 278.295 101.525C308.735 101.525 326.74 114.68 326.74 143.744C326.74 210.177 241.613 216.403 241.613 322.991H333.623C333.623 242.01 440.195 228.151 440.195 123.674C440.195 46.1657 382.756 2.55469 290.027 2.55469C191.058 2.55469 131.538 61.3859 130.85 163.17V163.124ZM285.867 375.581C251.265 375.581 227.051 399.811 227.051 435.1C227.051 470.39 251.265 495.324 285.867 495.324C320.468 495.324 345.386 470.405 345.386 435.1C345.386 399.795 320.468 375.581 285.867 375.581Z" fill="#C5DCFA"/>
<path fill-rule="evenodd" clip-rule="evenodd" d="M435.484 577.742C441.067 563.822 435.575 517.442 421.64 519.416C402.948 522.062 414.757 570.094 435.484 577.742Z" fill="#C9DAF0"/>
<path fill-rule="evenodd" clip-rule="evenodd" d="M438.621 578.675C446.392 565.856 486.806 560.502 493.598 572.816C502.714 589.367 457.191 590.652 438.621 578.675Z" fill="#C9DAF0"/>
<path fill-rule="evenodd" clip-rule="evenodd" d="M460.723 535.967C471.14 530.078 483.041 496.761 472.379 493.304C459.606 489.174 451.621 520.884 460.723 535.967Z" fill="#C9DAF0"/>
<path fill-rule="evenodd" clip-rule="evenodd" d="M462.666 537.726C470.544 528.731 507.027 524.861 506.751 536.074C506.522 546.98 472.349 546.598 462.666 537.726Z" fill="#C9DAF0"/>
<path fill-rule="evenodd" clip-rule="evenodd" d="M444.294 555.379C453.778 546.384 459.178 508.708 448.883 506.001C434.917 502.345 430.65 541.795 444.294 555.379Z" fill="#C9DAF0"/>
<path fill-rule="evenodd" clip-rule="evenodd" d="M446.941 556.495C456.961 545.481 497.421 541 496.901 551.325C496.105 567.371 459.378 564.862 446.941 556.495Z" fill="#C9DAF0"/>
<path fill-rule="evenodd" clip-rule="evenodd" d="M547.625 457.372C549.812 451.422 544.275 433.387 538.737 435.605C531.257 438.634 538.707 454.45 547.625 457.372Z" fill="#C9DAF0"/>
<path fill-rule="evenodd" clip-rule="evenodd" d="M548.941 457.571C549.416 451.238 559.16 439.659 563.427 443.804C569.118 449.479 558.242 458.535 548.941 457.571Z" fill="#C9DAF0"/>
<path fill-rule="evenodd" clip-rule="evenodd" d="M538.279 476.279C542.318 470.084 538.815 448.394 532.084 450.03C523.151 452.202 529.01 470.589 538.279 476.279Z" fill="#C9DAF0"/>
<path fill-rule="evenodd" clip-rule="evenodd" d="M539.807 476.784C541.994 469.732 559.249 456.608 562.981 463.262C567.509 471.369 550.101 480.318 539.807 476.784Z" fill="#C9DAF0"/>
<path fill-rule="evenodd" clip-rule="evenodd" d="M525 491.423C530.736 485.794 528.656 459.698 521.191 460.83C511.34 462.344 516.465 483.193 525 491.423Z" fill="#C9DAF0"/>
<path fill-rule="evenodd" clip-rule="evenodd" d="M526.516 492.325C530.493 485.335 550.287 476.401 553.208 483.667C556.971 493.059 536.627 498.474 526.516 492.325Z" fill="#C9DAF0"/>
<path fill-rule="evenodd" clip-rule="evenodd" d="M505.069 506.047C513.192 500.769 519.31 473.251 510.545 470.864C499.471 467.744 496.962 494.299 505.069 506.047Z" fill="#C9DAF0"/>
<path fill-rule="evenodd" clip-rule="evenodd" d="M506.645 507.469C513.008 500.157 537.605 492.386 539.838 500.677C543.035 512.44 517.138 517.152 506.645 507.469Z" fill="#C9DAF0"/>
<path fill-rule="evenodd" clip-rule="evenodd" d="M482.92 519.156C492.481 513.955 502.194 487.033 493.536 481.572C482.584 474.719 474.874 505.297 482.92 519.156Z" fill="#C9DAF0"/>
<path fill-rule="evenodd" clip-rule="evenodd" d="M484.555 520.885C492.325 513.236 523.852 512.242 522.154 521.068C520.166 531.485 495.461 532.663 484.555 520.885Z" fill="#C9DAF0"/>
<path fill-rule="evenodd" clip-rule="evenodd" d="M433.985 607.831C433.985 614.164 442.765 613.384 441.358 606.775C429.87 505.633 541.72 534.575 552.886 439.674C553.361 435.819 549.919 435.498 549.46 439.353C538.706 530.613 421.931 501.733 433.985 607.831Z" fill="#C9DAF0"/>
<path fill-rule="evenodd" clip-rule="evenodd" d="M550.683 443.85C560.702 437.655 560.075 421.762 554.201 420.783C547.164 419.62 544.38 437.38 550.683 443.85Z" fill="#C9DAF0"/>
<path fill-rule="evenodd" clip-rule="evenodd" d="M388.215 589.215C388.108 590.668 390.005 590.347 392.468 588.48C394.931 586.614 397.057 583.891 397.133 582.469C398.25 567.509 415.153 521.282 442.58 472.332C461.165 439.246 484.447 405.21 510.62 379.588C512.945 377.309 514.169 374.999 513.343 374.28C512.516 373.561 509.962 374.938 507.637 377.217C479.139 405.103 454.312 441.219 434.794 475.988C406.709 526.039 389.363 573.704 388.215 589.215Z" fill="#B8CCE6"/>
<path fill-rule="evenodd" clip-rule="evenodd" d="M428.31 507.959C440.547 510.881 484.602 505.083 485.81 489.435C487.34 470.161 435.148 499.209 428.295 502.391C420.463 506.047 421.457 506.322 428.31 507.959Z" fill="#B8CCE6"/>
<path fill-rule="evenodd" clip-rule="evenodd" d="M442.414 478.299C452.693 480.762 489.834 475.882 490.797 462.711C492.052 446.497 448.15 470.941 442.398 473.618C435.806 476.677 436.647 476.907 442.414 478.299Z" fill="#B8CCE6"/>
<path fill-rule="evenodd" clip-rule="evenodd" d="M457.02 452.645C466.091 454.817 498.811 450.504 499.713 438.878C500.815 424.561 462.083 446.129 457.005 448.5C451.253 451.253 451.926 451.422 457.02 452.645Z" fill="#B8CCE6"/>
<path fill-rule="evenodd" clip-rule="evenodd" d="M473.312 430.97C480.364 432.668 505.833 429.303 506.537 420.262C507.394 409.111 477.259 425.907 473.297 427.743C468.769 429.838 469.351 430.022 473.312 430.97Z" fill="#B8CCE6"/>
<path fill-rule="evenodd" clip-rule="evenodd" d="M489.07 410.259C494.928 411.651 516.038 408.882 516.604 401.386C517.323 392.208 492.328 406.067 489.07 407.582C485.322 409.341 485.796 409.463 489.07 410.259Z" fill="#B8CCE6"/>
<path fill-rule="evenodd" clip-rule="evenodd" d="M501.965 391.887C506.202 392.897 521.499 390.893 521.927 385.463C522.447 378.763 504.336 388.859 501.965 389.96C499.242 391.214 499.579 391.322 501.965 391.887Z" fill="#B8CCE6"/>
<path fill-rule="evenodd" clip-rule="evenodd" d="M510.423 378.15C515.272 376.162 529.514 364.215 526.867 359.305C523.594 353.262 511.096 373.974 509.322 376.498C507.303 379.359 507.716 379.252 510.423 378.15Z" fill="#B8CCE6"/>
<path fill-rule="evenodd" clip-rule="evenodd" d="M416.929 501.06C408.806 491.316 393.815 448.684 406.925 440.47C423.093 430.343 421.457 490.949 421.793 498.597C422.191 507.316 421.487 506.536 416.929 501.06Z" fill="#B8CCE6"/>
<path fill-rule="evenodd" clip-rule="evenodd" d="M432.775 472.241C426.198 463.782 414.664 427.361 425.846 420.798C439.613 412.706 436.813 463.782 436.905 470.253C437.028 477.672 436.462 476.998 432.775 472.241Z" fill="#B8CCE6"/>
<path fill-rule="evenodd" clip-rule="evenodd" d="M448.915 445.364C443.776 437.303 436.204 404.063 446.391 399.061C458.935 392.942 453 438.159 452.648 443.926C452.235 450.519 451.791 449.877 448.915 445.364Z" fill="#B8CCE6"/>
<path fill-rule="evenodd" clip-rule="evenodd" d="M465.022 425.158C461.137 418.81 455.722 392.714 463.692 389.027C473.512 384.438 468.281 419.621 467.944 424.102C467.562 429.242 467.225 428.737 465.022 425.158Z" fill="#B8CCE6"/>
<path fill-rule="evenodd" clip-rule="evenodd" d="M482.078 404.293C478.759 399.107 473.864 377.631 480.426 374.449C488.518 370.518 484.709 399.643 484.48 403.36C484.22 407.612 483.945 407.199 482.078 404.293Z" fill="#B8CCE6"/>
<path fill-rule="evenodd" clip-rule="evenodd" d="M496.824 386.395C494.575 382.51 491.684 366.708 496.503 364.613C502.438 362.028 498.859 383.107 498.583 385.814C498.262 388.904 498.078 388.537 496.824 386.395Z" fill="#B8CCE6"/>
<path fill-rule="evenodd" clip-rule="evenodd" d="M414.314 543.768C427.164 545.909 472.549 536.869 472.87 520.823C473.268 501.029 420.861 534.36 413.978 538.093C406.054 542.361 407.11 542.575 414.314 543.768Z" fill="#B8CCE6"/>
<path fill-rule="evenodd" clip-rule="evenodd" d="M400.103 537.343C391.873 528.762 375.352 489.924 387.33 481.449C402.091 470.971 403.85 527.554 404.584 534.682C405.365 542.835 404.722 542.162 400.103 537.343Z" fill="#B8CCE6"/>
<path fill-rule="evenodd" clip-rule="evenodd" d="M401.082 571.914C412.463 575.616 454.529 573.168 456.609 558.147C459.194 539.684 408.072 563.929 401.418 566.499C393.77 569.512 394.657 569.834 401.082 571.914Z" fill="#B8CCE6"/>
<path fill-rule="evenodd" clip-rule="evenodd" d="M391.306 568.09C381.012 560.993 356.583 524.648 367.933 513.481C381.929 499.714 393.616 557.306 395.635 564.45C397.945 572.633 397.088 572.098 391.306 568.09Z" fill="#B8CCE6"/>
<path fill-rule="evenodd" clip-rule="evenodd" d="M185.536 545.834C179.739 532.067 184.527 485.549 198.492 487.308C217.216 489.664 206.156 537.864 185.536 545.834Z" fill="#B8CCE6"/>
<path fill-rule="evenodd" clip-rule="evenodd" d="M182.415 546.827C174.461 534.116 133.97 529.374 127.347 541.795C118.49 558.468 164.029 559.08 182.415 546.827Z" fill="#B8CCE6"/>
<path fill-rule="evenodd" clip-rule="evenodd" d="M159.669 504.456C149.16 498.72 136.724 465.587 147.431 461.977C160.066 457.648 168.541 489.236 159.669 504.456Z" fill="#B8CCE6"/>
<path fill-rule="evenodd" clip-rule="evenodd" d="M157.756 506.23C149.74 497.358 113.242 493.992 113.64 505.266C114.038 516.157 148.211 515.255 157.756 506.23Z" fill="#B8CCE6"/>
<path fill-rule="evenodd" clip-rule="evenodd" d="M176.371 523.623C166.765 514.766 160.784 477.167 171.079 474.306C184.953 470.451 189.817 509.825 176.371 523.623Z" fill="#B8CCE6"/>
<path fill-rule="evenodd" clip-rule="evenodd" d="M173.757 524.769C163.569 513.909 123.079 510.039 123.736 520.364C124.761 536.38 161.443 533.32 173.757 524.769Z" fill="#B8CCE6"/>
<path fill-rule="evenodd" clip-rule="evenodd" d="M71.6503 427.238C69.3711 421.318 74.6331 403.206 80.2011 405.333C87.6659 408.193 80.4612 424.132 71.6503 427.238Z" fill="#B8CCE6"/>
<path fill-rule="evenodd" clip-rule="evenodd" d="M70.2748 427.39C69.6936 421.073 59.7813 409.646 55.5747 413.914C49.9761 419.619 60.9897 428.507 70.2748 427.39Z" fill="#B8CCE6"/>
<path fill-rule="evenodd" clip-rule="evenodd" d="M81.2127 445.946C77.0979 439.827 80.2643 418.075 87.0254 419.605C96.0658 421.64 90.406 440.118 81.2127 445.946Z" fill="#B8CCE6"/>
<path fill-rule="evenodd" clip-rule="evenodd" d="M79.6982 446.466C77.4037 439.445 59.9501 426.58 56.3095 433.311C51.8734 441.479 69.4494 450.137 79.6982 446.466Z" fill="#B8CCE6"/>
<path fill-rule="evenodd" clip-rule="evenodd" d="M94.7202 460.891C88.8921 455.354 90.5901 429.211 98.0702 430.298C107.937 431.598 103.133 452.539 94.7202 460.891Z" fill="#B8CCE6"/>
<path fill-rule="evenodd" clip-rule="evenodd" d="M93.3096 461.809C89.2101 454.879 69.2785 446.237 66.4792 453.549C62.7162 463.002 83.1985 468.081 93.3096 461.809Z" fill="#B8CCE6"/>
<path fill-rule="evenodd" clip-rule="evenodd" d="M114.879 475.194C106.665 470.039 100.133 442.627 108.868 440.011C119.897 436.829 122.803 463.323 114.879 475.194Z" fill="#B8CCE6"/>
<path fill-rule="evenodd" clip-rule="evenodd" d="M113.318 476.646C106.832 469.441 82.1282 462.038 80.0325 470.374C77.0343 482.199 102.978 486.436 113.318 476.646Z" fill="#B8CCE6"/>
<path fill-rule="evenodd" clip-rule="evenodd" d="M137.213 487.966C127.576 482.918 117.45 456.103 126.031 450.55C136.892 443.605 145.06 474 137.213 487.966Z" fill="#B8CCE6"/>
<path fill-rule="evenodd" clip-rule="evenodd" d="M135.607 489.74C127.714 482.23 96.1871 481.694 98.0074 490.475C100.164 500.861 124.884 501.733 135.607 489.74Z" fill="#B8CCE6"/>
<path fill-rule="evenodd" clip-rule="evenodd" d="M187.494 575.906C187.494 582.224 178.806 581.582 180.106 574.958C190.049 473.648 78.6581 504.287 66.0536 409.57C65.5335 405.715 68.9599 405.333 69.48 409.187C81.6103 500.279 197.927 469.61 187.494 575.906Z" fill="#B8CCE6"/>
<path fill-rule="evenodd" clip-rule="evenodd" d="M68.3165 413.715C58.1901 407.673 58.5725 391.764 64.4312 390.77C71.483 389.424 74.527 407.137 68.3165 413.715Z" fill="#B8CCE6"/>
<path fill-rule="evenodd" clip-rule="evenodd" d="M187.875 599.311C189.221 599.693 189.298 597.781 188.059 595.181C186.82 592.58 184.709 590.041 183.378 589.643C169.611 585.605 129.84 560.579 89.8845 525.244C62.7175 501.305 35.7188 472.791 17.0874 443.284C15.4353 440.653 13.4621 439.047 12.6972 439.689C11.9324 440.332 12.6207 442.963 14.2269 445.579C34.5104 477.702 63.1764 508.096 91.6895 533.244C132.715 569.421 173.649 595.119 187.875 599.311Z" fill="#C9DAF0"/>
<path fill-rule="evenodd" clip-rule="evenodd" d="M120.188 545.665C125.373 534.866 128.784 492.647 114.451 488.379C96.7836 483.132 113.411 537.558 115.002 544.564C116.838 552.595 117.281 551.723 120.188 545.665Z" fill="#C9DAF0"/>
<path fill-rule="evenodd" clip-rule="evenodd" d="M95.3749 526.59C99.7345 517.504 102.61 481.969 90.5411 478.39C75.6727 473.969 89.6692 519.768 91.0153 525.657C92.545 532.418 92.9274 531.699 95.3749 526.59Z" fill="#C9DAF0"/>
<path fill-rule="evenodd" clip-rule="evenodd" d="M74.3894 507.851C78.2441 499.836 80.7681 468.462 70.1216 465.296C57.0123 461.411 69.3567 501.825 70.5499 507.025C71.896 512.991 72.2325 512.349 74.3894 507.851Z" fill="#C9DAF0"/>
<path fill-rule="evenodd" clip-rule="evenodd" d="M57.4571 488.333C60.5165 482.092 62.4286 457.739 54.1377 455.231C43.9348 452.171 53.5412 483.637 54.459 487.69C55.5144 492.325 55.7898 491.836 57.4571 488.333Z" fill="#C9DAF0"/>
<path fill-rule="evenodd" clip-rule="evenodd" d="M41.3028 469.487C43.7809 464.317 45.4176 444.079 38.5494 442.045C30.0903 439.536 38.0446 465.602 38.8095 468.952C39.7731 472.807 39.9261 472.394 41.3028 469.487Z" fill="#C9DAF0"/>
<path fill-rule="evenodd" clip-rule="evenodd" d="M26.7721 453.808C28.5771 450.045 29.755 435.452 24.7835 433.922C18.6648 432.102 24.4317 450.993 24.9824 453.426C25.6096 456.21 25.7625 455.842 26.7721 453.808Z" fill="#C9DAF0"/>
<path fill-rule="evenodd" clip-rule="evenodd" d="M15.6652 443.162C14.7933 438.251 6.48719 422.572 1.40867 424.071C-4.87828 425.922 11.9175 441.708 13.9214 443.85C16.2159 446.313 16.1547 445.915 15.6652 443.162Z" fill="#C9DAF0"/>
<path fill-rule="evenodd" clip-rule="evenodd" d="M111.485 554.889C100.777 560.518 58.0534 565.948 53.0208 552.089C46.9021 535.003 102.919 548.632 110.108 549.856C118.368 551.263 117.496 551.738 111.485 554.889Z" fill="#C9DAF0"/>
<path fill-rule="evenodd" clip-rule="evenodd" d="M87.8042 534.361C78.6262 538.797 42.3576 542.254 38.4723 530.522C33.6844 516.051 80.7371 528.9 86.7793 530.109C93.7088 531.485 92.9745 531.868 87.8042 534.361Z" fill="#C9DAF0"/>
<path fill-rule="evenodd" clip-rule="evenodd" d="M65.9766 513.97C57.4563 517.152 24.9049 517.534 22.3503 507.056C19.1839 494.146 60.0873 508.724 65.3953 510.207C71.4681 511.875 70.7645 512.15 65.9766 513.97Z" fill="#C9DAF0"/>
<path fill-rule="evenodd" clip-rule="evenodd" d="M50.4805 494.85C43.7652 497.205 18.3573 497.037 16.537 488.869C14.2578 478.803 45.9526 490.704 50.0675 491.928C54.7024 493.335 54.1517 493.534 50.4805 494.85Z" fill="#C9DAF0"/>
<path fill-rule="evenodd" clip-rule="evenodd" d="M34.357 474.81C28.8502 476.86 7.86305 477.136 6.211 470.374C4.16124 462.053 30.5481 471.43 33.9746 472.378C37.8905 473.48 37.4469 473.663 34.357 474.81Z" fill="#C9DAF0"/>
<path fill-rule="evenodd" clip-rule="evenodd" d="M20.6377 457.495C16.5535 458.81 1.25676 458.336 0.262471 453.426C-0.945971 447.307 17.9761 454.956 20.4389 455.736C23.2535 456.654 22.9475 456.761 20.6377 457.495Z" fill="#C9DAF0"/>
<path fill-rule="evenodd" clip-rule="evenodd" d="M150.766 565.888C155.355 554.339 155.998 510.238 141.099 506.72C122.743 502.391 143.302 557.887 145.397 565.062C147.799 573.291 148.197 572.358 150.766 565.888Z" fill="#C9DAF0"/>
<path fill-rule="evenodd" clip-rule="evenodd" d="M141.925 577.834C132.288 583.785 92.8224 591.418 87.285 578.553C80.478 562.69 133.558 572.434 140.334 573.138C148.105 573.995 147.34 574.499 141.925 577.834Z" fill="#C9DAF0"/>
<path fill-rule="evenodd" clip-rule="evenodd" d="M174.385 583.845C180.106 573.979 186.255 534.299 172.733 529.358C156.044 523.24 168.404 575.738 169.459 582.469C170.637 590.178 171.127 589.383 174.385 583.845Z" fill="#C9DAF0"/>
<path fill-rule="evenodd" clip-rule="evenodd" d="M168.815 592.182C160.141 600.366 121.395 615.862 113.257 603.043C103.238 587.242 159.239 587.884 166.291 587.425C174.383 586.905 173.679 587.593 168.815 592.182Z" fill="#C9DAF0"/>
<path d="M285.529 633.285C410.958 633.285 512.639 620.245 512.639 604.16C512.639 588.075 410.958 575.035 285.529 575.035C160.099 575.035 58.418 588.075 58.418 604.16C58.418 620.245 160.099 633.285 285.529 633.285Z" fill="#C9DAF0"/>
<path fill-rule="evenodd" clip-rule="evenodd" d="M364.262 161.167C363.237 167.148 355.88 175.469 355.36 180.869C353.692 198.613 368.285 215.118 392.148 213.298C425.801 210.728 439.354 210.927 443.102 190.567C446.161 174.108 437.84 170.421 437.427 159.3C437.197 152.891 438.39 148.302 434.505 139.889C423.338 115.628 388.339 115.154 379.268 126.214C376.882 129.12 370.09 128.967 365.746 137.9C362.106 145.503 365.807 152.019 364.262 161.167Z" fill="#002C68"/>
<path fill-rule="evenodd" clip-rule="evenodd" d="M396.432 324.811C387.605 333.653 367.934 336.131 357.838 334.28C360.178 307.633 363.482 296.497 396.432 324.811Z" fill="white"/>
<path fill-rule="evenodd" clip-rule="evenodd" d="M389.67 598.515C379.804 604.909 354.35 608.198 342.051 605.827C335.168 604.481 334.709 594.538 343.749 590.714C358.81 584.291 374.455 579.332 390.466 575.906C391.919 583.891 394.045 595.67 389.67 598.515Z" fill="#45197C"/>
<path fill-rule="evenodd" clip-rule="evenodd" d="M373.486 580.053C347.971 587.089 389.854 595.976 391.016 580.726C389.487 505.986 394.84 509.351 391.873 454.42C390.603 431.032 359.398 432.5 360.27 457.862C362.014 508.051 378.182 553.115 373.486 580.053Z" fill="#BA8B80"/>
<path fill-rule="evenodd" clip-rule="evenodd" d="M436.875 609.024C430.191 615.143 402.213 620.114 389.807 618.309C382.878 617.284 382.48 607.601 391.337 603.318C405.903 596.147 421.134 590.414 436.814 586.201C438.619 594.11 440.73 605.506 436.875 609.024Z" fill="#45197C"/>
<path fill-rule="evenodd" clip-rule="evenodd" d="M437.488 589.093C434.704 536.518 438.62 505.741 436.111 464.868C434.673 441.434 401.495 442.443 403.544 467.759C407.093 511.676 420.019 563.624 420.371 590.959C396.385 599.28 433.725 605.338 437.488 589.093Z" fill="#BA8B80"/>
<path fill-rule="evenodd" clip-rule="evenodd" d="M450.826 473.312C446.665 422.756 455.843 356.949 430.19 317.698C406.19 307.465 376.086 310.631 362.533 310.524C344.972 359.795 352.972 430.022 349.592 475.514C363.42 478.115 434.244 490.215 450.826 473.312Z" fill="white"/>
<mask id="mask0_1808_10790" style="mask-type:luminance" maskUnits="userSpaceOnUse" x="349" y="310" width="102" height="173">
<path d="M450.826 473.312C446.665 422.756 455.843 356.949 430.19 317.698C406.19 307.465 376.086 310.631 362.533 310.524C344.972 359.795 352.972 430.022 349.592 475.514C363.42 478.115 434.244 490.215 450.826 473.312Z" fill="white"/>
</mask>
<g mask="url(#mask0_1808_10790)">
<g opacity="0.5">
<path opacity="0.4" fill-rule="evenodd" clip-rule="evenodd" d="M362.439 475.53C363.074 475.53 363.695 475.719 364.224 476.072C364.752 476.425 365.164 476.926 365.407 477.513C365.65 478.1 365.713 478.746 365.589 479.369C365.466 479.992 365.16 480.565 364.71 481.014C364.261 481.463 363.689 481.769 363.066 481.893C362.442 482.017 361.797 481.954 361.21 481.71C360.623 481.467 360.121 481.056 359.768 480.527C359.415 479.999 359.227 479.378 359.227 478.743C359.227 477.891 359.565 477.074 360.167 476.471C360.77 475.869 361.587 475.53 362.439 475.53Z" fill="#45197C"/>
<path opacity="0.4" fill-rule="evenodd" clip-rule="evenodd" d="M381.302 475.53C381.938 475.53 382.559 475.719 383.087 476.072C383.615 476.425 384.027 476.926 384.27 477.513C384.513 478.1 384.577 478.746 384.453 479.369C384.329 479.992 384.023 480.565 383.574 481.014C383.124 481.463 382.552 481.769 381.929 481.893C381.306 482.017 380.66 481.954 380.073 481.71C379.486 481.467 378.984 481.056 378.631 480.527C378.278 479.999 378.09 479.378 378.09 478.743C378.09 477.891 378.428 477.074 379.031 476.471C379.633 475.869 380.45 475.53 381.302 475.53Z" fill="#45197C"/>
<path opacity="0.4" fill-rule="evenodd" clip-rule="evenodd" d="M400.162 475.53C400.797 475.53 401.418 475.719 401.946 476.072C402.474 476.425 402.886 476.926 403.129 477.513C403.372 478.1 403.436 478.746 403.312 479.369C403.188 479.992 402.882 480.565 402.433 481.014C401.984 481.463 401.411 481.769 400.788 481.893C400.165 482.017 399.519 481.954 398.932 481.71C398.345 481.467 397.844 481.056 397.491 480.527C397.138 479.999 396.949 479.378 396.949 478.743C396.953 477.892 397.293 477.077 397.895 476.476C398.496 475.874 399.311 475.534 400.162 475.53Z" fill="#45197C"/>
<path opacity="0.4" fill-rule="evenodd" clip-rule="evenodd" d="M419.037 475.53C419.672 475.53 420.293 475.719 420.821 476.072C421.349 476.425 421.761 476.926 422.004 477.513C422.247 478.1 422.311 478.746 422.187 479.369C422.063 479.992 421.757 480.565 421.308 481.014C420.859 481.463 420.286 481.769 419.663 481.893C419.04 482.017 418.394 481.954 417.807 481.71C417.22 481.467 416.719 481.056 416.366 480.527C416.013 479.999 415.824 479.378 415.824 478.743C415.824 477.891 416.163 477.074 416.765 476.471C417.368 475.869 418.185 475.53 419.037 475.53Z" fill="#45197C"/>
<path opacity="0.4" fill-rule="evenodd" clip-rule="evenodd" d="M437.9 475.53C438.535 475.53 439.156 475.719 439.684 476.072C440.213 476.425 440.624 476.926 440.868 477.513C441.111 478.1 441.174 478.746 441.05 479.369C440.926 479.992 440.62 480.565 440.171 481.014C439.722 481.463 439.15 481.769 438.526 481.893C437.903 482.017 437.257 481.954 436.671 481.71C436.084 481.467 435.582 481.056 435.229 480.527C434.876 479.999 434.688 479.378 434.688 478.743C434.688 478.321 434.771 477.903 434.932 477.513C435.093 477.124 435.33 476.769 435.628 476.471C435.927 476.173 436.281 475.936 436.671 475.775C437.06 475.613 437.478 475.53 437.9 475.53Z" fill="#45197C"/>
<path opacity="0.4" fill-rule="evenodd" clip-rule="evenodd" d="M353.001 461.809C353.64 461.806 354.266 461.992 354.799 462.345C355.332 462.698 355.748 463.201 355.994 463.79C356.241 464.38 356.307 465.029 356.184 465.656C356.061 466.284 355.755 466.86 355.304 467.313C354.854 467.766 354.279 468.075 353.652 468.201C353.026 468.326 352.376 468.263 351.785 468.02C351.194 467.776 350.689 467.362 350.334 466.831C349.979 466.3 349.789 465.675 349.789 465.036C349.787 464.613 349.869 464.194 350.029 463.802C350.19 463.411 350.426 463.055 350.725 462.755C351.023 462.455 351.378 462.217 351.769 462.055C352.159 461.892 352.578 461.809 353.001 461.809Z" fill="#45197C"/>
<path opacity="0.4" fill-rule="evenodd" clip-rule="evenodd" d="M371.863 461.809C372.502 461.806 373.129 461.993 373.662 462.346C374.195 462.7 374.611 463.204 374.857 463.794C375.103 464.384 375.168 465.035 375.044 465.662C374.92 466.29 374.613 466.866 374.16 467.318C373.708 467.771 373.131 468.079 372.504 468.203C371.876 468.327 371.226 468.261 370.636 468.015C370.045 467.769 369.541 467.353 369.188 466.82C368.835 466.287 368.647 465.661 368.65 465.021C368.65 464.169 368.989 463.352 369.591 462.75C370.194 462.147 371.011 461.809 371.863 461.809Z" fill="#45197C"/>
<path opacity="0.4" fill-rule="evenodd" clip-rule="evenodd" d="M390.74 461.809C391.379 461.806 392.004 461.992 392.537 462.345C393.07 462.698 393.486 463.201 393.733 463.79C393.979 464.38 394.045 465.029 393.922 465.656C393.8 466.284 393.493 466.86 393.043 467.313C392.592 467.766 392.017 468.075 391.39 468.201C390.764 468.326 390.114 468.263 389.523 468.02C388.933 467.776 388.428 467.362 388.072 466.831C387.717 466.3 387.527 465.675 387.527 465.036C387.525 464.613 387.607 464.194 387.768 463.802C387.928 463.411 388.164 463.055 388.463 462.755C388.761 462.455 389.116 462.217 389.507 462.055C389.898 461.892 390.317 461.809 390.74 461.809Z" fill="#45197C"/>
<path opacity="0.4" fill-rule="evenodd" clip-rule="evenodd" d="M409.599 461.809C410.238 461.806 410.864 461.992 411.396 462.345C411.929 462.698 412.345 463.201 412.592 463.79C412.838 464.38 412.905 465.029 412.782 465.656C412.659 466.284 412.353 466.86 411.902 467.313C411.451 467.766 410.876 468.075 410.25 468.201C409.623 468.326 408.973 468.263 408.383 468.02C407.792 467.776 407.287 467.362 406.932 466.831C406.576 466.3 406.387 465.675 406.387 465.036C406.385 464.613 406.466 464.194 406.627 463.802C406.787 463.411 407.024 463.055 407.322 462.755C407.621 462.455 407.975 462.217 408.366 462.055C408.757 461.892 409.176 461.809 409.599 461.809Z" fill="#45197C"/>
<path opacity="0.4" fill-rule="evenodd" clip-rule="evenodd" d="M428.462 461.809C429.102 461.806 429.728 461.993 430.261 462.346C430.794 462.7 431.21 463.204 431.457 463.794C431.703 464.384 431.768 465.035 431.644 465.662C431.52 466.29 431.212 466.866 430.76 467.318C430.308 467.771 429.731 468.079 429.104 468.203C428.476 468.327 427.826 468.261 427.235 468.015C426.645 467.769 426.141 467.353 425.788 466.82C425.434 466.287 425.247 465.661 425.25 465.021C425.25 464.169 425.588 463.352 426.191 462.75C426.793 462.147 427.61 461.809 428.462 461.809Z" fill="#45197C"/>
<path opacity="0.4" fill-rule="evenodd" clip-rule="evenodd" d="M447.337 461.809C447.975 461.809 448.599 461.998 449.13 462.353C449.661 462.707 450.075 463.211 450.319 463.801C450.563 464.391 450.627 465.04 450.503 465.666C450.378 466.292 450.071 466.867 449.619 467.318C449.168 467.77 448.593 468.077 447.967 468.202C447.341 468.326 446.692 468.262 446.102 468.018C445.512 467.774 445.008 467.36 444.653 466.829C444.299 466.299 444.109 465.675 444.109 465.036C444.107 464.612 444.19 464.191 444.351 463.799C444.512 463.406 444.75 463.05 445.05 462.749C445.35 462.449 445.707 462.212 446.1 462.05C446.492 461.889 446.913 461.807 447.337 461.809Z" fill="#45197C"/>
<path opacity="0.4" fill-rule="evenodd" clip-rule="evenodd" d="M362.441 447.659C363.081 447.656 363.707 447.843 364.24 448.197C364.773 448.55 365.189 449.054 365.435 449.645C365.681 450.235 365.747 450.885 365.622 451.513C365.498 452.14 365.191 452.717 364.738 453.169C364.286 453.621 363.71 453.929 363.082 454.053C362.455 454.177 361.804 454.112 361.214 453.866C360.624 453.62 360.12 453.204 359.766 452.67C359.413 452.137 359.226 451.511 359.229 450.872C359.229 450.45 359.312 450.032 359.473 449.642C359.635 449.252 359.871 448.898 360.169 448.6C360.468 448.302 360.822 448.065 361.212 447.904C361.601 447.742 362.019 447.659 362.441 447.659Z" fill="#45197C"/>
<path opacity="0.4" fill-rule="evenodd" clip-rule="evenodd" d="M381.302 447.659C381.942 447.656 382.568 447.843 383.101 448.197C383.634 448.55 384.05 449.054 384.296 449.645C384.543 450.235 384.608 450.885 384.484 451.513C384.36 452.14 384.052 452.717 383.6 453.169C383.147 453.621 382.571 453.929 381.943 454.053C381.316 454.177 380.666 454.112 380.075 453.866C379.485 453.62 378.981 453.204 378.627 452.67C378.274 452.137 378.087 451.511 378.09 450.872C378.09 450.45 378.173 450.032 378.334 449.642C378.496 449.252 378.732 448.898 379.031 448.6C379.329 448.302 379.683 448.065 380.073 447.904C380.463 447.742 380.88 447.659 381.302 447.659Z" fill="#45197C"/>
<path opacity="0.4" fill-rule="evenodd" clip-rule="evenodd" d="M400.162 447.659C400.801 447.656 401.427 447.843 401.96 448.197C402.494 448.55 402.91 449.054 403.156 449.645C403.402 450.235 403.467 450.885 403.343 451.513C403.219 452.14 402.911 452.717 402.459 453.169C402.007 453.621 401.43 453.929 400.803 454.053C400.175 454.177 399.525 454.112 398.935 453.866C398.344 453.62 397.84 453.204 397.487 452.67C397.133 452.137 396.946 451.511 396.949 450.872C396.953 450.021 397.293 449.206 397.895 448.605C398.496 448.003 399.311 447.663 400.162 447.659Z" fill="#45197C"/>
<path opacity="0.4" fill-rule="evenodd" clip-rule="evenodd" d="M419.037 447.659C419.676 447.656 420.302 447.843 420.835 448.197C421.369 448.55 421.785 449.054 422.031 449.645C422.277 450.235 422.342 450.885 422.218 451.513C422.094 452.14 421.786 452.717 421.334 453.169C420.882 453.621 420.305 453.929 419.678 454.053C419.05 454.177 418.4 454.112 417.81 453.866C417.219 453.62 416.715 453.204 416.362 452.67C416.008 452.137 415.821 451.511 415.824 450.872C415.824 450.45 415.907 450.032 416.069 449.642C416.23 449.252 416.467 448.898 416.765 448.6C417.063 448.302 417.418 448.065 417.807 447.904C418.197 447.742 418.615 447.659 419.037 447.659Z" fill="#45197C"/>
<path opacity="0.4" fill-rule="evenodd" clip-rule="evenodd" d="M437.9 447.659C438.539 447.656 439.166 447.843 439.699 448.197C440.232 448.55 440.648 449.054 440.894 449.645C441.14 450.235 441.205 450.885 441.081 451.513C440.957 452.14 440.65 452.717 440.197 453.169C439.745 453.621 439.169 453.929 438.541 454.053C437.914 454.177 437.263 454.112 436.673 453.866C436.082 453.62 435.579 453.204 435.225 452.67C434.872 452.137 434.685 451.511 434.688 450.872C434.688 450.45 434.771 450.032 434.932 449.642C435.093 449.252 435.33 448.898 435.628 448.6C435.927 448.302 436.281 448.065 436.671 447.904C437.06 447.742 437.478 447.659 437.9 447.659Z" fill="#45197C"/>
<path opacity="0.4" fill-rule="evenodd" clip-rule="evenodd" d="M353.001 433.953C353.637 433.953 354.258 434.142 354.786 434.494C355.314 434.847 355.726 435.349 355.969 435.936C356.212 436.523 356.276 437.169 356.152 437.792C356.028 438.415 355.722 438.988 355.273 439.437C354.824 439.886 354.251 440.192 353.628 440.316C353.005 440.44 352.359 440.376 351.772 440.133C351.185 439.89 350.683 439.478 350.33 438.95C349.977 438.422 349.789 437.801 349.789 437.165C349.789 436.313 350.128 435.496 350.73 434.894C351.332 434.292 352.149 433.953 353.001 433.953Z" fill="#45197C"/>
<path opacity="0.4" fill-rule="evenodd" clip-rule="evenodd" d="M371.863 433.953C372.498 433.953 373.119 434.142 373.647 434.494C374.176 434.847 374.587 435.349 374.83 435.936C375.074 436.523 375.137 437.169 375.013 437.792C374.889 438.415 374.583 438.988 374.134 439.437C373.685 439.886 373.113 440.192 372.489 440.316C371.866 440.44 371.22 440.376 370.633 440.133C370.046 439.89 369.545 439.478 369.192 438.95C368.839 438.422 368.65 437.801 368.65 437.165C368.65 436.313 368.989 435.496 369.591 434.894C370.194 434.292 371.011 433.953 371.863 433.953Z" fill="#45197C"/>
<path opacity="0.4" fill-rule="evenodd" clip-rule="evenodd" d="M390.74 433.953C391.375 433.953 391.996 434.142 392.524 434.494C393.053 434.847 393.464 435.349 393.707 435.936C393.951 436.523 394.014 437.169 393.89 437.792C393.766 438.415 393.46 438.988 393.011 439.437C392.562 439.886 391.989 440.192 391.366 440.316C390.743 440.44 390.097 440.376 389.51 440.133C388.923 439.89 388.422 439.478 388.069 438.95C387.716 438.422 387.527 437.801 387.527 437.165C387.527 436.313 387.866 435.496 388.468 434.894C389.071 434.292 389.888 433.953 390.74 433.953Z" fill="#45197C"/>
<path opacity="0.4" fill-rule="evenodd" clip-rule="evenodd" d="M409.599 433.953C410.234 433.953 410.855 434.142 411.384 434.494C411.912 434.847 412.324 435.349 412.567 435.936C412.81 436.523 412.874 437.169 412.75 437.792C412.626 438.415 412.32 438.988 411.87 439.437C411.421 439.886 410.849 440.192 410.226 440.316C409.603 440.44 408.957 440.376 408.37 440.133C407.783 439.89 407.281 439.478 406.928 438.95C406.575 438.422 406.387 437.801 406.387 437.165C406.387 436.744 406.47 436.326 406.631 435.936C406.793 435.546 407.029 435.192 407.328 434.894C407.626 434.596 407.98 434.359 408.37 434.198C408.759 434.036 409.177 433.953 409.599 433.953Z" fill="#45197C"/>
<path opacity="0.4" fill-rule="evenodd" clip-rule="evenodd" d="M428.462 433.953C429.098 433.953 429.719 434.142 430.247 434.494C430.775 434.847 431.187 435.349 431.43 435.936C431.673 436.523 431.737 437.169 431.613 437.792C431.489 438.415 431.183 438.988 430.734 439.437C430.285 439.886 429.712 440.192 429.089 440.316C428.466 440.44 427.82 440.376 427.233 440.133C426.646 439.89 426.144 439.478 425.791 438.95C425.438 438.422 425.25 437.801 425.25 437.165C425.25 436.313 425.588 435.496 426.191 434.894C426.793 434.292 427.61 433.953 428.462 433.953Z" fill="#45197C"/>
<path opacity="0.4" fill-rule="evenodd" clip-rule="evenodd" d="M447.337 433.953C447.972 433.956 448.591 434.147 449.118 434.502C449.644 434.857 450.053 435.359 450.294 435.947C450.535 436.534 450.596 437.179 450.47 437.801C450.345 438.424 450.038 438.995 449.588 439.442C449.138 439.89 448.566 440.194 447.943 440.317C447.32 440.44 446.675 440.375 446.089 440.132C445.503 439.888 445.002 439.476 444.65 438.949C444.297 438.421 444.109 437.8 444.109 437.165C444.109 436.742 444.193 436.323 444.355 435.933C444.518 435.542 444.756 435.187 445.056 434.889C445.356 434.59 445.712 434.354 446.103 434.193C446.495 434.033 446.914 433.951 447.337 433.953Z" fill="#45197C"/>
<path opacity="0.4" fill-rule="evenodd" clip-rule="evenodd" d="M362.441 419.804C363.076 419.804 363.697 419.992 364.226 420.345C364.754 420.698 365.165 421.2 365.409 421.787C365.652 422.374 365.715 423.02 365.591 423.643C365.467 424.266 365.162 424.838 364.712 425.287C364.263 425.737 363.691 426.043 363.068 426.167C362.444 426.291 361.799 426.227 361.212 425.984C360.625 425.741 360.123 425.329 359.77 424.801C359.417 424.272 359.229 423.651 359.229 423.016C359.229 422.164 359.567 421.347 360.169 420.745C360.772 420.142 361.589 419.804 362.441 419.804Z" fill="#45197C"/>
<path opacity="0.4" fill-rule="evenodd" clip-rule="evenodd" d="M381.302 419.804C381.938 419.804 382.559 419.992 383.087 420.345C383.615 420.698 384.027 421.2 384.27 421.787C384.513 422.374 384.577 423.02 384.453 423.643C384.329 424.266 384.023 424.838 383.574 425.287C383.124 425.737 382.552 426.043 381.929 426.167C381.306 426.291 380.66 426.227 380.073 425.984C379.486 425.741 378.984 425.329 378.631 424.801C378.278 424.272 378.09 423.651 378.09 423.016C378.09 422.164 378.428 421.347 379.031 420.745C379.633 420.142 380.45 419.804 381.302 419.804Z" fill="#45197C"/>
<path opacity="0.4" fill-rule="evenodd" clip-rule="evenodd" d="M400.162 419.804C400.797 419.804 401.418 419.992 401.946 420.345C402.474 420.698 402.886 421.2 403.129 421.787C403.372 422.374 403.436 423.02 403.312 423.643C403.188 424.266 402.882 424.838 402.433 425.287C401.984 425.737 401.411 426.043 400.788 426.167C400.165 426.291 399.519 426.227 398.932 425.984C398.345 425.741 397.844 425.329 397.491 424.801C397.138 424.272 396.949 423.651 396.949 423.016C396.953 422.165 397.293 421.351 397.895 420.749C398.496 420.147 399.311 419.808 400.162 419.804Z" fill="#45197C"/>
<path opacity="0.4" fill-rule="evenodd" clip-rule="evenodd" d="M419.037 419.804C419.672 419.804 420.293 419.992 420.821 420.345C421.349 420.698 421.761 421.2 422.004 421.787C422.247 422.374 422.311 423.02 422.187 423.643C422.063 424.266 421.757 424.838 421.308 425.287C420.859 425.737 420.286 426.043 419.663 426.167C419.04 426.291 418.394 426.227 417.807 425.984C417.22 425.741 416.719 425.329 416.366 424.801C416.013 424.272 415.824 423.651 415.824 423.016C415.824 422.164 416.163 421.347 416.765 420.745C417.368 420.142 418.185 419.804 419.037 419.804Z" fill="#45197C"/>
<path opacity="0.4" fill-rule="evenodd" clip-rule="evenodd" d="M437.9 419.804C438.535 419.804 439.156 419.992 439.684 420.345C440.213 420.698 440.624 421.2 440.868 421.787C441.111 422.374 441.174 423.02 441.05 423.643C440.926 424.266 440.62 424.838 440.171 425.287C439.722 425.737 439.15 426.043 438.526 426.167C437.903 426.291 437.257 426.227 436.671 425.984C436.084 425.741 435.582 425.329 435.229 424.801C434.876 424.272 434.688 423.651 434.688 423.016C434.688 422.594 434.771 422.176 434.932 421.787C435.093 421.397 435.33 421.043 435.628 420.745C435.927 420.446 436.281 420.21 436.671 420.048C437.06 419.887 437.478 419.804 437.9 419.804Z" fill="#45197C"/>
<path opacity="0.4" fill-rule="evenodd" clip-rule="evenodd" d="M353.001 406.083C353.637 406.083 354.258 406.271 354.786 406.624C355.314 406.977 355.726 407.479 355.969 408.066C356.212 408.653 356.276 409.299 356.152 409.922C356.028 410.545 355.722 411.118 355.273 411.567C354.824 412.016 354.251 412.322 353.628 412.446C353.005 412.57 352.359 412.506 351.772 412.263C351.185 412.02 350.683 411.608 350.33 411.08C349.977 410.552 349.789 409.931 349.789 409.295C349.789 408.443 350.128 407.626 350.73 407.024C351.332 406.421 352.149 406.083 353.001 406.083Z" fill="#45197C"/>
<path opacity="0.4" fill-rule="evenodd" clip-rule="evenodd" d="M371.863 406.083C372.498 406.083 373.119 406.271 373.647 406.624C374.176 406.977 374.587 407.479 374.83 408.066C375.074 408.653 375.137 409.299 375.013 409.922C374.889 410.545 374.583 411.118 374.134 411.567C373.685 412.016 373.113 412.322 372.489 412.446C371.866 412.57 371.22 412.506 370.633 412.263C370.046 412.02 369.545 411.608 369.192 411.08C368.839 410.552 368.65 409.931 368.65 409.295C368.65 408.443 368.989 407.626 369.591 407.024C370.194 406.421 371.011 406.083 371.863 406.083Z" fill="#45197C"/>
<path opacity="0.4" fill-rule="evenodd" clip-rule="evenodd" d="M390.74 406.083C391.375 406.083 391.996 406.271 392.524 406.624C393.053 406.977 393.464 407.479 393.707 408.066C393.951 408.653 394.014 409.299 393.89 409.922C393.766 410.545 393.46 411.118 393.011 411.567C392.562 412.016 391.989 412.322 391.366 412.446C390.743 412.57 390.097 412.506 389.51 412.263C388.923 412.02 388.422 411.608 388.069 411.08C387.716 410.552 387.527 409.931 387.527 409.295C387.527 408.443 387.866 407.626 388.468 407.024C389.071 406.421 389.888 406.083 390.74 406.083Z" fill="#45197C"/>
<path opacity="0.4" fill-rule="evenodd" clip-rule="evenodd" d="M409.599 406.083C410.234 406.083 410.855 406.271 411.384 406.624C411.912 406.977 412.324 407.479 412.567 408.066C412.81 408.653 412.874 409.299 412.75 409.922C412.626 410.545 412.32 411.118 411.87 411.567C411.421 412.016 410.849 412.322 410.226 412.446C409.603 412.57 408.957 412.506 408.37 412.263C407.783 412.02 407.281 411.608 406.928 411.08C406.575 410.552 406.387 409.931 406.387 409.295C406.387 408.873 406.47 408.456 406.631 408.066C406.793 407.676 407.029 407.322 407.328 407.024C407.626 406.726 407.98 406.489 408.37 406.328C408.759 406.166 409.177 406.083 409.599 406.083Z" fill="#45197C"/>
<path opacity="0.4" fill-rule="evenodd" clip-rule="evenodd" d="M428.462 406.083C429.098 406.083 429.719 406.271 430.247 406.624C430.775 406.977 431.187 407.479 431.43 408.066C431.673 408.653 431.737 409.299 431.613 409.922C431.489 410.545 431.183 411.118 430.734 411.567C430.285 412.016 429.712 412.322 429.089 412.446C428.466 412.57 427.82 412.506 427.233 412.263C426.646 412.02 426.144 411.608 425.791 411.08C425.438 410.552 425.25 409.931 425.25 409.295C425.25 408.443 425.588 407.626 426.191 407.024C426.793 406.421 427.61 406.083 428.462 406.083Z" fill="#45197C"/>
<path opacity="0.4" fill-rule="evenodd" clip-rule="evenodd" d="M447.337 406.083C447.972 406.086 448.591 406.277 449.118 406.632C449.644 406.987 450.053 407.489 450.294 408.077C450.535 408.664 450.596 409.309 450.47 409.931C450.345 410.553 450.038 411.124 449.588 411.572C449.138 412.02 448.566 412.324 447.943 412.447C447.32 412.57 446.675 412.505 446.089 412.262C445.503 412.018 445.002 411.606 444.65 411.078C444.297 410.551 444.109 409.93 444.109 409.295C444.109 408.872 444.193 408.453 444.355 408.062C444.518 407.672 444.756 407.317 445.056 407.019C445.356 406.72 445.712 406.484 446.103 406.323C446.495 406.163 446.914 406.081 447.337 406.083Z" fill="#45197C"/>
<path opacity="0.4" fill-rule="evenodd" clip-rule="evenodd" d="M362.439 391.934C363.074 391.934 363.695 392.122 364.224 392.475C364.752 392.828 365.164 393.33 365.407 393.917C365.65 394.504 365.713 395.149 365.589 395.773C365.466 396.396 365.16 396.968 364.71 397.417C364.261 397.867 363.689 398.173 363.066 398.296C362.442 398.42 361.797 398.357 361.21 398.114C360.623 397.871 360.121 397.459 359.768 396.931C359.415 396.402 359.227 395.781 359.227 395.146C359.227 394.724 359.31 394.306 359.471 393.917C359.633 393.527 359.869 393.173 360.167 392.874C360.466 392.576 360.82 392.34 361.21 392.178C361.599 392.017 362.017 391.934 362.439 391.934Z" fill="#45197C"/>
<path opacity="0.4" fill-rule="evenodd" clip-rule="evenodd" d="M381.302 391.934C381.938 391.934 382.559 392.122 383.087 392.475C383.615 392.828 384.027 393.33 384.27 393.917C384.513 394.504 384.577 395.149 384.453 395.773C384.329 396.396 384.023 396.968 383.574 397.417C383.124 397.867 382.552 398.173 381.929 398.296C381.306 398.42 380.66 398.357 380.073 398.114C379.486 397.871 378.984 397.459 378.631 396.931C378.278 396.402 378.09 395.781 378.09 395.146C378.09 394.724 378.173 394.306 378.334 393.917C378.496 393.527 378.732 393.173 379.031 392.874C379.329 392.576 379.683 392.34 380.073 392.178C380.463 392.017 380.88 391.934 381.302 391.934Z" fill="#45197C"/>
<path opacity="0.4" fill-rule="evenodd" clip-rule="evenodd" d="M400.162 391.934C400.797 391.934 401.418 392.122 401.946 392.475C402.474 392.828 402.886 393.33 403.129 393.917C403.372 394.504 403.436 395.149 403.312 395.773C403.188 396.396 402.882 396.968 402.433 397.417C401.984 397.867 401.411 398.173 400.788 398.296C400.165 398.42 399.519 398.357 398.932 398.114C398.345 397.871 397.844 397.459 397.491 396.931C397.138 396.402 396.949 395.781 396.949 395.146C396.953 394.295 397.293 393.48 397.895 392.879C398.496 392.277 399.311 391.938 400.162 391.934Z" fill="#45197C"/>
<path opacity="0.4" fill-rule="evenodd" clip-rule="evenodd" d="M419.038 391.934C419.673 391.937 420.292 392.128 420.819 392.482C421.345 392.837 421.754 393.34 421.995 393.927C422.236 394.514 422.297 395.16 422.172 395.782C422.046 396.404 421.739 396.975 421.289 397.423C420.839 397.87 420.267 398.175 419.644 398.298C419.021 398.42 418.376 398.356 417.79 398.112C417.204 397.869 416.703 397.457 416.351 396.929C415.999 396.401 415.811 395.781 415.811 395.146C415.811 394.723 415.894 394.304 416.057 393.913C416.219 393.522 416.457 393.168 416.757 392.869C417.057 392.571 417.413 392.334 417.804 392.174C418.196 392.013 418.615 391.932 419.038 391.934Z" fill="#45197C"/>
<path opacity="0.4" fill-rule="evenodd" clip-rule="evenodd" d="M437.9 391.934C438.535 391.934 439.156 392.122 439.684 392.475C440.213 392.828 440.624 393.33 440.868 393.917C441.111 394.504 441.174 395.149 441.05 395.773C440.926 396.396 440.62 396.968 440.171 397.417C439.722 397.867 439.15 398.173 438.526 398.296C437.903 398.42 437.257 398.357 436.671 398.114C436.084 397.871 435.582 397.459 435.229 396.931C434.876 396.402 434.688 395.781 434.688 395.146C434.688 394.724 434.771 394.306 434.932 393.917C435.093 393.527 435.33 393.173 435.628 392.874C435.927 392.576 436.281 392.34 436.671 392.178C437.06 392.017 437.478 391.934 437.9 391.934Z" fill="#45197C"/>
<path opacity="0.4" fill-rule="evenodd" clip-rule="evenodd" d="M353.001 378.228C353.637 378.228 354.258 378.416 354.786 378.769C355.314 379.122 355.726 379.624 355.969 380.211C356.212 380.798 356.276 381.443 356.152 382.067C356.028 382.69 355.722 383.262 355.273 383.711C354.824 384.161 354.251 384.467 353.628 384.59C353.005 384.714 352.359 384.651 351.772 384.408C351.185 384.165 350.683 383.753 350.33 383.225C349.977 382.696 349.789 382.075 349.789 381.44C349.789 380.588 350.128 379.771 350.73 379.168C351.332 378.566 352.149 378.228 353.001 378.228Z" fill="#45197C"/>
<path opacity="0.4" fill-rule="evenodd" clip-rule="evenodd" d="M371.863 378.228C372.498 378.228 373.119 378.416 373.647 378.769C374.176 379.122 374.587 379.624 374.83 380.211C375.074 380.798 375.137 381.443 375.013 382.067C374.889 382.69 374.583 383.262 374.134 383.711C373.685 384.161 373.113 384.467 372.489 384.59C371.866 384.714 371.22 384.651 370.633 384.408C370.046 384.165 369.545 383.753 369.192 383.225C368.839 382.696 368.65 382.075 368.65 381.44C368.65 380.588 368.989 379.771 369.591 379.168C370.194 378.566 371.011 378.228 371.863 378.228Z" fill="#45197C"/>
<path opacity="0.4" fill-rule="evenodd" clip-rule="evenodd" d="M390.74 378.228C391.375 378.228 391.996 378.416 392.524 378.769C393.053 379.122 393.464 379.624 393.707 380.211C393.951 380.798 394.014 381.443 393.89 382.067C393.766 382.69 393.46 383.262 393.011 383.711C392.562 384.161 391.989 384.467 391.366 384.59C390.743 384.714 390.097 384.651 389.51 384.408C388.923 384.165 388.422 383.753 388.069 383.225C387.716 382.696 387.527 382.075 387.527 381.44C387.527 380.588 387.866 379.771 388.468 379.168C389.071 378.566 389.888 378.228 390.74 378.228Z" fill="#45197C"/>
<path opacity="0.4" fill-rule="evenodd" clip-rule="evenodd" d="M409.599 378.228C410.234 378.228 410.855 378.416 411.384 378.769C411.912 379.122 412.324 379.624 412.567 380.211C412.81 380.798 412.874 381.443 412.75 382.067C412.626 382.69 412.32 383.262 411.87 383.711C411.421 384.161 410.849 384.467 410.226 384.59C409.603 384.714 408.957 384.651 408.37 384.408C407.783 384.165 407.281 383.753 406.928 383.225C406.575 382.696 406.387 382.075 406.387 381.44C406.387 381.018 406.47 380.6 406.631 380.211C406.793 379.821 407.029 379.467 407.328 379.168C407.626 378.87 407.98 378.633 408.37 378.472C408.759 378.311 409.177 378.228 409.599 378.228Z" fill="#45197C"/>
<path opacity="0.4" d="M428.462 384.652C430.236 384.652 431.675 383.214 431.675 381.44C431.675 379.666 430.236 378.228 428.462 378.228C426.688 378.228 425.25 379.666 425.25 381.44C425.25 383.214 426.688 384.652 428.462 384.652Z" fill="#45197C"/>
<path opacity="0.4" fill-rule="evenodd" clip-rule="evenodd" d="M447.337 378.228C447.972 378.231 448.591 378.422 449.118 378.776C449.644 379.131 450.053 379.634 450.294 380.221C450.535 380.808 450.596 381.454 450.47 382.076C450.345 382.698 450.038 383.269 449.588 383.717C449.138 384.164 448.566 384.469 447.943 384.592C447.32 384.714 446.675 384.65 446.089 384.406C445.503 384.163 445.002 383.751 444.65 383.223C444.297 382.695 444.109 382.075 444.109 381.44C444.109 381.017 444.193 380.598 444.355 380.207C444.518 379.816 444.756 379.462 445.056 379.163C445.356 378.865 445.712 378.628 446.103 378.468C446.495 378.307 446.914 378.226 447.337 378.228Z" fill="#45197C"/>
<path opacity="0.4" fill-rule="evenodd" clip-rule="evenodd" d="M362.441 364.062C363.076 364.062 363.697 364.251 364.226 364.604C364.754 364.957 365.165 365.459 365.409 366.046C365.652 366.632 365.715 367.278 365.591 367.902C365.467 368.525 365.162 369.097 364.712 369.546C364.263 369.996 363.691 370.301 363.068 370.425C362.444 370.549 361.799 370.486 361.212 370.243C360.625 369.999 360.123 369.588 359.77 369.059C359.417 368.531 359.229 367.91 359.229 367.275C359.229 366.423 359.567 365.606 360.169 365.003C360.772 364.401 361.589 364.062 362.441 364.062Z" fill="#45197C"/>
<path opacity="0.4" fill-rule="evenodd" clip-rule="evenodd" d="M381.302 364.062C381.938 364.062 382.559 364.251 383.087 364.604C383.615 364.957 384.027 365.459 384.27 366.046C384.513 366.632 384.577 367.278 384.453 367.902C384.329 368.525 384.023 369.097 383.574 369.546C383.124 369.996 382.552 370.301 381.929 370.425C381.306 370.549 380.66 370.486 380.073 370.243C379.486 369.999 378.984 369.588 378.631 369.059C378.278 368.531 378.09 367.91 378.09 367.275C378.09 366.423 378.428 365.606 379.031 365.003C379.633 364.401 380.45 364.062 381.302 364.062Z" fill="#45197C"/>
<path opacity="0.4" fill-rule="evenodd" clip-rule="evenodd" d="M400.162 364.062C400.797 364.062 401.418 364.251 401.946 364.604C402.474 364.957 402.886 365.459 403.129 366.046C403.372 366.632 403.436 367.278 403.312 367.902C403.188 368.525 402.882 369.097 402.433 369.546C401.984 369.996 401.411 370.301 400.788 370.425C400.165 370.549 399.519 370.486 398.932 370.243C398.345 369.999 397.844 369.588 397.491 369.059C397.138 368.531 396.949 367.91 396.949 367.275C396.953 366.424 397.293 365.609 397.895 365.008C398.496 364.406 399.311 364.067 400.162 364.062Z" fill="#45197C"/>
<path opacity="0.4" fill-rule="evenodd" clip-rule="evenodd" d="M419.038 364.063C419.673 364.066 420.292 364.257 420.819 364.611C421.345 364.966 421.754 365.469 421.995 366.056C422.236 366.643 422.297 367.289 422.172 367.911C422.046 368.533 421.739 369.104 421.289 369.552C420.839 369.999 420.267 370.304 419.644 370.427C419.021 370.549 418.376 370.485 417.79 370.241C417.204 369.998 416.703 369.586 416.351 369.058C415.999 368.53 415.811 367.91 415.811 367.275C415.811 366.852 415.894 366.433 416.057 366.042C416.219 365.651 416.457 365.296 416.757 364.998C417.057 364.699 417.413 364.463 417.804 364.303C418.196 364.142 418.615 364.061 419.038 364.063Z" fill="#45197C"/>
<path opacity="0.4" fill-rule="evenodd" clip-rule="evenodd" d="M437.9 364.062C438.535 364.062 439.156 364.251 439.684 364.604C440.213 364.957 440.624 365.459 440.868 366.046C441.111 366.632 441.174 367.278 441.05 367.902C440.926 368.525 440.62 369.097 440.171 369.546C439.722 369.996 439.15 370.301 438.526 370.425C437.903 370.549 437.257 370.486 436.671 370.243C436.084 369.999 435.582 369.588 435.229 369.059C434.876 368.531 434.688 367.91 434.688 367.275C434.688 366.853 434.771 366.435 434.932 366.046C435.093 365.656 435.33 365.302 435.628 365.003C435.927 364.705 436.281 364.468 436.671 364.307C437.06 364.146 437.478 364.062 437.9 364.062Z" fill="#45197C"/>
<path opacity="0.4" fill-rule="evenodd" clip-rule="evenodd" d="M353.001 350.296C353.637 350.296 354.258 350.484 354.786 350.837C355.314 351.19 355.726 351.692 355.969 352.279C356.212 352.866 356.276 353.512 356.152 354.135C356.028 354.758 355.722 355.33 355.273 355.78C354.824 356.229 354.251 356.535 353.628 356.659C353.005 356.783 352.359 356.719 351.772 356.476C351.185 356.233 350.683 355.821 350.33 355.293C349.977 354.765 349.789 354.144 349.789 353.508C349.789 352.656 350.128 351.839 350.73 351.237C351.332 350.634 352.149 350.296 353.001 350.296Z" fill="#45197C"/>
<path opacity="0.4" fill-rule="evenodd" clip-rule="evenodd" d="M371.863 350.296C372.498 350.296 373.119 350.484 373.647 350.837C374.176 351.19 374.587 351.692 374.83 352.279C375.074 352.866 375.137 353.512 375.013 354.135C374.889 354.758 374.583 355.33 374.134 355.78C373.685 356.229 373.113 356.535 372.489 356.659C371.866 356.783 371.22 356.719 370.633 356.476C370.046 356.233 369.545 355.821 369.192 355.293C368.839 354.765 368.65 354.144 368.65 353.508C368.65 352.656 368.989 351.839 369.591 351.237C370.194 350.634 371.011 350.296 371.863 350.296Z" fill="#45197C"/>
<path opacity="0.4" fill-rule="evenodd" clip-rule="evenodd" d="M390.74 350.296C391.375 350.296 391.996 350.484 392.524 350.837C393.053 351.19 393.464 351.692 393.707 352.279C393.951 352.866 394.014 353.512 393.89 354.135C393.766 354.758 393.46 355.33 393.011 355.78C392.562 356.229 391.989 356.535 391.366 356.659C390.743 356.783 390.097 356.719 389.51 356.476C388.923 356.233 388.422 355.821 388.069 355.293C387.716 354.765 387.527 354.144 387.527 353.508C387.527 352.656 387.866 351.839 388.468 351.237C389.071 350.634 389.888 350.296 390.74 350.296Z" fill="#45197C"/>
<path opacity="0.4" fill-rule="evenodd" clip-rule="evenodd" d="M409.599 350.296C410.234 350.296 410.855 350.484 411.384 350.837C411.912 351.19 412.324 351.692 412.567 352.279C412.81 352.866 412.874 353.512 412.75 354.135C412.626 354.758 412.32 355.33 411.87 355.78C411.421 356.229 410.849 356.535 410.226 356.659C409.603 356.783 408.957 356.719 408.37 356.476C407.783 356.233 407.281 355.821 406.928 355.293C406.575 354.765 406.387 354.144 406.387 353.508C406.387 353.086 406.47 352.669 406.631 352.279C406.793 351.889 407.029 351.535 407.328 351.237C407.626 350.938 407.98 350.702 408.37 350.54C408.759 350.379 409.177 350.296 409.599 350.296Z" fill="#45197C"/>
<path opacity="0.4" d="M428.462 356.781C430.236 356.781 431.675 355.343 431.675 353.569C431.675 351.795 430.236 350.356 428.462 350.356C426.688 350.356 425.25 351.795 425.25 353.569C425.25 355.343 426.688 356.781 428.462 356.781Z" fill="#45197C"/>
<path opacity="0.4" fill-rule="evenodd" clip-rule="evenodd" d="M447.337 350.295C447.972 350.298 448.591 350.489 449.118 350.844C449.644 351.199 450.053 351.701 450.294 352.289C450.535 352.876 450.596 353.521 450.47 354.143C450.345 354.765 450.038 355.336 449.588 355.784C449.138 356.232 448.566 356.536 447.943 356.659C447.32 356.782 446.675 356.717 446.089 356.474C445.503 356.23 445.002 355.818 444.65 355.29C444.297 354.762 444.109 354.142 444.109 353.507C444.109 353.084 444.193 352.665 444.355 352.274C444.518 351.884 444.756 351.529 445.056 351.23C445.356 350.932 445.712 350.696 446.103 350.535C446.495 350.375 446.914 350.293 447.337 350.295Z" fill="#45197C"/>
<path opacity="0.4" fill-rule="evenodd" clip-rule="evenodd" d="M362.441 336.207C363.076 336.207 363.697 336.395 364.226 336.748C364.754 337.101 365.165 337.603 365.409 338.19C365.652 338.777 365.715 339.423 365.591 340.046C365.467 340.669 365.162 341.242 364.712 341.691C364.263 342.14 363.691 342.446 363.068 342.57C362.444 342.694 361.799 342.63 361.212 342.387C360.625 342.144 360.123 341.732 359.77 341.204C359.417 340.676 359.229 340.055 359.229 339.419C359.229 338.567 359.567 337.75 360.169 337.148C360.772 336.545 361.589 336.207 362.441 336.207Z" fill="#45197C"/>
<path opacity="0.4" fill-rule="evenodd" clip-rule="evenodd" d="M381.302 336.207C381.938 336.207 382.559 336.395 383.087 336.748C383.615 337.101 384.027 337.603 384.27 338.19C384.513 338.777 384.577 339.423 384.453 340.046C384.329 340.669 384.023 341.242 383.574 341.691C383.124 342.14 382.552 342.446 381.929 342.57C381.306 342.694 380.66 342.63 380.073 342.387C379.486 342.144 378.984 341.732 378.631 341.204C378.278 340.676 378.09 340.055 378.09 339.419C378.09 338.567 378.428 337.75 379.031 337.148C379.633 336.545 380.45 336.207 381.302 336.207Z" fill="#45197C"/>
<path opacity="0.4" fill-rule="evenodd" clip-rule="evenodd" d="M400.162 336.207C400.797 336.207 401.418 336.395 401.946 336.748C402.474 337.101 402.886 337.603 403.129 338.19C403.372 338.777 403.436 339.423 403.312 340.046C403.188 340.669 402.882 341.242 402.433 341.691C401.984 342.14 401.411 342.446 400.788 342.57C400.165 342.694 399.519 342.63 398.932 342.387C398.345 342.144 397.844 341.732 397.491 341.204C397.138 340.676 396.949 340.055 396.949 339.419C396.953 338.569 397.293 337.754 397.895 337.152C398.496 336.551 399.311 336.211 400.162 336.207Z" fill="#45197C"/>
<path opacity="0.4" fill-rule="evenodd" clip-rule="evenodd" d="M419.038 336.207C419.673 336.21 420.292 336.401 420.819 336.756C421.345 337.111 421.754 337.613 421.995 338.201C422.236 338.788 422.297 339.433 422.172 340.055C422.046 340.678 421.739 341.248 421.289 341.696C420.839 342.144 420.267 342.448 419.644 342.571C419.021 342.694 418.376 342.629 417.79 342.386C417.204 342.142 416.703 341.73 416.351 341.202C415.999 340.675 415.811 340.054 415.811 339.419C415.811 338.996 415.894 338.577 416.057 338.187C416.219 337.796 416.457 337.441 416.757 337.143C417.057 336.844 417.413 336.608 417.804 336.447C418.196 336.287 418.615 336.205 419.038 336.207Z" fill="#45197C"/>
<path opacity="0.4" fill-rule="evenodd" clip-rule="evenodd" d="M437.9 336.207C438.535 336.207 439.156 336.395 439.684 336.748C440.213 337.101 440.624 337.603 440.868 338.19C441.111 338.777 441.174 339.423 441.05 340.046C440.926 340.669 440.62 341.242 440.171 341.691C439.722 342.14 439.15 342.446 438.526 342.57C437.903 342.694 437.257 342.63 436.671 342.387C436.084 342.144 435.582 341.732 435.229 341.204C434.876 340.676 434.688 340.055 434.688 339.419C434.688 338.998 434.771 338.58 434.932 338.19C435.093 337.8 435.33 337.446 435.628 337.148C435.927 336.85 436.281 336.613 436.671 336.452C437.06 336.29 437.478 336.207 437.9 336.207Z" fill="#45197C"/>
</g>
</g>
<path fill-rule="evenodd" clip-rule="evenodd" d="M226.606 200.112C235.784 222.69 239.257 239.134 242.148 259.769C244.259 274.852 229.803 277.422 221.956 266.622C208.893 248.679 202.223 231.44 195.768 211.722C188.15 188.273 217.795 178.483 226.606 200.112Z" fill="#F08156"/>
<path fill-rule="evenodd" clip-rule="evenodd" d="M217.322 214.537C223.609 227.539 223.807 239.486 223.44 249.964C223.073 260.443 204.365 254.156 204.365 254.156C204.365 254.156 205.788 225.23 217.322 214.537Z" fill="#F08156"/>
<path fill-rule="evenodd" clip-rule="evenodd" d="M360.239 211.355C347.236 222.736 324.842 243.233 314.058 256.725C305.415 267.54 318.647 276.886 330.15 269.238C349.791 256.19 367.382 247.226 384.713 227.524C399.567 210.651 376.025 197.542 360.239 211.355Z" fill="#45197C"/>
<path fill-rule="evenodd" clip-rule="evenodd" d="M351.826 255.318C360.221 249.618 368.233 243.373 375.811 236.625C374.171 229.482 371.214 222.707 367.092 216.647C357.746 233.122 353.907 240.816 351.826 255.318Z" fill="#002E6C"/>
<path fill-rule="evenodd" clip-rule="evenodd" d="M353.906 337.278C342.648 333.912 367.428 291.112 364.094 280.42C362.151 274.179 353.661 263.134 354.808 252.886C355.619 245.513 359.397 230.95 367.719 206.812C386.87 202.07 406.313 199.485 437.028 210.636C443.591 246.033 430.16 265.169 430.91 293.04C431.2 304.879 447.568 326.264 439.812 332.735C421.67 347.848 377.249 344.268 353.906 337.278Z" fill="#45197C"/>
<path fill-rule="evenodd" clip-rule="evenodd" d="M382.526 203.798C389.777 202.1 396.293 201.213 408.362 203.156C405.303 211.462 393.065 223.302 385.539 227.462C383.354 219.77 382.338 211.793 382.526 203.798Z" fill="#BA8B80"/>
<path fill-rule="evenodd" clip-rule="evenodd" d="M384.928 180.349H405.548L405.456 205.099C405.456 215.378 384.805 214.69 384.836 205.099L384.928 180.349Z" fill="#BA8B80"/>
<path fill-rule="evenodd" clip-rule="evenodd" d="M435.133 254.875C438.774 267.969 447.646 278.477 455.279 288.145C463.845 299.006 475.838 299.526 472.931 285.988C467.761 261.926 454.147 222.92 440.166 212.334C428.433 203.447 429.198 233.566 435.133 254.875Z" fill="#45197C"/>
<path fill-rule="evenodd" clip-rule="evenodd" d="M384.883 191.209H405.503V203.783C403.702 204.735 401.725 205.309 399.694 205.47C397.663 205.631 395.621 205.374 393.693 204.717C391.764 204.059 389.991 203.014 388.481 201.646C386.971 200.278 385.757 198.616 384.913 196.762L384.883 191.209Z" fill="#947169"/>
<path fill-rule="evenodd" clip-rule="evenodd" d="M400.256 128.692C360.714 122.971 360.408 195.232 389.747 197.527C421.121 199.852 443.225 134.933 400.256 128.692Z" fill="#D7A99E"/>
<path fill-rule="evenodd" clip-rule="evenodd" d="M378.428 158.184C378.847 158.216 379.246 158.373 379.575 158.634C379.904 158.895 380.148 159.249 380.275 159.649C380.402 160.049 380.407 160.478 380.289 160.881C380.171 161.285 379.936 161.643 379.613 161.912C379.29 162.18 378.894 162.346 378.476 162.388C378.058 162.431 377.637 162.347 377.267 162.149C376.897 161.951 376.594 161.647 376.397 161.275C376.201 160.904 376.12 160.483 376.164 160.065C376.189 159.793 376.267 159.528 376.395 159.286C376.522 159.044 376.696 158.83 376.906 158.655C377.116 158.48 377.359 158.349 377.62 158.268C377.881 158.187 378.156 158.158 378.428 158.184Z" fill="#00204A"/>
<path fill-rule="evenodd" clip-rule="evenodd" d="M398.219 160.387C398.638 160.419 399.037 160.575 399.366 160.836C399.695 161.096 399.939 161.448 400.067 161.847C400.195 162.247 400.201 162.675 400.084 163.078C399.967 163.481 399.733 163.84 399.412 164.109C399.09 164.379 398.696 164.546 398.279 164.591C397.862 164.635 397.441 164.554 397.07 164.358C396.699 164.162 396.395 163.86 396.197 163.491C395.998 163.121 395.914 162.701 395.956 162.283C395.979 162.01 396.056 161.744 396.182 161.5C396.309 161.256 396.482 161.04 396.693 160.864C396.903 160.687 397.146 160.554 397.408 160.473C397.67 160.391 397.946 160.362 398.219 160.387Z" fill="#00204A"/>
<path fill-rule="evenodd" clip-rule="evenodd" d="M387.223 174.459C382.634 172.654 384.164 169.641 386.091 165.648C382.496 168.54 380.171 173.358 387.223 174.459Z" fill="#947169"/>
<path fill-rule="evenodd" clip-rule="evenodd" d="M378.902 177.626C382.956 177.764 389.121 178.314 397.258 179.156C393.128 189.68 381.059 187.385 378.902 177.626Z" fill="#947169"/>
<path fill-rule="evenodd" clip-rule="evenodd" d="M415.813 153.136C415.507 162.666 419.683 169.534 422.666 170.13C425.649 170.727 428.922 154.023 415.813 153.136Z" fill="#002E6C"/>
<path fill-rule="evenodd" clip-rule="evenodd" d="M426.076 163.828C424.393 163.201 421.946 165.633 420.615 169.243C419.284 172.853 419.575 176.295 421.258 176.891C422.94 177.488 425.388 175.086 426.718 171.476C428.049 167.866 427.774 164.44 426.076 163.828Z" fill="#BA8B80"/>
<path fill-rule="evenodd" clip-rule="evenodd" d="M396.599 155.354C395.146 155.354 394.442 153.564 396.278 153.197C398.924 152.661 404.033 154.069 405.456 155.69C406.373 156.73 405.67 157.633 404.415 157.051C401.903 156.12 399.271 155.549 396.599 155.354Z" fill="#002E6C"/>
<path fill-rule="evenodd" clip-rule="evenodd" d="M383.062 153.962C384.347 154.39 385.449 152.768 383.904 151.942C382.503 151.351 380.994 151.058 379.474 151.085C377.954 151.111 376.456 151.455 375.077 152.095C373.945 152.738 374.404 153.946 375.659 153.625C378.127 153.289 380.635 153.403 383.062 153.962Z" fill="#002E6C"/>
<path fill-rule="evenodd" clip-rule="evenodd" d="M180.027 597.919C190.52 604.726 217.626 608.229 230.72 605.69C238.047 604.283 238.537 593.697 228.915 589.628C212.881 582.779 196.222 577.498 179.17 573.857C177.641 582.362 175.361 594.89 180.027 597.919Z" fill="#002E6C"/>
<path fill-rule="evenodd" clip-rule="evenodd" d="M212.26 583.525C205.789 586.691 185.139 587.701 176.572 581.567C173.039 509.229 176.343 488.058 178.515 449.373C179.831 425.785 213.805 428.951 212.872 454.283C211.005 504.793 214.157 565.184 212.26 583.525Z" fill="#4F91E8"/>
<path fill-rule="evenodd" clip-rule="evenodd" d="M175.271 306.195C178.055 324.108 179.187 344.146 175.378 363.344C172.731 395.253 164.594 432.409 161.963 464.302C160.647 480.211 126.459 480.486 126.444 461.105C126.444 410.626 118.199 361.034 128.172 304.146C141.954 304.161 161.473 306.195 175.271 306.195Z" fill="#4F91E8"/>
<path d="M161.703 325.117C158.032 330.746 146.574 340.261 142.031 343.274" stroke="#66A1ED" stroke-width="2.93697" stroke-linecap="round" stroke-linejoin="round"/>
<path fill-rule="evenodd" clip-rule="evenodd" d="M170.285 306.195C167.485 324.107 167.011 350.005 170.82 369.202C172.931 401.325 176.939 426.198 179.096 458.275C180.151 474.199 212.473 476.004 212.534 456.623C212.718 406.144 217.123 362.701 213.467 305.721L170.285 306.195Z" fill="#4F91E8"/>
<mask id="mask1_1808_10790" style="mask-type:luminance" maskUnits="userSpaceOnUse" x="168" y="305" width="47" height="166">
<path d="M170.285 306.195C167.485 324.107 167.011 350.005 170.82 369.202C172.931 401.325 176.939 426.198 179.096 458.275C180.151 474.199 212.473 476.004 212.534 456.623C212.718 406.144 217.123 362.701 213.467 305.721L170.285 306.195Z" fill="white"/>
</mask>
<g mask="url(#mask1_1808_10790)">
<path d="M200.848 320.574C204.519 326.203 215.976 335.718 220.519 338.747" stroke="#66A1ED" stroke-width="2.93697" stroke-linecap="round" stroke-linejoin="round"/>
</g>
<path d="M185.093 324C184.772 330.96 185.721 346.609 182.569 347.083C179.418 347.557 175.609 347.725 175.609 347.725" stroke="#66A1ED" stroke-width="2.93697" stroke-linecap="round" stroke-linejoin="round"/>
<path d="M173.252 387.94C177.612 414.128 182.43 440.316 183.44 452.447C184.449 464.577 177.627 533.428 181.007 574.148" stroke="#66A1ED" stroke-width="2.93697" stroke-linecap="round" stroke-linejoin="round"/>
<path opacity="0.5" fill-rule="evenodd" clip-rule="evenodd" d="M174.49 409.34C177.305 392.606 179.447 376.85 177.993 348.153C176.28 365.179 173.802 381.255 172.043 391.596C172.854 396.338 173.695 402.059 174.49 409.34Z" fill="#1F4C87"/>
<path fill-rule="evenodd" clip-rule="evenodd" d="M123.446 606.454C133.481 613.95 160.296 619.227 173.528 617.56C180.932 616.627 182.125 606.102 172.794 601.406C157.244 593.52 140.969 587.152 124.196 582.393C122.1 590.775 119.01 603.135 123.446 606.454Z" fill="#002E6C"/>
<path fill-rule="evenodd" clip-rule="evenodd" d="M155.019 592.565C147.829 597.445 133.328 597.95 119.637 591.8C117.389 534.223 124.425 489.022 128.157 450.321C130.437 426.749 165.283 426.718 163.34 452.248C159.485 503.171 157.558 574.24 155.019 592.565Z" fill="#4F91E8"/>
<path d="M139.797 318.172C133.495 354.547 132.516 451.039 130.619 466.55C128.722 482.061 124.806 569.834 125.296 583.891" stroke="#66A1ED" stroke-width="2.93697" stroke-linecap="round" stroke-linejoin="round"/>
<path fill-rule="evenodd" clip-rule="evenodd" d="M218.24 251.265C223.273 251.479 230.707 251.005 233.216 253.315C235.725 255.624 229.407 244.886 218.24 245.911C215.946 247.165 215.518 249.597 218.24 251.265Z" fill="#E07348"/>
<path fill-rule="evenodd" clip-rule="evenodd" d="M221.375 191.592C223.379 222.185 219.692 246.537 216.786 267.678C214.445 284.779 222.354 298.363 217.795 323.021C187.202 334.845 153.549 335.534 123.659 320.818C118.259 312.971 132.47 293.116 132.179 274.27C131.828 251.325 115.552 224.051 117.739 193.106C149.679 172.654 209.229 179.966 221.375 191.592Z" fill="#FFA37F"/>
<path fill-rule="evenodd" clip-rule="evenodd" d="M145.597 260.045C137.382 257.138 130.438 253.727 131.661 251.953C133.543 249.23 145.428 256.037 151.899 256.052C149.757 254.89 146.224 252.763 146.79 251.341C148.763 246.476 171.678 263.18 169.184 269.819C165.024 280.894 128.969 270.37 130.331 265.842C130.82 264.312 134.032 266.974 141.757 267.739C134.247 265.827 125.91 263.303 127.103 260.274C127.776 258.591 137.811 263.333 143.929 264.114C137.505 261.635 125.879 257.612 127.103 255.654C128.694 253.1 138.744 258.989 145.597 260.045Z" fill="#FBC9BE"/>
<path fill-rule="evenodd" clip-rule="evenodd" d="M171.571 131.552C175.259 131.411 178.854 132.734 181.57 135.233C184.287 137.732 185.905 141.204 186.072 144.891L187.357 184.035C187.571 190.491 190.416 202.254 180.871 203.202C166.829 204.609 159.456 192.494 159.242 184.953L157.972 145.809C157.894 142.117 159.281 138.545 161.829 135.874C164.377 133.202 167.88 131.648 171.571 131.552Z" fill="#FBC9BE"/>
<path fill-rule="evenodd" clip-rule="evenodd" d="M187.125 177.045L158.566 164.119L159.239 184.969C167.347 189.083 181.573 186.881 187.125 177.045Z" fill="#D9ABA1"/>
<path fill-rule="evenodd" clip-rule="evenodd" d="M160.999 99.1076C186.3 92.0099 197.559 114.817 200.404 138.068C202.668 156.746 201.933 174.077 189.696 179.018C174.751 185.136 152.035 175.209 146.483 161.855C136.876 138.68 133.679 106.756 160.999 99.1076Z" fill="#FBC9BE"/>
<path fill-rule="evenodd" clip-rule="evenodd" d="M182.721 129.395C182.333 129.566 181.894 129.575 181.5 129.422C181.105 129.268 180.788 128.964 180.617 128.577C180.447 128.189 180.438 127.75 180.591 127.356C180.745 126.961 181.048 126.644 181.436 126.474C185.061 124.867 189.941 124.409 193.321 126.825C195.019 128.034 194.025 129.885 192.052 129.196C188.974 128.475 185.765 128.543 182.721 129.395Z" fill="#233147"/>
<path fill-rule="evenodd" clip-rule="evenodd" d="M178.146 156.853C184.265 155.232 182.644 151.209 180.823 145.916C184.954 150.061 187.187 156.455 178.146 156.853Z" fill="#D9ABA1"/>
<path fill-rule="evenodd" clip-rule="evenodd" d="M192.74 156.027C188.242 158.918 178.758 161.932 169.32 161.672C175.026 165.312 190.613 161.504 192.74 156.027Z" fill="#D9ABA1"/>
<path fill-rule="evenodd" clip-rule="evenodd" d="M168.907 129.609C169.331 129.609 169.738 129.778 170.037 130.077C170.337 130.377 170.505 130.784 170.505 131.208C170.505 131.632 170.337 132.038 170.037 132.338C169.738 132.638 169.331 132.806 168.907 132.806C165.734 133.395 162.705 134.595 159.989 136.34C158.245 137.487 157.052 136.34 158.138 134.565C160.28 131.017 164.945 129.548 168.907 129.609Z" fill="#233147"/>
<path fill-rule="evenodd" clip-rule="evenodd" d="M188.824 162.88C185.071 164.278 181.208 165.363 177.275 166.123C179.509 168.173 188.044 166.123 188.824 162.88Z" fill="#D9ABA1"/>
<path fill-rule="evenodd" clip-rule="evenodd" d="M167.73 141.831C168.166 141.696 168.633 141.694 169.069 141.826C169.506 141.957 169.894 142.216 170.184 142.568C170.473 142.921 170.65 143.352 170.693 143.807C170.736 144.261 170.643 144.718 170.425 145.119C170.207 145.52 169.875 145.846 169.47 146.057C169.066 146.268 168.607 146.354 168.154 146.303C167.7 146.253 167.272 146.068 166.924 145.772C166.577 145.477 166.325 145.085 166.201 144.646C166.116 144.361 166.089 144.061 166.12 143.766C166.151 143.47 166.24 143.183 166.382 142.921C166.524 142.66 166.716 142.429 166.948 142.242C167.179 142.055 167.445 141.915 167.73 141.831Z" fill="#00204A"/>
<path fill-rule="evenodd" clip-rule="evenodd" d="M188.15 136.646C188.586 136.511 189.052 136.509 189.489 136.64C189.926 136.771 190.314 137.03 190.604 137.383C190.893 137.736 191.07 138.167 191.113 138.621C191.156 139.075 191.063 139.532 190.845 139.933C190.627 140.334 190.295 140.661 189.89 140.872C189.486 141.083 189.027 141.168 188.574 141.118C188.12 141.067 187.692 140.882 187.344 140.587C186.996 140.292 186.745 139.899 186.621 139.46C186.536 139.175 186.509 138.876 186.54 138.58C186.571 138.284 186.66 137.997 186.802 137.736C186.944 137.474 187.136 137.244 187.368 137.057C187.599 136.87 187.865 136.73 188.15 136.646Z" fill="#00204A"/>
<path fill-rule="evenodd" clip-rule="evenodd" d="M173.835 263.608C179.066 277.895 164.978 284.947 154.698 276.427C135.425 260.457 123.906 244.197 114.376 225.321C97.6416 192.448 128.143 173.312 150.721 216.617C160.618 235.462 164.488 238.109 173.835 263.608Z" fill="#F08156"/>
<path fill-rule="evenodd" clip-rule="evenodd" d="M161.031 234.652C157.039 238.645 152.129 250.806 152.756 262.339C160.098 256.68 165.36 242.178 165.36 242.178L161.031 234.652Z" fill="#E07348"/>
<path opacity="0.08" fill-rule="evenodd" clip-rule="evenodd" d="M400.041 167.361C403.59 168.142 406.16 170.421 405.762 172.516C405.365 174.612 402.152 175.576 398.603 174.842C395.055 174.107 392.485 171.782 392.882 169.687C393.28 167.591 396.492 166.581 400.041 167.361Z" fill="#FF5765"/>
<path opacity="0.08" fill-rule="evenodd" clip-rule="evenodd" d="M375.873 165.374C372.523 165.527 369.754 167.362 369.754 169.458C369.754 171.554 372.477 173.144 375.873 172.991C379.268 172.838 381.991 171.003 381.991 168.892C381.991 166.781 379.207 165.205 375.873 165.374Z" fill="#FF5765"/>
<path opacity="0.08" fill-rule="evenodd" clip-rule="evenodd" d="M191.778 142.642C195.342 142.183 198.478 143.483 198.799 145.533C199.12 147.583 196.474 149.617 192.91 150.122C189.345 150.627 186.21 149.281 185.904 147.231C185.598 145.181 188.152 143.086 191.778 142.642Z" fill="#FF5765"/>
<path opacity="0.08" fill-rule="evenodd" clip-rule="evenodd" d="M165.482 150.214C162.086 151.392 159.837 153.946 160.464 155.919C161.091 157.893 164.35 158.55 167.746 157.373C171.141 156.195 173.39 153.656 172.763 151.667C172.136 149.678 168.878 149.036 165.482 150.214Z" fill="#FF5765"/>
<path fill-rule="evenodd" clip-rule="evenodd" d="M287.747 215.164C287.304 218.223 291.051 221.16 292.336 224.342C299.434 242.3 304.574 254.232 312.115 267.173C318.922 278.921 334.57 268.274 330.15 255.425C324.674 239.578 315.45 228.396 307.954 214.261C306.608 211.738 306.899 206.95 304.344 206.093C298.577 204.135 288.481 210.131 287.747 215.164Z" fill="#45197C"/>
<path fill-rule="evenodd" clip-rule="evenodd" d="M490.002 233.689C493.75 238.278 488.289 248.603 486.943 255.318C484.572 267.648 482.66 278.692 476.74 290.501C470.484 302.891 453.795 295.09 457.267 281.659C460.327 270.049 463.982 260.244 467.547 250.148C469.872 243.54 468.434 230.951 476.342 228.733C478.854 228.146 481.483 228.302 483.908 229.182C486.334 230.062 488.451 231.628 490.002 233.689Z" fill="#45197C"/>
<path fill-rule="evenodd" clip-rule="evenodd" d="M381.472 178.023C384.731 178.222 388.937 178.605 394.062 179.11C393.679 181.22 381.029 179.813 381.472 178.023Z" fill="white"/>
<path fill-rule="evenodd" clip-rule="evenodd" d="M159.392 253.528C175.163 253.084 222.338 249.291 232.266 252.488C246.767 257.077 244.106 274.943 229.008 276.871C220.273 277.987 175.377 277.896 157.633 275.05C156.291 267.848 156.898 260.417 159.392 253.528Z" fill="#F08156"/>
<path fill-rule="evenodd" clip-rule="evenodd" d="M188.885 251.906C186.621 260.197 180.518 270.966 173.176 276.381C169.168 257.673 170.881 251.631 188.885 251.906Z" fill="#E07348"/>
<path fill-rule="evenodd" clip-rule="evenodd" d="M213.391 583.295C206.905 586.462 184.511 588.206 175.945 582.056C175.685 576.779 175.471 571.777 175.287 567.02C184.771 571.762 206.447 570.324 213.973 567.677C213.911 574.285 213.758 579.639 213.391 583.295Z" fill="#66A1ED"/>
<path fill-rule="evenodd" clip-rule="evenodd" d="M156.167 593.651C149.696 596.817 127.286 598.546 118.72 592.412C118.476 587.119 118.613 582.24 118.43 577.482C127.914 582.224 149.222 580.679 156.672 578.018C156.702 584.626 156.534 589.98 156.167 593.651Z" fill="#66A1ED"/>
<path fill-rule="evenodd" clip-rule="evenodd" d="M325.363 244.121C329.675 249.454 332.752 255.676 334.373 262.34C335.156 258.731 334.69 254.964 333.054 251.655C331.417 248.345 328.706 245.689 325.363 244.121Z" fill="#002E6C"/>
<path fill-rule="evenodd" clip-rule="evenodd" d="M464.563 258.606C459.775 264.848 458.536 276.014 457.312 281.552C454.314 273.597 457.74 262.492 464.563 258.606Z" fill="#002E6C"/>
<path fill-rule="evenodd" clip-rule="evenodd" d="M431.828 241.688C432.697 246.826 433.996 251.882 435.713 256.802C435.361 258.607 435.178 259.479 434.811 261.253C431.476 256.19 430.788 248.159 431.828 241.688Z" fill="#002E6C"/>
<path fill-rule="evenodd" clip-rule="evenodd" d="M379.437 128.401C375.873 143.009 410.734 165.358 429.809 163.583C448.884 161.809 422.666 116.255 379.437 128.401Z" fill="#002E6C"/>
<path fill-rule="evenodd" clip-rule="evenodd" d="M369.646 156.027C373.057 144.371 379.681 137.839 388.874 134.81C388.177 132.057 386.962 129.461 385.294 127.162C385.294 127.162 369.478 134.306 369.646 156.027Z" fill="#002E6C"/>
<path fill-rule="evenodd" clip-rule="evenodd" d="M142.844 110.642C165.529 131.445 179.189 112.692 191.334 117.189C198.814 119.957 198.983 131.659 200.512 138.604C202.18 135.101 205.101 120.095 200.742 115.751C196.03 110.932 204.979 94.8402 184.573 96.8747C176.175 97.7313 151.823 82.6029 142.844 110.642Z" fill="#001E46"/>
<path fill-rule="evenodd" clip-rule="evenodd" d="M152.449 104.4C159.363 117.249 153.979 123.261 148.044 128.355C142.109 133.449 154.346 151.208 142.95 153.151C138.636 146.848 126.307 123.903 134.736 119.223C139.202 116.76 132.977 101.555 152.449 104.4Z" fill="#001E46"/>
<path fill-rule="evenodd" clip-rule="evenodd" d="M194.392 115.736C184.036 102.841 159.99 125.189 148.502 106.267C161.749 84.974 183.47 106.267 189.62 100.332C184.052 108.393 160.235 97.9303 152.449 105.885C157.711 112.615 190.491 98.8023 194.392 115.736Z" fill="#00295F"/>
<path fill-rule="evenodd" clip-rule="evenodd" d="M148.945 105.854C137.044 106.894 142.658 116.087 138.023 119.529C142.612 118.687 146.161 106.695 151.683 108.209C151.898 107.154 151.775 105.548 148.945 105.854Z" fill="#00295F"/>
<path fill-rule="evenodd" clip-rule="evenodd" d="M139.094 145.197C140.914 144.279 143.973 146.727 145.946 150.581C147.92 154.436 148.042 158.367 146.222 159.285C144.401 160.203 141.342 157.756 139.369 153.901C137.396 150.046 137.273 146.115 139.094 145.197Z" fill="#FBC9BE"/>
<path fill-rule="evenodd" clip-rule="evenodd" d="M431.476 157.908C411.82 162.62 384.5 138.252 382.145 129.793C383.582 131.552 410.092 149.801 431.476 157.908Z" fill="#043A80"/>
<path fill-rule="evenodd" clip-rule="evenodd" d="M365.823 149.45C364.079 140.272 370.534 131.966 376.439 130.589C372.722 133.664 366.802 142.704 365.823 149.45Z" fill="#043A80"/>
<path fill-rule="evenodd" clip-rule="evenodd" d="M199.899 160.325C200.511 156.425 200.434 154.757 198.369 154.926C194.835 154.926 192.006 169.152 188.09 174.811C181.833 174.429 179.049 168.693 177.535 169.366C172.732 171.232 183.47 195.875 188.319 199.271C198.935 206.751 214.323 165.618 209.734 165.832C208.587 165.832 208.297 169.641 205.145 175.622C203.616 174.245 202.285 175.24 200.296 174.414C202.056 167.301 205.375 156.333 202.927 156.211C201.459 156.103 200.587 157.235 199.899 160.325Z" fill="#D9ABA1"/>
<path fill-rule="evenodd" clip-rule="evenodd" d="M196.288 172.854C198.781 163.936 201.061 155.798 198.766 155.783C195.248 155.783 192.647 172.364 188.701 177.948C182.429 177.565 179.523 169.84 177.993 170.437C173.572 172.211 185.488 195.982 190.338 199.378C201.045 206.858 214.552 166.047 209.78 164.471C208.097 163.905 209.336 167.041 205.282 174.215C208.219 166.567 210.101 157.205 206.812 156.394C204.931 155.951 203.753 168.096 200.877 173.894C202.651 166.796 206.261 154.207 203.799 154.008C200.586 153.932 199.577 166.276 196.288 172.854Z" fill="#FBC9BE"/>
<path fill-rule="evenodd" clip-rule="evenodd" d="M182.477 194.682C176.358 209.198 153.321 254.538 152.694 264.94C151.761 280.144 170.377 284.428 177.658 271.058C181.865 263.333 199.364 218.437 203.173 200.862C196.952 196.986 189.804 194.851 182.477 194.682Z" fill="#F08156"/>
<path fill-rule="evenodd" clip-rule="evenodd" d="M384.866 196.899C382.908 200.219 381.516 201.488 379.558 204.854C379.375 216.77 382.511 223.21 385.539 227.462C384.805 221.114 385.096 207.944 384.866 196.899Z" fill="white"/>
<path fill-rule="evenodd" clip-rule="evenodd" d="M405.685 195.171C407.013 198.151 408.137 201.217 409.051 204.349C405.15 213.833 396.186 224.862 385.479 227.462C394.397 221.282 402.427 207.806 405.685 195.171Z" fill="white"/>
<path fill-rule="evenodd" clip-rule="evenodd" d="M384.868 196.899C380.679 200.848 377.124 205.42 374.328 210.452C377.953 209.137 382.084 206.995 385.036 207.393C385.204 203.538 384.516 202.177 384.868 196.899Z" fill="white"/>
<path fill-rule="evenodd" clip-rule="evenodd" d="M405.685 195.171C409.937 201.886 413.517 207.408 414.71 214.751C410.344 211.964 405.693 209.652 400.836 207.852C402.868 203.796 404.492 199.548 405.685 195.171Z" fill="white"/>
<path fill-rule="evenodd" clip-rule="evenodd" d="M123.446 606.454C133.481 613.949 160.296 619.227 173.527 617.559C174.977 617.419 176.337 616.795 177.388 615.788C178.44 614.78 179.122 613.449 179.325 612.007C178.2 613.003 176.795 613.628 175.302 613.796C161.061 615.586 132.196 609.911 121.381 601.834L121.289 601.758C121.312 602.646 121.515 603.52 121.886 604.327C122.257 605.134 122.787 605.858 123.446 606.454Z" fill="#001E45"/>
<path fill-rule="evenodd" clip-rule="evenodd" d="M180.029 597.918C190.523 604.725 217.629 608.228 230.723 605.689C232.158 605.454 233.473 604.745 234.457 603.674C235.441 602.604 236.039 601.234 236.153 599.785C235.094 600.85 233.731 601.56 232.252 601.819C218.149 604.557 188.962 600.779 177.658 593.437H177.566C177.658 594.31 177.923 595.156 178.346 595.926C178.768 596.696 179.341 597.373 180.029 597.918Z" fill="#001E45"/>
<path fill-rule="evenodd" clip-rule="evenodd" d="M436.876 609.024C430.191 615.143 402.214 620.114 389.808 618.309C388.493 618.172 387.266 617.586 386.333 616.65C385.399 615.714 384.817 614.485 384.684 613.17C385.663 614.004 386.864 614.536 388.141 614.699C401.265 616.611 430.895 611.319 437.977 604.863C438.363 604.511 438.689 604.097 438.941 603.64C438.93 605.626 438.196 607.54 436.876 609.024Z" fill="#0C3D7D"/>
<path fill-rule="evenodd" clip-rule="evenodd" d="M389.671 598.515C382.711 604.282 354.488 607.984 342.251 605.597C340.943 605.402 339.743 604.761 338.854 603.782C337.965 602.804 337.441 601.548 337.371 600.228C338.299 601.116 339.471 601.707 340.736 601.926C353.754 604.45 383.567 600.534 390.986 594.431C391.381 594.092 391.722 593.695 391.996 593.253C391.891 595.233 391.064 597.105 389.671 598.515Z" fill="#0C3D7D"/>
<path fill-rule="evenodd" clip-rule="evenodd" d="M497.406 220.702C505.773 217.78 512.856 214.354 511.617 212.549C509.72 209.765 492.848 217.75 486.331 217.719C485.643 213.344 490.431 210.438 489.727 208.541C488.197 204.151 475.471 217.719 476.067 230.125C476.22 233.291 480.151 236.243 486.607 235.83C498.492 235.035 513.789 229.712 512.886 226.729C512.412 225.092 509.123 227.861 501.276 228.595C508.925 226.683 517.414 224.159 516.206 221.069C515.533 219.356 505.253 224.037 499.089 224.893C505.62 222.415 517.445 218.377 516.236 216.388C514.63 213.742 504.381 219.677 497.406 220.702Z" fill="#BA8B80"/>
<path fill-rule="evenodd" clip-rule="evenodd" d="M279.841 200.173C271.107 198.643 263.581 196.395 264.544 194.406C265.982 191.347 283.895 196.257 290.319 195.186C290.319 190.766 284.201 188.563 285.501 186.911C288.071 183.637 300.95 194.07 303.016 204.517C304.3 211.003 300.308 211.998 292.904 213.114C281.126 214.889 265.141 211.661 265.539 208.525C265.753 206.843 269.439 209.045 277.302 208.525C269.455 207.867 260.674 206.735 261.378 203.493C261.76 201.703 272.652 204.686 278.877 204.533C272.024 203.125 259.695 201.045 260.598 198.873C261.73 196.074 272.789 200.296 279.841 200.173Z" fill="#BA8B80"/>
<path fill-rule="evenodd" clip-rule="evenodd" d="M351.688 25.194L370.288 29.6912C372.384 21.5686 376.866 18.494 383.52 20.1001C389.486 21.538 392.392 24.9645 391.015 30.6702C387.864 43.703 370.885 40.8884 365.837 61.799L383.948 66.1433C387.788 50.2653 409.341 52.6057 414.282 32.1081C417.953 16.9031 408.76 5.62944 390.572 1.23928C371.16 -3.44152 356.705 5.27761 351.749 25.194H351.688ZM372.032 74.1435C370.504 73.7029 368.901 73.5874 367.326 73.8044C365.75 74.0214 364.238 74.5662 362.886 75.4036C361.534 76.2409 360.373 77.3523 359.477 78.666C358.581 79.9797 357.97 81.4666 357.684 83.0309C356.001 89.9603 359.581 95.9872 366.372 97.624C367.912 98.0552 369.524 98.1639 371.107 97.9432C372.69 97.7225 374.211 97.1772 375.574 96.3414C376.937 95.5056 378.112 94.3974 379.027 93.0861C379.941 91.7749 380.575 90.2889 380.889 88.7213C381.337 87.1849 381.46 85.5718 381.25 83.9852C381.039 82.3986 380.5 80.8734 379.666 79.5071C378.833 78.1408 377.723 76.9635 376.409 76.0505C375.094 75.1374 373.604 74.5088 372.032 74.2047V74.1435Z" fill="#9ABBE6"/>
<path fill-rule="evenodd" clip-rule="evenodd" d="M250.868 110.35L264.329 111.972C265.14 106.083 268.046 103.528 272.865 104.109C277.194 104.629 279.519 106.817 278.984 110.947C277.836 120.385 265.645 119.804 263.809 134.963L276.888 136.493C278.28 124.974 293.714 124.836 295.458 109.983C296.774 98.9697 289.339 91.7955 276.184 90.2047C262.127 88.5067 252.658 95.8492 250.822 110.305L250.868 110.35ZM269.224 143.193C268.111 143.009 266.972 143.06 265.88 143.343C264.787 143.626 263.767 144.135 262.883 144.837C262 145.539 261.273 146.418 260.75 147.418C260.227 148.418 259.92 149.516 259.847 150.642C259.659 152.304 259.967 153.984 260.733 155.47C261.499 156.957 262.688 158.183 264.151 158.994C265.614 159.805 267.284 160.164 268.95 160.026C270.617 159.888 272.205 159.259 273.514 158.219C274.824 157.179 275.795 155.774 276.307 154.182C276.818 152.589 276.846 150.881 276.387 149.273C275.927 147.665 275.002 146.229 273.727 145.147C272.452 144.065 270.885 143.385 269.224 143.193Z" fill="#9ABBE6"/>
<path fill-rule="evenodd" clip-rule="evenodd" d="M120.539 36.3606L133.831 33.1023C132.485 27.259 134.321 23.8325 139.063 22.67C143.331 21.6145 146.314 22.8382 147.308 26.9225C149.587 36.2229 137.885 40.0165 141.556 54.9461L154.497 51.7797C151.713 40.4448 166.169 34.8309 162.574 20.1919C159.912 9.34653 150.337 5.21641 137.38 8.39813C123.521 11.8093 117.204 22.1652 120.554 36.3606H120.539ZM149.602 60.8353C148.494 61.0663 147.446 61.526 146.526 62.185C145.605 62.8439 144.832 63.6877 144.257 64.6623C143.681 65.637 143.315 66.7211 143.181 67.8453C143.048 68.9695 143.151 70.1091 143.484 71.1912C143.715 72.316 144.171 73.3826 144.824 74.3271C145.477 75.2716 146.314 76.0747 147.284 76.6882C148.255 77.3017 149.34 77.713 150.473 77.8975C151.606 78.082 152.765 78.0359 153.88 77.762C154.996 77.4881 156.044 76.9921 156.963 76.3035C157.882 75.6149 158.652 74.7479 159.228 73.7545C159.805 72.7611 160.174 71.6618 160.315 70.5222C160.457 69.3826 160.366 68.2262 160.05 67.1223C159.836 65.9868 159.385 64.9092 158.726 63.9599C158.067 63.0107 157.216 62.2111 156.227 61.6134C155.238 61.0157 154.134 60.6334 152.987 60.4914C151.84 60.3494 150.677 60.451 149.572 60.7894L149.602 60.8353Z" fill="#9ABBE6"/>
</svg>
