<svg
            width="20"
            height="20"
            viewBox="0 0 20 20"
            class="side-menu-icon"
            fill="none"
            xmlns="http://www.w3.org/2000/svg"
          >
            <g clip-path="url(#clip0_1181_1453)">
              <path
                d="M5.83464 2.4987H3.33464V4.9987H1.66797V0.832031H5.83464V2.4987ZM18.3346 4.9987V0.832031H14.168V2.4987H16.668V4.9987H18.3346ZM5.83464 17.4987H3.33464V14.9987H1.66797V19.1654H5.83464V17.4987ZM16.668 14.9987V17.4987H14.168V19.1654H18.3346V14.9987H16.668ZM15.8346 14.9987C15.8346 15.9154 15.0846 16.6654 14.168 16.6654H5.83464C4.91797 16.6654 4.16797 15.9154 4.16797 14.9987V4.9987C4.16797 4.08203 4.91797 3.33203 5.83464 3.33203H14.168C15.0846 3.33203 15.8346 4.08203 15.8346 4.9987V14.9987ZM12.5013 6.66536H7.5013V8.33203H12.5013V6.66536ZM12.5013 9.16537H7.5013V10.832H12.5013V9.16537ZM12.5013 11.6654H7.5013V13.332H12.5013V11.6654Z"
                fill="white"
              />
            </g>
            <defs>
              <clipPath id="clip0_1181_1453">
                <rect width="20" height="20" fill="white" />
              </clipPath>
            </defs>
          </svg>