<svg width="207" height="36" viewBox="0 0 207 36" fill="none" xmlns="http://www.w3.org/2000/svg">
<rect width="36" height="36" rx="18" fill="#45197C"/>
<path d="M7.6029 17.4916V25.0335H9.9867V17.3067C9.9867 14.3886 11.0964 13.4227 12.7199 13.4227C14.3638 13.4227 15.4941 14.3886 15.4941 17.3067V25.0335H17.7957V17.4916C17.7957 13.0734 15.8229 11.3472 12.7199 11.3472C9.59625 11.3472 7.6029 13.0734 7.6029 17.4916Z" fill="white"/>
<rect width="12" height="2.25" transform="translate(17.25 16.5)" fill="white"/>
<rect width="13.5" height="2.25" transform="matrix(0 1 -1 0 24.75 11.25)" fill="white"/>
<g clip-path="url(#clip0_2680_2641)">
<path d="M57.8364 9.17969V28.375H53.8813L46.1689 15.5078V28.375H42.2139V9.17969H46.1689L53.8945 22.0601V9.17969H57.8364ZM67.6055 28.6387C66.498 28.6387 65.5049 28.4629 64.626 28.1113C63.7471 27.751 63 27.2544 62.3848 26.6216C61.7783 25.9888 61.3125 25.2549 60.9873 24.4199C60.6621 23.5762 60.4995 22.6797 60.4995 21.7305V21.2031C60.4995 20.1221 60.6533 19.1333 60.9609 18.2368C61.2686 17.3403 61.708 16.5625 62.2793 15.9033C62.8594 15.2441 63.5625 14.7388 64.3887 14.3872C65.2148 14.0269 66.1465 13.8467 67.1836 13.8467C68.1943 13.8467 69.0908 14.0137 69.873 14.3477C70.6553 14.6816 71.3101 15.1562 71.8374 15.7715C72.3735 16.3867 72.7778 17.125 73.0503 17.9863C73.3228 18.8389 73.459 19.7881 73.459 20.834V22.416H62.1211V19.8848H69.728V19.5947C69.728 19.0674 69.6313 18.5972 69.438 18.1841C69.2534 17.7622 68.9722 17.4282 68.5942 17.1821C68.2163 16.936 67.7329 16.813 67.144 16.813C66.6431 16.813 66.2124 16.9229 65.8521 17.1426C65.4917 17.3623 65.1973 17.6699 64.9688 18.0654C64.749 18.4609 64.582 18.9268 64.4678 19.4629C64.3623 19.9902 64.3096 20.5703 64.3096 21.2031V21.7305C64.3096 22.3018 64.3887 22.8291 64.5469 23.3125C64.7139 23.7959 64.9468 24.2134 65.2456 24.5649C65.5532 24.9165 65.9224 25.189 66.353 25.3823C66.7925 25.5757 67.2891 25.6724 67.8428 25.6724C68.5283 25.6724 69.1655 25.5405 69.7544 25.2769C70.3521 25.0044 70.8662 24.5957 71.2969 24.0508L73.1426 26.0547C72.8438 26.4854 72.4351 26.8984 71.9165 27.2939C71.4067 27.6895 70.7915 28.0146 70.0708 28.2695C69.3501 28.5156 68.5283 28.6387 67.6055 28.6387ZM81.5142 25.6724C81.98 25.6724 82.3931 25.5845 82.7534 25.4087C83.1138 25.2241 83.395 24.9692 83.5972 24.644C83.8081 24.3101 83.918 23.9189 83.9268 23.4707H87.4995C87.4907 24.4727 87.2227 25.3647 86.6953 26.147C86.168 26.9204 85.4604 27.5312 84.5728 27.9795C83.6851 28.4189 82.6919 28.6387 81.5933 28.6387C80.4858 28.6387 79.519 28.4541 78.6929 28.085C77.8755 27.7158 77.1943 27.2061 76.6494 26.5557C76.1045 25.8965 75.6958 25.1318 75.4233 24.2617C75.1509 23.3828 75.0146 22.4424 75.0146 21.4404V21.0581C75.0146 20.0474 75.1509 19.1069 75.4233 18.2368C75.6958 17.3579 76.1045 16.5933 76.6494 15.9429C77.1943 15.2837 77.8755 14.7695 78.6929 14.4004C79.5103 14.0312 80.4683 13.8467 81.5669 13.8467C82.7358 13.8467 83.7598 14.0708 84.6387 14.519C85.5264 14.9673 86.2207 15.6089 86.7217 16.4438C87.2314 17.27 87.4907 18.25 87.4995 19.3838H83.9268C83.918 18.9092 83.8169 18.4785 83.6235 18.0918C83.439 17.7051 83.1665 17.3975 82.8062 17.1689C82.4546 16.9316 82.0195 16.813 81.501 16.813C80.9473 16.813 80.4946 16.9316 80.1431 17.1689C79.7915 17.3975 79.519 17.7139 79.3257 18.1182C79.1323 18.5137 78.9961 18.9663 78.917 19.4761C78.8467 19.9771 78.8115 20.5044 78.8115 21.0581V21.4404C78.8115 21.9941 78.8467 22.5259 78.917 23.0356C78.9873 23.5454 79.1191 23.998 79.3125 24.3936C79.5146 24.7891 79.7915 25.1011 80.1431 25.3296C80.4946 25.5581 80.9517 25.6724 81.5142 25.6724ZM96.6885 14.1104V16.7998H88.3828V14.1104H96.6885ZM90.4395 10.5903H94.2363V24.0771C94.2363 24.4902 94.2891 24.8066 94.3945 25.0264C94.5088 25.2461 94.6758 25.3999 94.8955 25.4878C95.1152 25.5669 95.3921 25.6064 95.7261 25.6064C95.9634 25.6064 96.1743 25.5977 96.3589 25.5801C96.5522 25.5537 96.7148 25.5273 96.8467 25.501L96.8599 28.2959C96.5347 28.4014 96.1831 28.4849 95.8052 28.5464C95.4272 28.6079 95.0098 28.6387 94.5527 28.6387C93.7178 28.6387 92.9883 28.5024 92.3643 28.23C91.749 27.9487 91.2744 27.5005 90.9404 26.8853C90.6064 26.27 90.4395 25.4614 90.4395 24.4595V10.5903ZM106.55 25.1582V18.8037C106.55 18.3467 106.475 17.9556 106.326 17.6304C106.176 17.2964 105.943 17.0371 105.627 16.8525C105.319 16.668 104.919 16.5757 104.427 16.5757C104.005 16.5757 103.641 16.6504 103.333 16.7998C103.025 16.9404 102.788 17.147 102.621 17.4194C102.454 17.6831 102.371 17.9951 102.371 18.3555H98.5737C98.5737 17.749 98.7144 17.1733 98.9956 16.6284C99.2769 16.0835 99.6855 15.6045 100.222 15.1914C100.758 14.7695 101.395 14.4399 102.133 14.2026C102.88 13.9653 103.715 13.8467 104.638 13.8467C105.746 13.8467 106.73 14.0312 107.591 14.4004C108.453 14.7695 109.129 15.3232 109.622 16.0615C110.123 16.7998 110.373 17.7227 110.373 18.8301V24.9341C110.373 25.7163 110.421 26.3579 110.518 26.8589C110.615 27.3511 110.755 27.7817 110.94 28.1509V28.375H107.104C106.919 27.9883 106.778 27.5049 106.682 26.9248C106.594 26.3359 106.55 25.7471 106.55 25.1582ZM107.051 19.687L107.077 21.8359H104.955C104.454 21.8359 104.019 21.8931 103.649 22.0073C103.28 22.1216 102.977 22.2842 102.74 22.4951C102.502 22.6973 102.327 22.9346 102.212 23.207C102.107 23.4795 102.054 23.7783 102.054 24.1035C102.054 24.4287 102.129 24.7231 102.278 24.9868C102.428 25.2417 102.643 25.4438 102.924 25.5933C103.206 25.7339 103.535 25.8042 103.913 25.8042C104.484 25.8042 104.981 25.6899 105.403 25.4614C105.825 25.2329 106.15 24.9517 106.378 24.6177C106.616 24.2837 106.739 23.9673 106.748 23.6685L107.75 25.2769C107.609 25.6372 107.416 26.0107 107.169 26.3975C106.932 26.7842 106.629 27.1489 106.26 27.4917C105.891 27.8257 105.447 28.1025 104.928 28.3223C104.41 28.5332 103.794 28.6387 103.083 28.6387C102.177 28.6387 101.355 28.4585 100.617 28.0981C99.8877 27.729 99.3076 27.2236 98.877 26.582C98.4551 25.9316 98.2441 25.1934 98.2441 24.3672C98.2441 23.6201 98.3848 22.9565 98.666 22.3765C98.9473 21.7964 99.3604 21.3086 99.9053 20.9131C100.459 20.5088 101.149 20.2056 101.975 20.0034C102.801 19.7925 103.759 19.687 104.849 19.687H107.051ZM117.097 17.2217V28.375H113.3V14.1104H116.873L117.097 17.2217ZM121.395 14.0181L121.329 17.5381C121.144 17.5117 120.92 17.4897 120.656 17.4722C120.401 17.4458 120.168 17.4326 119.958 17.4326C119.421 17.4326 118.956 17.5029 118.56 17.6436C118.173 17.7754 117.848 17.9731 117.584 18.2368C117.33 18.5005 117.136 18.8213 117.004 19.1992C116.881 19.5771 116.811 20.0078 116.793 20.4912L116.029 20.2539C116.029 19.3311 116.121 18.4829 116.306 17.7095C116.49 16.9272 116.758 16.2461 117.11 15.666C117.47 15.0859 117.91 14.6377 118.428 14.3213C118.947 14.0049 119.54 13.8467 120.208 13.8467C120.419 13.8467 120.634 13.8643 120.854 13.8994C121.074 13.9258 121.254 13.9653 121.395 14.0181Z" fill="#45197C"/>
<path d="M143.846 17.7886V19.1729H132.178V17.7886H143.846ZM132.561 9.17969V28.375H130.939V9.17969H132.561ZM145.151 9.17969V28.375H143.529V9.17969H145.151ZM155.197 28.6387C154.265 28.6387 153.408 28.4673 152.626 28.1245C151.853 27.7817 151.176 27.2983 150.596 26.6743C150.024 26.0503 149.581 25.312 149.264 24.4595C148.957 23.5981 148.803 22.6577 148.803 21.6382V21.0713C148.803 19.9727 148.965 18.9795 149.291 18.0918C149.616 17.2041 150.064 16.4438 150.635 15.811C151.207 15.1782 151.857 14.6948 152.586 14.3608C153.325 14.0181 154.098 13.8467 154.907 13.8467C155.812 13.8467 156.616 14.0093 157.319 14.3345C158.022 14.6509 158.611 15.1035 159.086 15.6924C159.569 16.2725 159.934 16.9624 160.18 17.7622C160.426 18.5532 160.549 19.4277 160.549 20.3857V21.3481H149.752V20.0034H158.98V19.8188C158.963 19.019 158.8 18.272 158.493 17.5776C158.194 16.8745 157.746 16.3032 157.148 15.8638C156.55 15.4243 155.803 15.2046 154.907 15.2046C154.239 15.2046 153.624 15.3452 153.061 15.6265C152.507 15.9077 152.028 16.312 151.624 16.8394C151.229 17.3579 150.921 17.9775 150.701 18.6982C150.49 19.4102 150.385 20.2012 150.385 21.0713V21.6382C150.385 22.4292 150.499 23.1675 150.728 23.853C150.965 24.5298 151.299 25.1274 151.729 25.646C152.169 26.1646 152.688 26.5688 153.285 26.8589C153.883 27.1489 154.542 27.2939 155.263 27.2939C156.106 27.2939 156.854 27.1401 157.504 26.8325C158.154 26.5161 158.739 26.0195 159.257 25.3428L160.246 26.1074C159.938 26.5645 159.552 26.9863 159.086 27.373C158.629 27.7598 158.08 28.0674 157.438 28.2959C156.796 28.5244 156.049 28.6387 155.197 28.6387ZM172.335 25.8174V18.4609C172.335 17.7842 172.195 17.1997 171.914 16.7075C171.632 16.2153 171.219 15.8374 170.674 15.5737C170.129 15.3101 169.457 15.1782 168.657 15.1782C167.919 15.1782 167.26 15.3101 166.68 15.5737C166.108 15.8286 165.656 16.1758 165.322 16.6152C164.997 17.0459 164.834 17.5249 164.834 18.0522L163.252 18.0391C163.252 17.5029 163.384 16.9844 163.647 16.4834C163.911 15.9824 164.285 15.5342 164.768 15.1387C165.251 14.7432 165.827 14.4312 166.495 14.2026C167.172 13.9653 167.915 13.8467 168.723 13.8467C169.743 13.8467 170.639 14.0181 171.413 14.3608C172.195 14.7036 172.806 15.2178 173.245 15.9033C173.685 16.5889 173.904 17.4502 173.904 18.4873V25.3823C173.904 25.8745 173.939 26.3843 174.01 26.9116C174.089 27.439 174.199 27.874 174.339 28.2168V28.375H172.665C172.56 28.0586 172.476 27.6631 172.415 27.1885C172.362 26.7051 172.335 26.248 172.335 25.8174ZM172.705 20.0693L172.731 21.2822H169.633C168.824 21.2822 168.099 21.3569 167.458 21.5063C166.825 21.647 166.289 21.8579 165.849 22.1392C165.41 22.4116 165.071 22.7412 164.834 23.1279C164.605 23.5146 164.491 23.9541 164.491 24.4463C164.491 24.9561 164.619 25.4219 164.874 25.8438C165.137 26.2656 165.506 26.604 165.981 26.8589C166.464 27.105 167.036 27.228 167.695 27.228C168.574 27.228 169.347 27.0654 170.015 26.7402C170.692 26.415 171.25 25.9888 171.689 25.4614C172.129 24.9341 172.423 24.3584 172.573 23.7344L173.258 24.644C173.144 25.0835 172.933 25.5361 172.625 26.002C172.327 26.459 171.936 26.8896 171.452 27.2939C170.969 27.6895 170.397 28.0146 169.738 28.2695C169.088 28.5156 168.35 28.6387 167.523 28.6387C166.592 28.6387 165.779 28.4629 165.084 28.1113C164.399 27.7598 163.863 27.2808 163.476 26.6743C163.098 26.0591 162.909 25.3647 162.909 24.5913C162.909 23.8882 163.059 23.2598 163.357 22.7061C163.656 22.1436 164.087 21.6689 164.649 21.2822C165.221 20.8867 165.906 20.5879 166.706 20.3857C167.515 20.1748 168.42 20.0693 169.422 20.0693H172.705ZM179.89 8.125V28.375H178.321V8.125H179.89ZM189.593 14.1104V15.4023H182.447V14.1104H189.593ZM185.071 10.4453H186.64V24.9077C186.64 25.5669 186.728 26.0635 186.903 26.3975C187.079 26.7314 187.308 26.9556 187.589 27.0698C187.87 27.1841 188.173 27.2412 188.499 27.2412C188.736 27.2412 188.964 27.228 189.184 27.2017C189.404 27.1665 189.602 27.1313 189.777 27.0962L189.843 28.4277C189.65 28.4893 189.399 28.5376 189.092 28.5728C188.784 28.6167 188.477 28.6387 188.169 28.6387C187.562 28.6387 187.026 28.5288 186.561 28.3091C186.095 28.0806 185.73 27.6938 185.466 27.1489C185.203 26.5952 185.071 25.8438 185.071 24.8945V10.4453ZM194.471 8.125V28.375H192.902V8.125H194.471ZM194.115 20.3594L193.416 19.9639C193.469 19.1201 193.64 18.3291 193.93 17.5908C194.22 16.8525 194.611 16.2021 195.104 15.6396C195.604 15.0771 196.189 14.6377 196.857 14.3213C197.534 14.0049 198.281 13.8467 199.098 13.8467C199.81 13.8467 200.447 13.9434 201.01 14.1367C201.572 14.3301 202.051 14.6377 202.447 15.0596C202.842 15.4814 203.141 16.022 203.343 16.6812C203.554 17.3403 203.66 18.1445 203.66 19.0938V28.375H202.078V19.0806C202.078 18.0962 201.941 17.3271 201.669 16.7734C201.396 16.2109 201.01 15.811 200.509 15.5737C200.008 15.3364 199.415 15.2178 198.729 15.2178C197.973 15.2178 197.31 15.3848 196.738 15.7188C196.176 16.0439 195.701 16.4702 195.314 16.9976C194.937 17.5161 194.646 18.0742 194.444 18.6719C194.242 19.2607 194.132 19.8232 194.115 20.3594Z" fill="#45197C"/>
</g>
<path d="M125.162 9.74023L125.109 11.5332H126.964V13.335L125.074 13.2998L125.03 15.1543H123.36V13.2646L121.541 13.2119V11.5332H123.36V9.74023H125.162Z" fill="#45197C"/>
<defs>
<clipPath id="clip0_2680_2641">
<rect width="166" height="32" fill="white" transform="translate(40.5 3.375)"/>
</clipPath>
</defs>
</svg>
