<?xml version="1.0" encoding="UTF-8"?>
<svg xmlns="http://www.w3.org/2000/svg" xmlns:xlink="http://www.w3.org/1999/xlink" width="20px" height="20px" viewBox="0 0 20 20" version="1.1">
<g id="surface1">
<path style=" stroke:none;fill-rule:nonzero;fill:rgb(0%,0%,0%);fill-opacity:1;" d="M 9.0625 0.0390625 C 6.71875 0.28125 4.609375 1.285156 2.949219 2.949219 C 1.394531 4.5 0.425781 6.425781 0.09375 8.613281 C -0.0078125 9.273438 -0.0078125 10.726562 0.09375 11.386719 C 0.535156 14.28125 2.105469 16.738281 4.570312 18.378906 C 5.070312 18.710938 5.992188 19.175781 6.574219 19.390625 C 7.105469 19.585938 7.886719 19.785156 8.515625 19.890625 C 9.277344 20.011719 10.722656 20.011719 11.484375 19.890625 C 13.628906 19.539062 15.480469 18.605469 16.996094 17.109375 C 18.8125 15.3125 19.851562 13.015625 19.984375 10.480469 L 20.011719 10 L 17.671875 10 L 17.625 10.574219 C 17.539062 11.613281 17.328125 12.375 16.875 13.300781 C 16.464844 14.132812 16.105469 14.644531 15.457031 15.308594 C 14.8125 15.964844 14.148438 16.445312 13.335938 16.839844 C 9.769531 18.578125 5.496094 17.292969 3.441406 13.859375 C 3.003906 13.128906 2.65625 12.183594 2.492188 11.289062 C 2.375 10.644531 2.375 9.355469 2.492188 8.710938 C 2.953125 6.191406 4.597656 4.082031 6.910156 3.046875 C 8.914062 2.148438 11.285156 2.175781 13.261719 3.121094 C 13.632812 3.296875 14.242188 3.660156 14.453125 3.824219 L 14.550781 3.902344 L 14.105469 4.351562 L 13.660156 4.796875 L 13.8125 4.828125 C 13.894531 4.84375 14.828125 5.027344 15.878906 5.234375 C 16.933594 5.445312 17.796875 5.613281 17.800781 5.613281 C 17.800781 5.609375 17.632812 4.742188 17.421875 3.691406 C 17.214844 2.636719 17.03125 1.707031 17.015625 1.625 L 16.988281 1.472656 L 16.230469 2.222656 L 15.917969 1.988281 C 14.597656 1.007812 12.976562 0.335938 11.367188 0.0976562 C 10.847656 0.0234375 9.554688 -0.0117188 9.0625 0.0390625 Z M 9.0625 0.0390625 "/>
<path style=" stroke:none;fill-rule:nonzero;fill:rgb(0%,0%,0%);fill-opacity:1;" d="M 9.453125 4.75 C 8.210938 4.902344 7.164062 5.410156 6.285156 6.285156 C 5.515625 7.050781 5.042969 7.929688 4.816406 9.023438 C 4.722656 9.484375 4.722656 10.515625 4.816406 10.976562 C 5.042969 12.070312 5.515625 12.949219 6.285156 13.714844 C 7.0625 14.492188 7.933594 14.957031 9.023438 15.183594 C 9.4375 15.269531 10.46875 15.277344 10.898438 15.199219 C 11.058594 15.171875 11.402344 15.078125 11.65625 14.996094 C 12.46875 14.730469 13.054688 14.367188 13.695312 13.730469 C 14.492188 12.941406 14.941406 12.109375 15.183594 10.972656 C 15.28125 10.515625 15.28125 9.484375 15.183594 9.027344 C 14.941406 7.890625 14.488281 7.050781 13.695312 6.269531 C 12.917969 5.5 12.03125 5.023438 11.007812 4.824219 C 10.691406 4.761719 9.726562 4.714844 9.453125 4.75 Z M 12.355469 8.828125 C 12.675781 9.152344 12.734375 9.226562 12.699219 9.285156 C 12.679688 9.324219 11.929688 10.085938 11.039062 10.976562 L 9.414062 12.597656 L 8.339844 11.523438 C 7.75 10.933594 7.265625 10.433594 7.265625 10.414062 C 7.265625 10.363281 8.015625 9.609375 8.066406 9.609375 C 8.085938 9.609375 8.398438 9.902344 8.757812 10.261719 L 9.414062 10.917969 L 10.65625 9.675781 C 11.335938 8.996094 11.910156 8.4375 11.933594 8.4375 C 11.957031 8.4375 12.144531 8.613281 12.355469 8.828125 Z M 12.355469 8.828125 "/>
</g>
</svg>
