<svg width="24" height="24" viewBox="0 0 24 24" fill="none" xmlns="http://www.w3.org/2000/svg">
<path d="M0 16.9701C0.065315 16.686 0.114954 16.3986 0.195945 16.121C0.485723 15.0941 1.10072 14.1888 1.94864 13.5411C2.79655 12.8934 3.83166 12.5381 4.89863 12.5287C7.89659 12.5162 10.8945 12.5241 13.8919 12.5287C14.4771 12.5294 15.0566 12.6443 15.5979 12.867C15.5868 13.0668 15.4914 13.1145 15.3112 13.1067C14.2054 13.0577 13.3824 13.5319 12.8292 14.4783C12.5784 14.9068 12.33 15.3368 12.0839 15.7683C11.5261 16.7419 11.5479 17.7031 12.1493 18.6519C12.1839 18.7068 12.2061 18.8139 12.176 18.8583C11.5229 19.8439 11.5288 20.8393 12.1107 21.8498C12.114 21.8556 12.1107 21.8648 12.1107 21.9066H11.8351C8.22643 21.9066 4.61777 21.9007 1.00912 21.9138C0.528399 21.9138 0.192026 21.7635 0 21.3201L0 16.9701Z" fill="black"/>
<path d="M9.87694 0C10.1859 0.065315 10.5 0.114301 10.8038 0.195945C13.1048 0.83342 14.7181 3.04303 14.6018 5.38784C14.4771 7.90312 12.7005 9.94356 10.2754 10.3564C7.4629 10.8351 4.73077 8.93118 4.25854 6.16378C3.76607 3.28012 5.61122 0.603511 8.4472 0.0894816C8.59807 0.0620493 8.7483 0.0300449 8.89918 0.00065315L9.87694 0Z" fill="black"/>
<path d="M13.7377 20.3504C13.822 20.2289 13.8971 20.0637 14.0205 19.9546C14.2576 19.7443 14.53 19.5745 14.7717 19.3668C14.8416 19.2902 14.8823 19.1914 14.8866 19.0879C14.901 18.903 14.852 18.7084 14.8866 18.5307C14.9278 18.3348 14.8585 18.2322 14.7096 18.1297C14.4751 17.9684 14.2524 17.7914 14.0258 17.6163C13.7443 17.3962 13.694 17.1591 13.8703 16.8462C14.1264 16.393 14.3876 15.9416 14.6541 15.4923C14.8357 15.1846 15.0623 15.1121 15.3987 15.2473C15.6933 15.3656 15.982 15.4981 16.2798 15.6066C16.3671 15.6304 16.4602 15.6211 16.5411 15.5804C16.7213 15.4877 16.88 15.3479 17.0636 15.2708C17.2471 15.1938 17.2961 15.0749 17.3105 14.8992C17.334 14.6151 17.3758 14.3323 17.4124 14.0501C17.4529 13.7568 17.6357 13.57 17.9349 13.5635C18.4966 13.5504 19.0585 13.5504 19.6207 13.5635C19.9191 13.57 20.0994 13.7536 20.1432 14.0468C20.1562 14.1272 20.1628 14.2088 20.1745 14.2892C20.2163 14.5785 20.1798 14.9188 20.3241 15.1422C20.4684 15.3656 20.7846 15.4563 21.0334 15.5915C21.108 15.6287 21.194 15.636 21.2738 15.6118C21.5631 15.5034 21.8446 15.3753 22.1307 15.2571C22.4919 15.1082 22.7185 15.1801 22.9145 15.5105C23.1758 15.9525 23.4318 16.3969 23.6826 16.8436C23.8596 17.1565 23.8132 17.3929 23.5311 17.6143C23.2881 17.8057 23.0419 17.9938 22.7904 18.1741C22.739 18.2044 22.6986 18.2503 22.6751 18.3052C22.6516 18.3601 22.6462 18.421 22.6598 18.4791C22.6852 18.679 22.6532 18.8847 22.6702 19.0865C22.6739 19.1901 22.7139 19.2891 22.7832 19.3661C23.0242 19.5718 23.2881 19.7508 23.5376 19.9474C23.8067 20.1603 23.8563 20.4046 23.6885 20.7005C23.4272 21.1607 23.1627 21.6179 22.8949 22.0721C22.7205 22.3667 22.4906 22.4392 22.1673 22.3092C21.8956 22.2001 21.6239 22.0891 21.3587 21.9656C21.2117 21.9003 21.0883 21.8807 20.9596 22.0022C20.8903 22.0719 20.8067 22.1258 20.7147 22.1603C20.3443 22.2791 20.2085 22.5384 20.2111 22.9107C20.2029 23.106 20.1811 23.3005 20.1458 23.4927C20.1033 23.8003 19.9211 23.9845 19.6109 23.9911C19.057 24.0032 18.5029 24.0032 17.9486 23.9911C17.6397 23.9845 17.4548 23.7984 17.4143 23.4914C17.3738 23.1844 17.3366 22.8938 17.3072 22.594C17.3075 22.5295 17.2879 22.4665 17.2511 22.4135C17.2143 22.3606 17.162 22.3203 17.1015 22.2981C16.9491 22.2399 16.8072 22.1571 16.6815 22.0532C16.4927 21.8833 16.319 21.8997 16.11 22.0048C15.8703 22.125 15.6195 22.223 15.3693 22.3203C15.0734 22.4366 14.8363 22.3614 14.677 22.093C14.3974 21.6247 14.1264 21.1512 13.8579 20.677C13.8096 20.5713 13.7695 20.4621 13.7377 20.3504ZM20.8643 18.7828C20.8652 18.3691 20.7432 17.9643 20.5139 17.6199C20.2846 17.2755 19.9582 17.0069 19.5761 16.8482C19.194 16.6894 18.7734 16.6476 18.3675 16.7281C17.9617 16.8086 17.5888 17.0078 17.2963 17.3004C17.0037 17.5929 16.8045 17.9658 16.724 18.3716C16.6435 18.7775 16.6853 19.1981 16.8441 19.5802C17.0028 19.9623 17.2714 20.2887 17.6158 20.518C17.9603 20.7473 18.365 20.8692 18.7787 20.8683C19.3307 20.8647 19.8591 20.6439 20.2495 20.2535C20.6398 19.8632 20.8607 19.3348 20.8643 18.7828Z" fill="black"/>
</svg>
