<svg
            width="20"
            height="20"
            class="side-menu-icon"
            viewBox="0 0 20 20"
            fill="none"
            xmlns="http://www.w3.org/2000/svg"
          >
            <path
              fill-rule="evenodd"
              clip-rule="evenodd"
              d="M2 10.335C2 5.7317 5.7317 2 10.335 2C14.9383 2 18.67 5.7317 18.67 10.335C18.67 14.9383 14.9383 18.67 10.335 18.67C5.7317 18.67 2 14.9383 2 10.335ZM10.3349 5.334C8.49361 5.334 7.00093 6.82668 7.00093 8.668C7.00093 10.5093 8.49361 12.002 10.3349 12.002C12.1762 12.002 13.6689 10.5093 13.6689 8.668C13.6689 6.82668 12.1762 5.334 10.3349 5.334ZM14.5954 13.6668C15.2271 14.0736 15.1962 14.9602 14.621 15.4434C13.462 16.4167 11.9671 17.003 10.3351 17.003C8.71393 17.003 7.22784 16.4245 6.07211 15.4625C5.49179 14.9795 5.46104 14.0884 6.09541 13.679C6.29289 13.5516 6.50795 13.4399 6.74136 13.3437C7.68044 12.9565 8.87988 12.8355 10.335 12.8355C11.7975 12.8355 13.0037 12.9488 13.9452 13.3318C14.1804 13.4275 14.397 13.5391 14.5954 13.6668Z"
              fill="black"
            />
          </svg>