<svg width="24" height="24" viewBox="0 0 24 24" fill="none" xmlns="http://www.w3.org/2000/svg">
<rect width="24" height="24" rx="12" fill="#EEEEEE"/>
<g clip-path="url(#clip0_9876_12921)">
<path d="M14.625 13.5H14.0325L13.8225 13.2975C14.5575 12.4425 15 11.3325 15 10.125C15 7.4325 12.8175 5.25 10.125 5.25C7.4325 5.25 5.25 7.4325 5.25 10.125C5.25 12.8175 7.4325 15 10.125 15C11.3325 15 12.4425 14.5575 13.2975 13.8225L13.5 14.0325V14.625L17.25 18.3675L18.3675 17.25L14.625 13.5ZM10.125 13.5C8.2575 13.5 6.75 11.9925 6.75 10.125C6.75 8.2575 8.2575 6.75 10.125 6.75C11.9925 6.75 13.5 8.2575 13.5 10.125C13.5 11.9925 11.9925 13.5 10.125 13.5Z" fill="black" fill-opacity="0.8"/>
</g>
<defs>
<clipPath id="clip0_9876_12921">
<rect x="3" y="3" width="18" height="18" fill="white"/>
</clipPath>
</defs>
</svg>
