<svg width="32" height="32" viewBox="0 0 32 32" fill="none" xmlns="http://www.w3.org/2000/svg">
<g id="purple-service 2" clip-path="url(#clip0_5489_11223)">
<path id="Vector" d="M32 16C32 7.16344 24.8366 0 16 0C7.16344 0 0 7.16344 0 16C0 24.8366 7.16344 32 16 32C24.8366 32 32 24.8366 32 16Z" fill="#45197C" fill-opacity="0.15"/>
<g id="Specialisations-Icon">
<path id="Vector_2" d="M11.9512 16.972C12.0951 17.7773 12.2404 18.5775 12.3768 19.3795C12.3768 19.4133 12.3697 19.4468 12.3559 19.4776C12.3421 19.5085 12.3219 19.5361 12.2967 19.5586C11.8106 19.9716 11.6001 20.4863 11.766 21.1092C11.932 21.7322 12.3552 22.0936 12.9895 22.1958C13.7395 22.3172 14.4665 21.8259 14.6512 21.082C14.7357 20.7247 14.6836 20.3487 14.5051 20.0278C14.3266 19.7069 14.0347 19.4643 13.6865 19.3477C13.5604 19.3055 13.499 19.2539 13.4765 19.118C13.3621 18.4308 13.236 17.7455 13.1146 17.0597C13.109 17.0269 13.1085 16.9936 13.1001 16.8984C13.2876 17.0077 13.4442 17.0798 13.5787 17.183C14.3001 17.7338 15.0163 18.292 15.7349 18.848C15.8043 18.9019 15.8756 18.9548 15.9567 19.0181L17.0038 18.1397C17.3854 17.8191 17.7627 17.4942 18.1481 17.1788C18.4021 16.9711 18.5465 16.927 18.764 16.9622C18.6827 17.4216 18.6017 17.8809 18.5207 18.3403C18.4738 18.6056 18.4199 18.8695 18.3801 19.1372C18.3623 19.2558 18.3112 19.3088 18.1954 19.3481C17.6882 19.5202 17.3545 19.8637 17.2162 20.3873C17.1262 20.7272 17.2799 21.0281 17.5837 21.12C17.8874 21.2119 18.1898 21.0366 18.2971 20.6958C18.3674 20.4727 18.524 20.3639 18.727 20.3967C18.9299 20.4295 19.0317 20.5842 19.0209 20.8261C19.0054 21.1795 19.1985 21.4252 19.5154 21.4542C19.8435 21.4847 20.1004 21.277 20.1393 20.9283C20.2007 20.3723 20.0085 19.9148 19.5642 19.5722C19.491 19.5155 19.4582 19.47 19.4765 19.3716C19.6237 18.5719 19.7643 17.7708 19.9096 16.9556C20.2444 16.9519 20.5767 17.0129 20.8884 17.1352C21.4331 17.3372 21.9032 17.7007 22.2358 18.177C22.5685 18.6534 22.7478 19.2199 22.7498 19.8009C22.754 20.9494 22.7498 22.0978 22.7498 23.2467C22.7498 23.6522 22.5243 23.8763 22.117 23.8763H9.88259C9.47525 23.8758 9.24978 23.6503 9.24978 23.2472C9.24978 22.0866 9.24368 20.9264 9.24978 19.7658C9.25915 18.3033 10.4371 17.0602 11.8973 16.9594C11.9157 16.9616 11.9337 16.9658 11.9512 16.972Z" fill="#45197C"/>
<path id="Vector_3" d="M19.8768 12.1781C19.8768 14.3906 18.0608 16.2094 15.8497 16.2094C13.6386 16.2094 11.8279 14.3878 11.8213 12.1566C11.8175 9.93751 13.6419 8.11548 15.8619 8.12111C18.0819 8.12673 19.8768 9.93798 19.8768 12.1781Z" fill="#45197C"/>
<path id="Vector_4" d="M13.1968 20.3907C13.3993 20.3907 13.5671 20.5463 13.5662 20.7343C13.5616 20.8286 13.5216 20.9178 13.4542 20.9839C13.3868 21.05 13.2969 21.0883 13.2024 21.091C13.0084 21.091 12.834 20.926 12.8345 20.7413C12.8352 20.6945 12.8452 20.6483 12.8638 20.6053C12.8824 20.5623 12.9093 20.5234 12.9429 20.4909C12.9766 20.4583 13.0163 20.4327 13.0599 20.4155C13.1035 20.3983 13.15 20.3899 13.1968 20.3907Z" fill="#45197C"/>
</g>
</g>
<defs>
<clipPath id="clip0_5489_11223">
<rect width="32" height="32" fill="white"/>
</clipPath>
</defs>
</svg>
