<svg width="20" height="20" viewBox="0 0 20 20" fill="none" xmlns="http://www.w3.org/2000/svg">
<g clip-path="url(#clip0_857_5857)">
<path d="M1.66634 14.1663H18.333V15.833H1.66634V14.1663ZM2.62467 10.7913L3.33301 9.55801L4.04134 10.7913L5.12467 10.1663L4.41634 8.93301H5.83301V7.68301H4.41634L5.12467 6.45801L4.04134 5.83301L3.33301 7.05801L2.62467 5.83301L1.54134 6.45801L2.24967 7.68301H0.833008V8.93301H2.24967L1.54134 10.1663L2.62467 10.7913ZM8.20801 10.1663L9.29134 10.7913L9.99967 9.55801L10.708 10.7913L11.7913 10.1663L11.083 8.93301H12.4997V7.68301H11.083L11.7913 6.45801L10.708 5.83301L9.99967 7.05801L9.29134 5.83301L8.20801 6.45801L8.91634 7.68301H7.49967V8.93301H8.91634L8.20801 10.1663ZM19.1663 7.68301H17.7497L18.458 6.45801L17.3747 5.83301L16.6663 7.05801L15.958 5.83301L14.8747 6.45801L15.583 7.68301H14.1663V8.93301H15.583L14.8747 10.1663L15.958 10.7913L16.6663 9.55801L17.3747 10.7913L18.458 10.1663L17.7497 8.93301H19.1663V7.68301Z" fill="black"/>
</g>
<defs>
<clipPath id="clip0_857_5857">
<rect width="20" height="20" fill="white"/>
</clipPath>
</defs>
</svg>
