<svg width="20" height="20" viewBox="0 0 20 20" fill="none" xmlns="http://www.w3.org/2000/svg">
<g clip-path="url(#clip0_857_5865)">
<path d="M5.00033 15.8333C5.00033 16.75 5.75033 17.5 6.66699 17.5H13.3337C14.2503 17.5 15.0003 16.75 15.0003 15.8333V5.83333H5.00033V15.8333ZM7.05033 9.9L8.22533 8.725L10.0003 10.4917L11.767 8.725L12.942 9.9L11.1753 11.6667L12.942 13.4333L11.767 14.6083L10.0003 12.8417L8.23366 14.6083L7.05866 13.4333L8.82533 11.6667L7.05033 9.9ZM12.917 3.33333L12.0837 2.5H7.91699L7.08366 3.33333H4.16699V5H15.8337V3.33333H12.917Z" fill="black"/>
</g>
<defs>
<clipPath id="clip0_857_5865">
<rect width="20" height="20" fill="white"/>
</clipPath>
</defs>
</svg>
