<svg width="382" height="380" viewBox="0 0 382 380" fill="none" xmlns="http://www.w3.org/2000/svg">
<path d="M337.318 327.192C329.673 335.241 322.439 340.431 316.723 344.533C249.539 392.738 170.041 378.686 153.145 375.256C128.195 370.188 79.9692 360.393 45.1013 319.39C-7.64742 257.356 0.56596 159.624 41.4836 95.1096C48.9686 83.3084 88.5027 17.8116 168.855 7.30717C217.485 0.95079 274.17 13.7721 315.218 48.1638C401.391 120.356 395.257 266.197 337.318 327.192Z" fill="url(#paint0_linear_1165_3834)"/>
<path d="M24.1289 2.68301C23.513 0.783961 25.7281 -0.777326 27.3274 0.41636C43.5765 12.535 83.5432 49.8106 82.9532 122.958C82.2139 214.728 104.825 245.621 130.587 263.101C130.587 263.101 97.2761 257.29 73.1853 226.079C14.0381 149.448 35.0674 36.4453 24.1289 2.68301Z" fill="#91B3FA"/>
<path d="M38.5168 29.6859C41.501 39.5542 44.2845 49.4767 46.7031 59.486C49.1745 69.4822 51.3377 79.5408 53.1924 89.6618C55.0046 99.7865 56.6256 109.944 57.8125 120.155C59.0455 130.361 59.839 140.608 60.6 150.898C61.4139 161.179 62.183 171.541 64.0102 181.855C65.8251 192.149 68.8934 202.393 73.7523 211.771C74.965 214.108 76.2251 216.431 77.6087 218.659C78.953 220.912 80.3962 223.107 81.8775 225.274C84.8643 229.606 88.1514 233.722 91.7145 237.594C98.8753 245.313 107.207 251.937 116.167 257.325C116.617 257.604 117.159 257.693 117.675 257.572C118.19 257.452 118.637 257.131 118.916 256.682C119.195 256.232 119.284 255.69 119.163 255.174C119.043 254.659 118.722 254.213 118.273 253.933C116.13 252.561 114.005 251.166 111.952 249.681C110.911 248.955 109.907 248.189 108.887 247.433C107.898 246.644 106.878 245.892 105.914 245.073C102.006 241.867 98.3339 238.383 94.9266 234.649C88.0887 227.219 82.3265 218.731 77.6738 209.779C75.3948 205.277 73.4587 200.61 71.8817 195.817C70.3207 190.997 69.0836 186.079 68.1786 181.094C66.327 171.092 65.4846 160.842 64.5934 150.574C63.7023 140.305 62.708 129.98 61.3054 119.717C60.6181 114.584 59.8386 109.465 58.9668 104.36C58.5463 101.806 58.0757 99.2615 57.6104 96.7154C57.1203 94.1743 56.6143 91.6364 56.0925 89.1016C53.9746 78.9734 51.547 68.9188 48.8097 58.938C46.0235 48.9802 42.9769 39.0997 39.5464 29.3522C39.5023 29.2175 39.4065 29.1058 39.2801 29.0417C39.1537 28.9776 39.0069 28.9663 38.8722 29.0104C38.7375 29.0544 38.6258 29.1502 38.5617 29.2767C38.4976 29.4031 38.4863 29.5498 38.5304 29.6845L38.5168 29.6859Z" fill="#BDD0FB"/>
<path d="M100.838 324.358C100.2 327.98 96.0713 329.773 92.9623 327.808C75.8126 316.956 30.0944 281.901 21.8186 212.335C14.8287 153.591 5.45694 122.401 0.221 108.536C-0.885873 105.604 2.39134 102.963 5.02423 104.664C34.062 123.438 123.955 193.107 100.838 324.358Z" fill="#7D97F4"/>
<path d="M95.9376 325.244C95.8704 325.308 95.7968 325.366 95.7179 325.415C95.5588 325.516 95.3814 325.585 95.1957 325.618C95.01 325.65 94.8197 325.646 94.6356 325.605C94.4516 325.564 94.2774 325.487 94.1231 325.379C93.9687 325.271 93.8372 325.133 93.7361 324.974C93.2545 324.214 45.3633 248.169 31.956 166.926C31.9045 166.555 32 166.178 32.2221 165.877C32.4441 165.575 32.7752 165.372 33.1448 165.311C33.5144 165.25 33.8932 165.336 34.2004 165.55C34.5077 165.764 34.7191 166.09 34.7897 166.458C48.1006 247.109 95.6812 322.679 96.1601 323.433C96.3385 323.714 96.4138 324.048 96.3733 324.378C96.3327 324.709 96.1787 325.015 95.9376 325.244Z" fill="#91B3FA"/>
<path d="M92.2581 7.59588C87.7837 7.98881 83.6182 10.0416 80.5809 13.3506C77.5436 16.6595 75.8542 20.9852 75.8449 25.4768C75.6835 82.398 75.4177 278.728 79.1276 348.225C79.317 351.77 80.849 355.111 83.4123 357.567C85.9756 360.024 89.3781 361.412 92.9282 361.451C129.391 361.843 234.272 362.564 293.82 358.755C299.793 358.379 305.398 355.74 309.493 351.375C313.587 347.01 315.863 341.248 315.857 335.263C315.785 275.523 314.83 107.513 306.647 30.7154C306.172 26.2578 304.152 22.107 300.937 18.9831C297.722 15.8591 293.515 13.9593 289.045 13.6131C249.278 10.5096 143.673 3.11956 92.2581 7.59588Z" fill="#45197C"/>
<path d="M90.4853 40.3882C89.769 89.0852 87.7303 251.054 91.2896 310.835C91.8105 319.574 98.5983 326.471 106.978 326.764C141.486 327.966 229.972 330.291 280.394 324.746C289.473 323.746 296.412 315.876 296.654 306.347C297.915 256.658 301.321 105.798 297.862 46.6849C297.31 37.2548 290.106 29.7291 281.075 29.1214C243.713 26.6038 147.77 20.7982 104.894 24.3738C96.8511 25.0385 90.6114 31.9578 90.4853 40.3882Z" fill="url(#paint1_linear_1165_3834)"/>
<path d="M173.858 16.0561C173.871 16.7024 174.131 17.3191 174.585 17.7791C175.04 18.2392 175.653 18.5075 176.299 18.5289C182.938 18.731 201.642 19.3034 210.003 19.6046C210.388 19.6192 210.771 19.5456 211.123 19.3896C211.475 19.2336 211.787 18.9993 212.034 18.7044C212.282 18.4096 212.459 18.0621 212.551 17.6885C212.644 17.3148 212.65 16.9249 212.57 16.5485C212.541 16.4983 212.327 14.431 210.216 14.2845C204.56 13.8912 187.499 12.8304 176.225 13.4815C173.909 13.609 173.783 16.2419 173.858 16.0561Z" fill="white"/>
<path opacity="0.8" d="M146.793 149.385C171.788 149.385 192.05 129.123 192.05 104.128C192.05 79.1333 171.788 58.8711 146.793 58.8711C121.798 58.8711 101.536 79.1333 101.536 104.128C101.536 129.123 121.798 149.385 146.793 149.385Z" fill="#45197C"/>
<mask id="mask0_1165_3834" style="mask-type:luminance" maskUnits="userSpaceOnUse" x="106" y="63" width="82" height="82">
<path d="M146.792 144.434C169.051 144.434 187.096 126.389 187.096 104.13C187.096 81.8702 169.051 63.8252 146.792 63.8252C124.532 63.8252 106.487 81.8702 106.487 104.13C106.487 126.389 124.532 144.434 146.792 144.434Z" fill="white"/>
</mask>
<g mask="url(#mask0_1165_3834)">
<path d="M164.022 98.4483C166.568 89.0317 160.999 79.334 151.582 76.7879C142.165 74.2418 132.468 79.8115 129.922 89.2281C127.376 98.6447 132.945 108.342 142.362 110.888C151.778 113.434 161.476 107.865 164.022 98.4483Z" fill="white"/>
<path d="M120.138 146.876H176.411C179.86 146.876 181.928 142.418 180.073 139.016C175.293 130.263 165.288 117.405 147.973 117.991C131.28 118.551 121.386 130.165 116.413 138.495C114.299 142.022 116.453 146.876 120.138 146.876Z" fill="white"/>
</g>
<path d="M215.245 281.791H158.953C157.106 281.791 155.608 283.289 155.608 285.136V301.146C155.608 302.994 157.106 304.491 158.953 304.491H215.245C217.093 304.491 218.59 302.994 218.59 301.146V285.136C218.59 283.289 217.093 281.791 215.245 281.791Z" fill="#45197C"/>
<g opacity="0.8">
<g opacity="0.8">
<path d="M257.384 187.093H130.388C129.375 187.093 128.554 187.914 128.554 188.927V197.758C128.554 198.771 129.375 199.592 130.388 199.592H257.384C258.397 199.592 259.218 198.771 259.218 197.758V188.927C259.218 187.914 258.397 187.093 257.384 187.093Z" fill="white"/>
<path d="M111.793 200.881C115.978 200.881 119.37 197.489 119.37 193.304C119.37 189.119 115.978 185.727 111.793 185.727C107.608 185.727 104.216 189.119 104.216 193.304C104.216 197.489 107.608 200.881 111.793 200.881Z" fill="white"/>
</g>
<g opacity="0.8">
<path d="M257.381 210.548H130.385C129.372 210.548 128.551 211.369 128.551 212.382V221.212C128.551 222.225 129.372 223.046 130.385 223.046H257.381C258.394 223.046 259.215 222.225 259.215 221.212V212.382C259.215 211.369 258.394 210.548 257.381 210.548Z" fill="white"/>
<path d="M119.274 217.983C119.945 213.852 117.14 209.96 113.009 209.29C108.878 208.619 104.986 211.424 104.316 215.555C103.645 219.686 106.45 223.578 110.581 224.248C114.712 224.919 118.604 222.114 119.274 217.983Z" fill="white"/>
</g>
<g opacity="0.8">
<path d="M257.384 234.002H130.388C129.375 234.002 128.554 234.823 128.554 235.836V244.666C128.554 245.679 129.375 246.5 130.388 246.5H257.384C258.397 246.5 259.218 245.679 259.218 244.666V235.836C259.218 234.823 258.397 234.002 257.384 234.002Z" fill="white"/>
<path d="M111.793 247.791C115.978 247.791 119.37 244.398 119.37 240.213C119.37 236.029 115.978 232.636 111.793 232.636C107.608 232.636 104.216 236.029 104.216 240.213C104.216 244.398 107.608 247.791 111.793 247.791Z" fill="white"/>
</g>
<path opacity="0.8" d="M257.382 257.455H130.386C129.373 257.455 128.552 258.276 128.552 259.289V268.12C128.552 269.132 129.373 269.954 130.386 269.954H257.382C258.395 269.954 259.216 269.132 259.216 268.12V259.289C259.216 258.276 258.395 257.455 257.382 257.455Z" fill="white"/>
<path opacity="0.8" d="M111.793 271.245C115.978 271.245 119.37 267.852 119.37 263.668C119.37 259.483 115.978 256.09 111.793 256.09C107.608 256.09 104.216 259.483 104.216 263.668C104.216 267.852 107.608 271.245 111.793 271.245Z" fill="white"/>
</g>
<path opacity="0.8" d="M205.751 162.664H106.139C105.24 162.664 104.512 163.393 104.512 164.292V173.535C104.512 174.434 105.24 175.162 106.139 175.162H205.751C206.65 175.162 207.379 174.434 207.379 173.535V164.292C207.379 163.393 206.65 162.664 205.751 162.664Z" fill="white"/>
<path d="M320.76 49.1435C320.626 47.1121 319.952 45.1533 318.808 43.4699C317.663 41.7864 316.089 40.4394 314.249 39.5683L265.758 16.5355C264.224 15.8074 262.548 15.4297 260.85 15.4297C259.152 15.4297 257.475 15.8074 255.941 16.5355L207.448 39.5683C205.608 40.4394 204.034 41.7864 202.889 43.4699C201.745 45.1533 201.071 47.1121 200.937 49.1435C196.389 119.457 241.472 145.075 256.251 151.547C257.7 152.182 259.265 152.509 260.847 152.509C262.429 152.509 263.994 152.182 265.444 151.547C280.225 145.075 325.308 119.457 320.76 49.1435Z" fill="#A87DDE"/>
<path d="M246.181 26.2404C246.024 26.2411 245.871 26.1883 245.748 26.0905C245.625 25.9927 245.54 25.8559 245.505 25.7027C245.471 25.5495 245.489 25.3892 245.559 25.2481C245.628 25.1071 245.743 24.994 245.885 24.9273L257.343 19.4852C257.507 19.4125 257.694 19.4068 257.862 19.4694C258.031 19.532 258.168 19.6578 258.246 19.8202C258.323 19.9826 258.334 20.1687 258.276 20.3389C258.218 20.5092 258.096 20.6501 257.936 20.7318L246.476 26.1793C246.384 26.2213 246.283 26.2421 246.181 26.2404Z" fill="#45197C"/>
<path d="M204.648 64.191C204.47 64.1911 204.298 64.1217 204.169 63.9974C204.041 63.8731 203.965 63.7037 203.959 63.525C203.806 58.951 203.886 54.1831 204.198 49.3527C204.295 47.9024 204.776 46.5042 205.594 45.3024C206.411 44.1006 207.535 43.1387 208.848 42.5161L241.471 27.0226C241.553 26.9807 241.643 26.9557 241.735 26.9491C241.827 26.9424 241.919 26.9543 242.007 26.984C242.094 27.0137 242.175 27.0606 242.244 27.122C242.313 27.1833 242.369 27.2579 242.408 27.3412C242.448 27.4245 242.47 27.515 242.474 27.6072C242.478 27.6994 242.464 27.7914 242.432 27.8779C242.4 27.9644 242.351 28.0436 242.287 28.1109C242.224 28.1781 242.148 28.2319 242.064 28.2692L209.438 43.7627C208.347 44.2796 207.413 45.0785 206.734 46.077C206.054 47.0755 205.654 48.2372 205.574 49.4422C205.264 54.2278 205.184 58.9497 205.336 63.4775C205.342 63.6604 205.276 63.8384 205.151 63.9721C205.026 64.1059 204.853 64.1847 204.67 64.191H204.648Z" fill="#45197C"/>
<path d="M309.033 51.8869C309.007 51.3722 308.841 50.8742 308.555 50.4458C308.268 50.0174 307.871 49.6745 307.405 49.4534L262.068 27.9223C261.687 27.7413 261.27 27.6475 260.847 27.6475C260.425 27.6475 260.008 27.7413 259.627 27.9223L214.292 49.4534C213.827 49.6745 213.43 50.0174 213.143 50.4458C212.856 50.8742 212.691 51.3722 212.665 51.8869C211.324 78.1155 217.382 100.001 230.685 116.962C240.826 129.894 252.69 136.825 259.642 140.058C260.02 140.234 260.431 140.325 260.848 140.325C261.265 140.325 261.677 140.234 262.055 140.058C269.007 136.825 280.87 129.894 291.011 116.962C304.315 100.001 310.373 78.1155 309.033 51.8869Z" fill="#45197C"/>
<path d="M232.061 80.6359C232.951 80.085 233.942 79.7173 234.976 79.5543C236.01 79.3913 237.066 79.4363 238.083 79.6867C239.099 79.9371 240.056 80.3878 240.896 81.0124C241.736 81.6371 242.443 82.4231 242.975 83.3244L253.512 101.192C253.75 101.595 254.095 101.924 254.509 102.143C254.923 102.361 255.39 102.46 255.857 102.429C256.324 102.397 256.773 102.236 257.154 101.964C257.535 101.692 257.833 101.319 258.014 100.888L281.722 44.5065C282.905 41.6945 287.072 42.5356 287.099 45.5849C287.255 62.6532 283.51 95.192 256.905 122.995C256.905 122.995 241.741 117.519 229.002 91.2447C228.111 89.411 227.93 87.3122 228.495 85.3531C229.06 83.394 230.33 81.7135 232.061 80.6359Z" fill="white"/>
<path d="M328.689 362.611C328.689 362.611 329.557 367.525 329.983 372.391C330.021 372.842 329.967 373.296 329.824 373.726C329.682 374.156 329.454 374.552 329.155 374.891C328.855 375.231 328.49 375.506 328.081 375.7C327.672 375.894 327.228 376.004 326.776 376.022C320.296 376.293 306.439 376.817 301.464 376.595C301.291 376.587 301.121 376.538 300.971 376.452C300.82 376.365 300.692 376.243 300.598 376.097C300.504 375.951 300.447 375.784 300.43 375.611C300.414 375.438 300.44 375.264 300.505 375.103C300.737 374.52 301.185 374.049 301.755 373.787L324.646 363.261L328.689 362.611Z" fill="url(#paint2_linear_1165_3834)"/>
<path d="M329.4 359.722L328.702 365.601C328.702 365.601 324.693 367.468 321.954 365.365L323.614 358.815L329.4 359.722Z" fill="url(#paint3_linear_1165_3834)"/>
<path d="M328.875 249.201C329.176 250.735 330.492 325.81 322.467 359.454C322.401 359.719 322.433 359.999 322.556 360.242C322.679 360.486 322.885 360.678 323.137 360.782C325.225 361.59 327.435 362.039 329.673 362.11C330.108 362.124 330.536 361.994 330.889 361.738C331.242 361.483 331.501 361.117 331.623 360.699C333.917 352.893 344.91 313.783 346.344 276.424C347.946 234.677 346.344 275.002 346.344 275.002L345.404 249.197L328.875 249.201Z" fill="url(#paint4_linear_1165_3834)"/>
<path d="M355.021 365.174C355.021 365.174 356.403 367.655 357.734 374.249C357.791 374.529 357.788 374.818 357.727 375.097C357.665 375.376 357.546 375.639 357.376 375.869C357.206 376.099 356.99 376.291 356.742 376.433C356.493 376.574 356.218 376.662 355.934 376.69C353.795 376.9 350.501 377.172 347.864 377.153C347.577 377.153 347.293 377.092 347.03 376.974C346.768 376.856 346.534 376.684 346.343 376.469C346.152 376.254 346.009 376.001 345.923 375.727C345.837 375.453 345.81 375.163 345.844 374.878C346.137 372.472 347.047 368.524 349.859 365.446L355.021 365.174Z" fill="url(#paint5_linear_1165_3834)"/>
<path d="M356.235 357.613L354.607 366.504C354.607 366.504 352.995 367.701 349.808 366.833L350.586 357.268L356.235 357.613Z" fill="url(#paint6_linear_1165_3834)"/>
<path d="M360.639 251.504C367.202 291.113 359.215 349.404 356.521 360.812C356.443 361.155 356.265 361.467 356.009 361.708C355.753 361.95 355.432 362.11 355.085 362.168C353.883 362.368 351.902 362.53 349.952 361.963C349.623 361.868 349.333 361.672 349.123 361.402C348.912 361.133 348.792 360.804 348.779 360.462C348.418 351.238 349.069 294.615 342.953 272.238C342.643 271.104 341.95 270.113 340.992 269.432L329.122 260.983L328.212 247.344L360.639 251.504Z" fill="url(#paint7_linear_1165_3834)"/>
<path d="M318.815 176.451C338.484 176.125 360.187 181.615 360.187 181.615C366.05 215.825 361.213 255.285 361.213 255.285C345.985 259.277 328.808 252.843 328.808 252.843C326.277 238.543 314.469 198.301 314.469 198.301C304.859 197.109 296.941 194.336 290.422 190.671C295.395 184.906 297.74 177.571 298.757 173.235C305.712 175.397 312.749 176.551 318.815 176.451Z" fill="url(#paint8_linear_1165_3834)"/>
<path d="M260.712 147.48C262.644 145.145 265.089 146.249 265.089 146.249C267.984 158.476 283.161 168.389 298.753 173.235C297.735 177.575 295.39 184.9 290.417 190.671C264.547 176.121 260.712 147.48 260.712 147.48Z" fill="url(#paint9_linear_1165_3834)"/>
<path d="M261.187 148.072C260.985 148.715 263.326 149.7 264.704 147.065C264.752 145.805 265.518 140.408 264.765 139.381C260.757 133.914 252.983 127.063 252.983 127.063C251.669 128.36 252.751 129.632 252.751 129.632L256.522 133.566C255.734 134.992 254.772 136.195 254.321 137.919C253.99 139.235 254.179 140.627 254.848 141.808C255.51 143.001 256.412 144.55 257.267 145.765C258.882 148.054 261.187 148.072 261.187 148.072Z" fill="url(#paint10_linear_1165_3834)"/>
<path d="M258.17 136.111L261.608 139.024L262.693 141.924L259.626 145.323C259.626 145.323 258.596 139.569 257.83 138.322C257.063 137.076 257.455 136.475 258.17 136.111Z" fill="url(#paint11_linear_1165_3834)"/>
<path d="M352.643 200.662L360.187 181.616C360.187 181.616 378.559 194.095 381.58 209.926C378.109 210.181 371.792 211.085 365.609 214.206C364.251 206.733 352.643 200.662 352.643 200.662Z" fill="url(#paint12_linear_1165_3834)"/>
<path d="M336.589 218.581C336.589 218.581 357.216 230.238 364.176 220.285C365.621 218.217 365.967 216.164 365.61 214.205C371.793 211.085 378.11 210.18 381.581 209.925C382.493 214.696 382.011 219.77 379.207 224.899C367.015 247.201 333.859 223.666 333.859 223.666L336.589 218.581Z" fill="url(#paint13_linear_1165_3834)"/>
<path d="M339.066 233.33L327.807 194.016C327.745 193.798 327.62 193.603 327.447 193.456C327.275 193.309 327.063 193.216 326.837 193.19C324.803 192.952 318.889 192.284 312.064 191.707C303.844 191.011 294.295 190.448 288.597 190.927C288.41 190.942 288.23 191.003 288.071 191.104C287.913 191.205 287.782 191.343 287.689 191.507C287.596 191.67 287.545 191.853 287.54 192.041C287.534 192.229 287.574 192.415 287.657 192.583C290.901 199.146 304.244 225.84 310.925 234.584C311.033 234.727 311.173 234.842 311.335 234.922C311.496 235.001 311.673 235.041 311.853 235.039L337.973 234.797C338.15 234.795 338.324 234.752 338.481 234.672C338.639 234.591 338.776 234.476 338.882 234.334C338.988 234.192 339.059 234.028 339.091 233.854C339.123 233.679 339.115 233.5 339.066 233.33Z" fill="#BDD0FB"/>
<path d="M310.901 188.298L302.739 186.942C302.64 186.925 302.538 186.935 302.443 186.969C302.349 187.004 302.264 187.062 302.199 187.139C302.133 187.215 302.088 187.307 302.069 187.406C302.049 187.505 302.055 187.607 302.087 187.703L302.901 190.145C302.935 190.249 302.998 190.342 303.083 190.412C303.168 190.483 303.27 190.528 303.38 190.542L311.233 191.591C311.327 191.603 311.423 191.593 311.512 191.56C311.601 191.528 311.681 191.474 311.745 191.404C311.808 191.334 311.854 191.249 311.878 191.157C311.901 191.065 311.902 190.969 311.881 190.877L311.381 188.739C311.354 188.627 311.293 188.525 311.208 188.446C311.123 188.368 311.016 188.316 310.901 188.298Z" fill="#7D97F4"/>
<path d="M317.005 195.208L316.326 191.706C316.293 191.535 316.205 191.379 316.077 191.262C315.949 191.144 315.786 191.071 315.613 191.053L299.128 189.381C298.999 189.368 298.87 189.387 298.75 189.435C298.63 189.482 298.523 189.558 298.439 189.655C298.354 189.752 298.293 189.868 298.262 189.993C298.23 190.118 298.229 190.249 298.258 190.375L299.307 194.739C299.348 194.908 299.443 195.06 299.578 195.172C299.712 195.283 299.879 195.349 300.053 195.358L316.162 196.172C316.285 196.179 316.409 196.157 316.522 196.109C316.636 196.061 316.737 195.988 316.818 195.895C316.899 195.802 316.958 195.692 316.99 195.573C317.023 195.454 317.028 195.329 317.005 195.208Z" fill="#7D97F4"/>
<path d="M336.347 223.831C336.347 223.831 337.915 217.384 337.283 215.096C336.651 212.807 335.425 209.867 331.339 210.52C327.254 211.174 322.436 212.894 322.436 212.894C322.436 212.894 322.68 215.878 325.783 214.914L323.858 216.406C323.858 216.406 324.13 218.792 326.756 217.517L324.965 219.493C324.965 219.493 326.093 221.452 328.021 220.196C329.95 218.94 330.875 224.609 336.347 223.831Z" fill="url(#paint14_linear_1165_3834)"/>
<path d="M338.74 160.482L344.999 178.58C345.05 178.725 345.048 178.884 344.993 179.027C344.939 179.171 344.835 179.291 344.701 179.366C342.996 180.315 336.85 183.036 329.442 178.34C329.06 178.101 328.735 177.78 328.491 177.401C328.246 177.022 328.089 176.594 328.028 176.147L326.002 160.482H338.74Z" fill="url(#paint15_linear_1165_3834)"/>
<path d="M325.122 143.723C325.122 143.723 318.249 156.659 319.131 161.884C320.013 167.109 328.528 166.735 335.966 162.491L341.164 148.519L325.122 143.723Z" fill="url(#paint16_linear_1165_3834)"/>
<path d="M335.637 155.63C335.566 155.599 335.503 155.553 335.451 155.495C335.4 155.437 335.362 155.369 335.34 155.294C335.317 155.22 335.312 155.142 335.323 155.065C335.334 154.988 335.361 154.915 335.404 154.85C335.955 154.009 336.987 152.293 337.316 150.79C337.316 150.79 338.552 149.999 334.172 148.951C329.792 147.902 323.261 146.276 321.888 142.547C320.549 138.913 324.067 129.772 329.677 137.055C329.726 137.12 329.79 137.173 329.863 137.209C329.936 137.246 330.016 137.266 330.098 137.266C330.179 137.267 330.26 137.249 330.334 137.213C330.407 137.178 330.472 137.126 330.522 137.062C331.442 135.864 333.86 133.379 337.217 134.891C340.359 136.301 340.713 138.602 340.67 139.764C340.666 139.843 340.681 139.923 340.713 139.996C340.745 140.069 340.792 140.134 340.853 140.186C340.913 140.238 340.985 140.276 341.062 140.297C341.139 140.318 341.219 140.321 341.298 140.306C342.886 140.002 346.698 139.743 348.477 143.653C349.942 146.874 348.99 148.697 348.123 149.588C348.059 149.654 348.012 149.735 347.989 149.823C347.965 149.912 347.964 150.005 347.987 150.094C348.01 150.183 348.055 150.264 348.119 150.331C348.182 150.397 348.262 150.445 348.35 150.472C349.394 150.792 350.743 151.676 350.607 154.122C350.421 157.503 346.641 157.206 345.564 157.052C345.477 157.039 345.389 157.047 345.306 157.076C345.224 157.105 345.149 157.154 345.09 157.219C344.168 158.24 340.009 162.577 335.51 163.1C335.42 163.108 335.33 163.094 335.247 163.059C335.164 163.023 335.092 162.968 335.036 162.897C334.98 162.827 334.942 162.743 334.926 162.655C334.911 162.566 334.917 162.475 334.945 162.389L336.893 156.728C336.935 156.601 336.928 156.463 336.875 156.34C336.821 156.218 336.725 156.12 336.603 156.064L335.637 155.63Z" fill="url(#paint17_linear_1165_3834)"/>
<path d="M334.854 156.436C334.854 156.436 339.747 153.078 340.105 155.905C340.463 158.732 335.698 160 333.339 158.946L334.854 156.436Z" fill="url(#paint18_linear_1165_3834)"/>
<defs>
<linearGradient id="paint0_linear_1165_3834" x1="428.889" y1="490.216" x2="96.0364" y2="76.8326" gradientUnits="userSpaceOnUse">
<stop stop-color="#DAE3FE"/>
<stop offset="1" stop-color="#E9EFFD"/>
</linearGradient>
<linearGradient id="paint1_linear_1165_3834" x1="27.2389" y1="411.421" x2="215.97" y2="141.672" gradientUnits="userSpaceOnUse">
<stop stop-color="#A87DDE"/>
<stop offset="1" stop-color="#EDDFFF"/>
</linearGradient>
<linearGradient id="paint2_linear_1165_3834" x1="302.19" y1="355.818" x2="386.02" y2="447" gradientUnits="userSpaceOnUse">
<stop stop-color="#4042E2"/>
<stop offset="1" stop-color="#4F52FF"/>
</linearGradient>
<linearGradient id="paint3_linear_1165_3834" x1="329.4" y1="362.59" x2="321.954" y2="362.59" gradientUnits="userSpaceOnUse">
<stop stop-color="#FF928E"/>
<stop offset="1" stop-color="#FEB3B1"/>
</linearGradient>
<linearGradient id="paint4_linear_1165_3834" x1="347.056" y1="305.654" x2="322.435" y2="305.654" gradientUnits="userSpaceOnUse">
<stop stop-color="#09005D"/>
<stop offset="1" stop-color="#1A0F91"/>
</linearGradient>
<linearGradient id="paint5_linear_1165_3834" x1="320.995" y1="338.528" x2="404.824" y2="429.712" gradientUnits="userSpaceOnUse">
<stop stop-color="#4042E2"/>
<stop offset="1" stop-color="#4F52FF"/>
</linearGradient>
<linearGradient id="paint6_linear_1165_3834" x1="356.235" y1="362.208" x2="349.805" y2="362.208" gradientUnits="userSpaceOnUse">
<stop stop-color="#FF928E"/>
<stop offset="1" stop-color="#FEB3B1"/>
</linearGradient>
<linearGradient id="paint7_linear_1165_3834" x1="363.167" y1="304.848" x2="328.213" y2="304.848" gradientUnits="userSpaceOnUse">
<stop stop-color="#09005D"/>
<stop offset="1" stop-color="#1A0F91"/>
</linearGradient>
<linearGradient id="paint8_linear_1165_3834" x1="339.371" y1="186.521" x2="299.319" y2="294.246" gradientUnits="userSpaceOnUse">
<stop stop-color="#4042E2"/>
<stop offset="1" stop-color="#4F52FF"/>
</linearGradient>
<linearGradient id="paint9_linear_1165_3834" x1="352.156" y1="168.33" x2="314.114" y2="168.33" gradientUnits="userSpaceOnUse">
<stop stop-color="#FF928E"/>
<stop offset="1" stop-color="#FEB3B1"/>
</linearGradient>
<linearGradient id="paint10_linear_1165_3834" x1="279.034" y1="108.37" x2="261.542" y2="133.227" gradientUnits="userSpaceOnUse">
<stop stop-color="#FF928E"/>
<stop offset="1" stop-color="#FEB3B1"/>
</linearGradient>
<linearGradient id="paint11_linear_1165_3834" x1="260.9" y1="142.611" x2="250.249" y2="126.235" gradientUnits="userSpaceOnUse">
<stop stop-color="#FF928E"/>
<stop offset="1" stop-color="#FEB3B1"/>
</linearGradient>
<linearGradient id="paint12_linear_1165_3834" x1="369.874" y1="197.862" x2="329.823" y2="305.588" gradientUnits="userSpaceOnUse">
<stop stop-color="#4042E2"/>
<stop offset="1" stop-color="#4F52FF"/>
</linearGradient>
<linearGradient id="paint13_linear_1165_3834" x1="382" y1="222.213" x2="333.859" y2="222.213" gradientUnits="userSpaceOnUse">
<stop stop-color="#FF928E"/>
<stop offset="1" stop-color="#FEB3B1"/>
</linearGradient>
<linearGradient id="paint14_linear_1165_3834" x1="337.434" y1="217.167" x2="322.436" y2="217.167" gradientUnits="userSpaceOnUse">
<stop stop-color="#FF928E"/>
<stop offset="1" stop-color="#FEB3B1"/>
</linearGradient>
<linearGradient id="paint15_linear_1165_3834" x1="330.206" y1="153.634" x2="338.184" y2="183.708" gradientUnits="userSpaceOnUse">
<stop stop-color="#FF928E"/>
<stop offset="1" stop-color="#FEB3B1"/>
</linearGradient>
<linearGradient id="paint16_linear_1165_3834" x1="345.617" y1="129.109" x2="322.294" y2="166.243" gradientUnits="userSpaceOnUse">
<stop stop-color="#FF928E"/>
<stop offset="1" stop-color="#FEB3B1"/>
</linearGradient>
<linearGradient id="paint17_linear_1165_3834" x1="359.753" y1="134.561" x2="332.553" y2="156.027" gradientUnits="userSpaceOnUse">
<stop stop-color="#09005D"/>
<stop offset="1" stop-color="#1A0F91"/>
</linearGradient>
<linearGradient id="paint18_linear_1165_3834" x1="352.186" y1="133.236" x2="328.863" y2="170.369" gradientUnits="userSpaceOnUse">
<stop stop-color="#FF928E"/>
<stop offset="1" stop-color="#FEB3B1"/>
</linearGradient>
</defs>
</svg>
