<svg width="20" height="20" viewBox="0 0 20 20" fill="none" xmlns="http://www.w3.org/2000/svg">
<path d="M3.33366 5.00033H1.66699V16.667C1.66699 17.5837 2.41699 18.3337 3.33366 18.3337H15.0003V16.667H3.33366V5.00033Z" fill="black"/>
<path d="M16.667 1.66699H6.66699C5.75033 1.66699 5.00033 2.41699 5.00033 3.33366V13.3337C5.00033 14.2503 5.75033 15.0003 6.66699 15.0003H16.667C17.5837 15.0003 18.3337 14.2503 18.3337 13.3337V3.33366C18.3337 2.41699 17.5837 1.66699 16.667 1.66699ZM11.6753 12.5003C11.1837 12.5003 10.8003 12.1087 10.8003 11.6253C10.8003 11.1337 11.192 10.7587 11.6753 10.7587C12.167 10.7587 12.542 11.1337 12.542 11.6253C12.5337 12.1087 12.167 12.5003 11.6753 12.5003ZM13.7587 7.35866C13.2337 8.13366 12.7337 8.36699 12.4587 8.86699C12.3503 9.06699 12.3087 9.20033 12.3087 9.85033H11.042C11.042 9.50866 10.992 8.95033 11.2587 8.47533C11.6003 7.86699 12.242 7.50866 12.617 6.97533C13.017 6.40866 12.792 5.35866 11.667 5.35866C10.9337 5.35866 10.567 5.91699 10.417 6.38366L9.27533 5.90866C9.59199 4.96699 10.4337 4.16699 11.6587 4.16699C12.6837 4.16699 13.392 4.63366 13.7503 5.21699C14.0587 5.72533 14.2337 6.65866 13.7587 7.35866Z" fill="black"/>
</svg>
