<svg width="20" height="20" viewBox="0 0 20 20" fill="none" xmlns="http://www.w3.org/2000/svg">
<path d="M9.6263 11.6462C9.69575 11.8128 9.82075 11.8962 10.0013 11.8962C10.1819 11.8962 10.3069 11.8128 10.3763 11.6462L11.293 9.62533L13.3138 8.70866C13.4805 8.63921 13.5638 8.51421 13.5638 8.33366C13.5638 8.1531 13.4805 8.0281 13.3138 7.95866L11.293 7.04199L10.3763 5.02116C10.3069 4.85449 10.1819 4.77116 10.0013 4.77116C9.82075 4.77116 9.69575 4.85449 9.6263 5.02116L8.70964 7.04199L6.6888 7.95866C6.52213 8.0281 6.4388 8.1531 6.4388 8.33366C6.4388 8.51421 6.52213 8.63921 6.6888 8.70866L8.70964 9.62533L9.6263 11.6462ZM1.66797 16.3128V3.33366C1.66797 2.87533 1.8313 2.48283 2.15797 2.15616C2.48408 1.83005 2.8763 1.66699 3.33464 1.66699H16.668C17.1263 1.66699 17.5188 1.83005 17.8455 2.15616C18.1716 2.48283 18.3346 2.87533 18.3346 3.33366V13.3337C18.3346 13.792 18.1716 14.1845 17.8455 14.5112C17.5188 14.8373 17.1263 15.0003 16.668 15.0003H5.0013L3.08464 16.917C2.82075 17.1809 2.51852 17.2398 2.17797 17.0937C1.83797 16.9481 1.66797 16.6878 1.66797 16.3128Z" fill="black"/>
</svg>
