<svg width="20" height="20" viewBox="0 0 20 20" fill="none" xmlns="http://www.w3.org/2000/svg">
<g clip-path="url(#clip0_2250_1178)">
<path d="M11.8084 11.4263L12.9751 9.40964C13.0501 9.28464 13.0168 9.1263 12.9084 9.03464L11.6751 8.06797C11.7001 7.88464 11.7168 7.69297 11.7168 7.5013C11.7168 7.30964 11.7001 7.11797 11.6751 6.9263L12.9084 5.95964C13.0168 5.86797 13.0501 5.70964 12.9751 5.58464L11.8084 3.56797C11.7334 3.44297 11.5834 3.39297 11.4501 3.44297L10.0001 4.0263C9.70008 3.79297 9.37508 3.6013 9.01675 3.4513L8.80008 1.90964C8.77508 1.7763 8.65008 1.66797 8.50842 1.66797H6.17508C6.03342 1.66797 5.90842 1.7763 5.88342 1.91797L5.66675 3.45964C5.31675 3.60964 4.98342 3.8013 4.68342 4.03464L3.23342 3.4513C3.10008 3.4013 2.95008 3.4513 2.87508 3.5763L1.70842 5.59297C1.63342 5.71797 1.66675 5.8763 1.77508 5.96797L3.00842 6.93464C2.98342 7.11797 2.96675 7.30964 2.96675 7.5013C2.96675 7.69297 2.98342 7.88464 3.00842 8.0763L1.77508 9.04297C1.66675 9.13464 1.63342 9.29297 1.70842 9.41797L2.87508 11.4346C2.95008 11.5596 3.10008 11.6096 3.23342 11.5596L4.68342 10.9763C4.98342 11.2096 5.30842 11.4013 5.66675 11.5513L5.88342 13.093C5.90842 13.2263 6.03342 13.3346 6.17508 13.3346H8.50842C8.65008 13.3346 8.77508 13.2263 8.80008 13.0846L9.01675 11.543C9.36675 11.393 9.70008 11.2013 10.0001 10.968L11.4501 11.5513C11.5834 11.6013 11.7334 11.5513 11.8084 11.4263ZM7.34175 9.16797C6.42508 9.16797 5.67508 8.41797 5.67508 7.5013C5.67508 6.58464 6.42508 5.83464 7.34175 5.83464C8.25842 5.83464 9.00842 6.58464 9.00842 7.5013C9.00842 8.41797 8.25842 9.16797 7.34175 9.16797Z" fill="black"/>
<path d="M18.2664 15.5609L17.4664 14.9443C17.483 14.8276 17.4997 14.7026 17.4997 14.5776C17.4997 14.4526 17.4914 14.3276 17.4664 14.2109L18.258 13.5943C18.3247 13.5359 18.3497 13.4359 18.2997 13.3526L17.5497 12.0609C17.508 11.9776 17.408 11.9526 17.3164 11.9776L16.3914 12.3526C16.1997 12.2026 15.9914 12.0776 15.758 11.9859L15.6164 11.0026C15.608 10.9026 15.5247 10.8359 15.4414 10.8359H13.9497C13.858 10.8359 13.7747 10.9026 13.7664 10.9943L13.6247 11.9776C13.3997 12.0776 13.183 12.1943 12.9914 12.3443L12.0664 11.9693C11.983 11.9359 11.883 11.9693 11.833 12.0526L11.083 13.3443C11.0414 13.4276 11.0497 13.5276 11.1247 13.5859L11.9164 14.2026C11.8997 14.3193 11.8914 14.4443 11.8914 14.5693C11.8914 14.6943 11.8997 14.8193 11.9164 14.9359L11.1247 15.5526C11.058 15.6109 11.033 15.7109 11.083 15.7943L11.833 17.0859C11.8747 17.1693 11.9747 17.1943 12.0664 17.1693L12.9914 16.7943C13.183 16.9443 13.3914 17.0693 13.6247 17.1609L13.7664 18.1443C13.783 18.2359 13.858 18.3026 13.9497 18.3026H15.4414C15.533 18.3026 15.6164 18.2359 15.6247 18.1443L15.7664 17.1609C15.9914 17.0609 16.208 16.9443 16.3914 16.7943L17.3247 17.1693C17.408 17.2026 17.508 17.1693 17.558 17.0859L18.308 15.7943C18.358 15.7193 18.333 15.6193 18.2664 15.5609ZM14.6914 15.6943C14.0747 15.6943 13.5664 15.1943 13.5664 14.5693C13.5664 13.9443 14.0664 13.4443 14.6914 13.4443C15.3164 13.4443 15.8164 13.9443 15.8164 14.5693C15.8164 15.1943 15.308 15.6943 14.6914 15.6943Z" fill="black"/>
</g>
<defs>
<clipPath id="clip0_2250_1178">
<rect width="20" height="20" fill="white"/>
</clipPath>
</defs>
</svg>
