<svg width="20" height="20" viewBox="0 0 20 20" fill="none" xmlns="http://www.w3.org/2000/svg">
<path d="M2.4987 15.8346C2.04036 15.8346 1.64814 15.6716 1.32203 15.3455C0.995365 15.0188 0.832031 14.6263 0.832031 14.168V5.83464C0.832031 5.3763 0.995365 4.98408 1.32203 4.65797C1.64814 4.3313 2.04036 4.16797 2.4987 4.16797H10.832C11.2904 4.16797 11.6829 4.3313 12.0095 4.65797C12.3356 4.98408 12.4987 5.3763 12.4987 5.83464V14.168C12.4987 14.6263 12.3356 15.0188 12.0095 15.3455C11.6829 15.6716 11.2904 15.8346 10.832 15.8346H2.4987ZM14.9987 9.16797C14.7626 9.16797 14.5648 9.08797 14.4054 8.92797C14.2454 8.76852 14.1654 8.57075 14.1654 8.33464V5.0013C14.1654 4.76519 14.2454 4.56714 14.4054 4.40714C14.5648 4.24769 14.7626 4.16797 14.9987 4.16797H18.332C18.5681 4.16797 18.7659 4.24769 18.9254 4.40714C19.0854 4.56714 19.1654 4.76519 19.1654 5.0013V8.33464C19.1654 8.57075 19.0854 8.76852 18.9254 8.92797C18.7659 9.08797 18.5681 9.16797 18.332 9.16797H14.9987ZM4.16536 12.5013H9.16537C9.33203 12.5013 9.45703 12.4249 9.54037 12.2721C9.6237 12.1194 9.60981 11.9735 9.4987 11.8346L8.14453 10.0221C8.0612 9.91102 7.95009 9.85547 7.8112 9.85547C7.67231 9.85547 7.5612 9.91102 7.47787 10.0221L6.2487 11.668L5.4362 10.5846C5.35286 10.4735 5.24175 10.418 5.10286 10.418C4.96398 10.418 4.85286 10.4735 4.76953 10.5846L3.83203 11.8346C3.72092 11.9735 3.70703 12.1194 3.79036 12.2721C3.8737 12.4249 3.9987 12.5013 4.16536 12.5013ZM14.9987 15.8346C14.7626 15.8346 14.5648 15.7546 14.4054 15.5946C14.2454 15.4352 14.1654 15.2374 14.1654 15.0013V11.668C14.1654 11.4319 14.2454 11.2338 14.4054 11.0738C14.5648 10.9144 14.7626 10.8346 14.9987 10.8346H18.332C18.5681 10.8346 18.7659 10.9144 18.9254 11.0738C19.0854 11.2338 19.1654 11.4319 19.1654 11.668V15.0013C19.1654 15.2374 19.0854 15.4352 18.9254 15.5946C18.7659 15.7546 18.5681 15.8346 18.332 15.8346H14.9987Z" fill="black"/>
</svg>
